<svg width="300" height="300" viewBox="0 0 300 300" fill="none" xmlns="http://www.w3.org/2000/svg">
<path d="M300 229.44H0V229.59H300V229.44Z" fill="#EBEBEB"/>
<path d="M266.334 238.086H230.4V238.236H266.334V238.086Z" fill="#EBEBEB"/>
<path d="M203.34 234.84H171.798V234.99H203.34V234.84Z" fill="#EBEBEB"/>
<path d="M227.154 238.014H217.344V238.164H227.154V238.014Z" fill="#EBEBEB"/>
<path d="M62.868 234.768H33.666V234.918H62.868V234.768Z" fill="#EBEBEB"/>
<path d="M71.79 234.768H65.532V234.918H71.79V234.768Z" fill="#EBEBEB"/>
<path d="M121.398 236.058H101.208V236.208H121.398V236.058Z" fill="#EBEBEB"/>
<path d="M142.2 202.68H26.346C25.4384 202.678 24.5685 202.317 23.9273 201.674C23.2861 201.032 22.926 200.162 22.926 199.254V36.396C22.9339 35.4936 23.2975 34.6308 23.9379 33.9949C24.5782 33.3591 25.4436 33.0015 26.346 33H142.2C143.109 33 143.98 33.361 144.623 34.0035C145.265 34.646 145.626 35.5174 145.626 36.426V199.254C145.626 200.163 145.265 201.034 144.623 201.677C143.98 202.319 143.109 202.68 142.2 202.68ZM26.346 33.12C25.4782 33.1216 24.6465 33.4674 24.0334 34.0816C23.4203 34.6958 23.076 35.5282 23.076 36.396V199.254C23.076 200.122 23.4203 200.954 24.0334 201.568C24.6465 202.183 25.4782 202.528 26.346 202.53H142.2C143.068 202.528 143.901 202.183 144.515 201.569C145.129 200.955 145.474 200.122 145.476 199.254V36.396C145.474 35.5276 145.129 34.6953 144.515 34.0813C143.901 33.4672 143.068 33.1216 142.2 33.12H26.346Z" fill="#EBEBEB"/>
<path d="M271.986 202.68H156.126C155.218 202.678 154.347 202.317 153.705 201.675C153.063 201.033 152.702 200.162 152.7 199.254V36.396C152.709 35.4931 153.074 34.6302 153.716 33.9946C154.357 33.3589 155.223 33.0015 156.126 33H271.986C272.887 33.0031 273.751 33.3613 274.39 33.997C275.029 34.6327 275.392 35.4947 275.4 36.396V199.254C275.4 200.161 275.041 201.03 274.401 201.672C273.761 202.314 272.893 202.677 271.986 202.68ZM156.126 33.12C155.258 33.1216 154.425 33.4672 153.811 34.0813C153.197 34.6953 152.852 35.5276 152.85 36.396V199.254C152.852 200.122 153.197 200.955 153.811 201.569C154.425 202.183 155.258 202.528 156.126 202.53H271.986C272.854 202.528 273.687 202.183 274.301 201.569C274.915 200.955 275.26 200.122 275.262 199.254V36.396C275.26 35.5276 274.915 34.6953 274.301 34.0813C273.687 33.4672 272.854 33.1216 271.986 33.12H156.126Z" fill="#EBEBEB"/>
<path d="M271.866 169.38H28.134V173.592H271.866V169.38Z" fill="#EBEBEB"/>
<path d="M67.608 147.978L232.386 147.978V48.57L67.608 48.57V147.978Z" fill="#F0F0F0"/>
<path d="M227.934 143.526V53.022L72.06 53.022V143.526H227.934Z" fill="#FAFAFA"/>
<path d="M202.692 143.526L174.288 53.022H146.16L174.564 143.526H202.692Z" fill="white"/>
<path d="M165.846 143.526L137.442 53.022H126.474L154.878 143.526H165.846Z" fill="white"/>
<path d="M72.63 143.526V53.022H72.066V143.526H72.63Z" fill="#E6E6E6"/>
<path d="M269.796 173.592H30.198V229.44H269.796V173.592Z" fill="#F5F5F5"/>
<path d="M171.492 173.592H155.358L128.508 229.44H144.642L171.492 173.592Z" fill="#FAFAFA"/>
<path d="M245.448 173.592H229.314L202.464 229.44H218.598L245.448 173.592Z" fill="#FAFAFA"/>
<path d="M149.298 173.592H133.164L106.32 229.44H122.454L149.298 173.592Z" fill="#FAFAFA"/>
<path d="M52.452 165.6L47.4 159.75V149.19C47.4982 149.187 47.5912 149.146 47.6596 149.075C47.7279 149.005 47.7661 148.91 47.766 148.812C47.766 148.71 47.7255 148.612 47.6535 148.54C47.5815 148.468 47.4838 148.428 47.382 148.428H42C41.8982 148.428 41.8005 148.468 41.7285 148.54C41.6565 148.612 41.616 148.71 41.616 148.812C41.616 148.91 41.6541 149.005 41.7224 149.075C41.7908 149.146 41.8838 149.187 41.982 149.19V159.75L36.948 165.6C36.6624 165.93 36.4778 166.335 36.4162 166.768C36.3547 167.2 36.4189 167.641 36.6011 168.037C36.7833 168.434 37.0759 168.77 37.4438 169.005C37.8117 169.24 38.2395 169.364 38.676 169.362H50.724C51.1605 169.364 51.5883 169.24 51.9562 169.005C52.3241 168.77 52.6167 168.434 52.7989 168.037C52.9811 167.641 53.0453 167.2 52.9838 166.768C52.9222 166.335 52.7376 165.93 52.452 165.6Z" fill="#F5F5F5"/>
<path d="M181.116 165.6L176.064 159.732V137.532C176.166 137.532 176.264 137.492 176.336 137.42C176.408 137.348 176.448 137.25 176.448 137.148C176.448 137.046 176.408 136.948 176.336 136.876C176.264 136.804 176.166 136.764 176.064 136.764H170.706C170.604 136.764 170.507 136.804 170.434 136.876C170.362 136.948 170.322 137.046 170.322 137.148C170.322 137.25 170.362 137.348 170.434 137.42C170.507 137.492 170.604 137.532 170.706 137.532V159.732L165.6 165.6C165.314 165.93 165.13 166.335 165.068 166.768C165.007 167.2 165.071 167.641 165.253 168.037C165.435 168.434 165.728 168.77 166.096 169.005C166.464 169.24 166.891 169.364 167.328 169.362H179.4C179.836 169.361 180.262 169.236 180.628 169C180.994 168.764 181.285 168.428 181.465 168.032C181.646 167.636 181.709 167.196 181.647 166.765C181.585 166.334 181.401 165.929 181.116 165.6Z" fill="#F5F5F5"/>
<path d="M127.806 169.35H85.998L89.298 127.536H127.806V169.35Z" fill="#E0E0E0"/>
<path d="M146.208 158.136H104.4L100.608 127.536H142.416L146.208 158.136Z" fill="#F0F0F0"/>
<path d="M146.208 158.136H104.4L117.456 169.38H159.264L146.208 158.136Z" fill="#F0F0F0"/>
<path d="M106.248 153.696L103.56 132C103.518 131.743 103.534 131.48 103.606 131.229C103.678 130.979 103.805 130.747 103.977 130.552C104.149 130.356 104.362 130.201 104.601 130.098C104.84 129.994 105.1 129.945 105.36 129.954H138.282C138.844 129.972 139.382 130.186 139.802 130.56C140.222 130.934 140.497 131.444 140.58 132L143.268 153.714C143.309 153.971 143.292 154.233 143.22 154.483C143.147 154.733 143.021 154.963 142.849 155.158C142.677 155.353 142.464 155.507 142.225 155.61C141.986 155.714 141.728 155.763 141.468 155.754H108.546C107.982 155.736 107.443 155.519 107.023 155.143C106.602 154.767 106.328 154.254 106.248 153.696Z" fill="#E0E0E0"/>
<path d="M216.504 169.35H251.046L248.322 134.814H216.504V169.35Z" fill="#E0E0E0"/>
<path d="M201.306 160.092H235.842L238.98 134.814H204.438L201.306 160.092Z" fill="#F0F0F0"/>
<path d="M201.306 160.092H235.842L225.06 169.38H190.518L201.306 160.092Z" fill="#F0F0F0"/>
<path d="M234.318 156.426L236.544 138.48C236.578 138.268 236.564 138.052 236.505 137.846C236.445 137.64 236.341 137.45 236.199 137.289C236.058 137.128 235.882 137 235.686 136.914C235.489 136.829 235.276 136.788 235.062 136.794H207.864C207.4 136.806 206.955 136.982 206.608 137.291C206.261 137.599 206.034 138.02 205.968 138.48L203.742 156.426C203.709 156.637 203.722 156.853 203.781 157.059C203.84 157.264 203.944 157.454 204.085 157.615C204.226 157.776 204.4 157.904 204.596 157.99C204.792 158.075 205.004 158.117 205.218 158.112H232.422C232.886 158.1 233.331 157.924 233.678 157.615C234.025 157.307 234.252 156.886 234.318 156.426Z" fill="#E0E0E0"/>
<path d="M150 256.536C214.249 256.536 266.334 253.495 266.334 249.744C266.334 245.993 214.249 242.952 150 242.952C85.7505 242.952 33.666 245.993 33.666 249.744C33.666 253.495 85.7505 256.536 150 256.536Z" fill="#F5F5F5"/>
<path opacity="0.2" d="M52.2 75.192L84.396 198.192C85.3857 201.932 87.8156 205.128 91.1547 207.082C94.4938 209.036 98.4706 209.589 102.216 208.62C105.956 207.63 109.152 205.2 111.106 201.861C113.06 198.522 113.613 194.545 112.644 190.8L80.448 67.8L52.2 75.192Z" fill="#11414C"/>
<path d="M101.304 205.14C98.482 205.875 95.4839 205.461 92.9667 203.988C90.4496 202.516 88.6189 200.106 87.876 197.286L63.6 104.466C63.6 104.466 68.514 101.112 74.244 101.682C77.9665 101.948 81.7001 101.349 85.152 99.93L109.152 191.73C109.883 194.549 109.468 197.542 107.997 200.056C106.526 202.569 104.12 204.397 101.304 205.14Z" fill="#11414C"/>
<path opacity="0.2" d="M86.112 157.272C86.112 157.781 85.961 158.279 85.6782 158.702C85.3954 159.125 84.9934 159.455 84.523 159.65C84.0527 159.845 83.5351 159.896 83.0358 159.797C82.5365 159.697 82.0779 159.452 81.7179 159.092C81.3579 158.732 81.1128 158.273 81.0135 157.774C80.9141 157.275 80.9651 156.757 81.1599 156.287C81.3548 155.817 81.6847 155.415 82.108 155.132C82.5313 154.849 83.0289 154.698 83.538 154.698C84.2202 154.7 84.874 154.971 85.3563 155.454C85.8387 155.936 86.1104 156.59 86.112 157.272Z" fill="black"/>
<path d="M84.69 157.272C84.6912 157.5 84.6246 157.723 84.4988 157.914C84.3729 158.104 84.1934 158.252 83.983 158.341C83.7726 158.429 83.5408 158.452 83.317 158.409C83.0931 158.365 82.8873 158.256 82.7256 158.095C82.5638 157.934 82.4535 157.729 82.4086 157.505C82.3637 157.281 82.3861 157.049 82.4731 156.839C82.5601 156.628 82.7078 156.447 82.8974 156.321C83.0869 156.194 83.3099 156.126 83.538 156.126C83.8425 156.126 84.1346 156.247 84.3505 156.461C84.5663 156.676 84.6884 156.967 84.69 157.272Z" fill="#11414C"/>
<path opacity="0.2" d="M86.784 129.798C86.7852 130.101 86.6963 130.398 86.5287 130.65C86.361 130.903 86.1221 131.1 85.8423 131.216C85.5625 131.333 85.2543 131.364 84.957 131.305C84.6596 131.246 84.3865 131.1 84.1721 130.886C83.9578 130.672 83.812 130.398 83.7531 130.101C83.6943 129.804 83.7251 129.496 83.8416 129.216C83.9582 128.936 84.1552 128.697 84.4077 128.529C84.6603 128.362 84.9569 128.273 85.26 128.274C85.6637 128.276 86.0504 128.437 86.3359 128.722C86.6214 129.008 86.7824 129.394 86.784 129.798Z" fill="black"/>
<path d="M85.938 129.798C85.9392 129.934 85.8999 130.067 85.8252 130.18C85.7505 130.294 85.6438 130.382 85.5185 130.435C85.3933 130.487 85.2553 130.501 85.1221 130.475C84.9888 130.449 84.8664 130.384 84.7704 130.288C84.6743 130.192 84.6091 130.069 84.5829 129.936C84.5567 129.803 84.5707 129.665 84.6232 129.539C84.6758 129.414 84.7644 129.307 84.8778 129.233C84.9912 129.158 85.1242 129.119 85.26 129.12C85.4393 129.122 85.6109 129.193 85.7377 129.32C85.8645 129.447 85.9364 129.619 85.938 129.798Z" fill="#11414C"/>
<path opacity="0.2" d="M92.85 189.102C94.6725 189.102 96.15 187.625 96.15 185.802C96.15 183.979 94.6725 182.502 92.85 182.502C91.0275 182.502 89.55 183.979 89.55 185.802C89.55 187.625 91.0275 189.102 92.85 189.102Z" fill="black"/>
<path d="M92.85 187.278C93.6652 187.278 94.326 186.617 94.326 185.802C94.326 184.987 93.6652 184.326 92.85 184.326C92.0348 184.326 91.374 184.987 91.374 185.802C91.374 186.617 92.0348 187.278 92.85 187.278Z" fill="#11414C"/>
<path opacity="0.2" d="M96.09 173.028C97.1272 173.028 97.968 172.187 97.968 171.15C97.968 170.113 97.1272 169.272 96.09 169.272C95.0528 169.272 94.212 170.113 94.212 171.15C94.212 172.187 95.0528 173.028 96.09 173.028Z" fill="black"/>
<path d="M96.924 171.15C96.924 171.316 96.8746 171.479 96.782 171.617C96.6894 171.756 96.5579 171.863 96.404 171.927C96.2502 171.99 96.081 172.006 95.9179 171.973C95.7548 171.941 95.6051 171.86 95.4879 171.742C95.3707 171.624 95.2911 171.474 95.2594 171.31C95.2277 171.147 95.2452 170.978 95.3097 170.824C95.3742 170.671 95.4828 170.54 95.6217 170.449C95.7606 170.357 95.9236 170.309 96.09 170.31C96.3117 170.312 96.5239 170.401 96.6801 170.558C96.8363 170.716 96.924 170.928 96.924 171.15Z" fill="#11414C"/>
<path opacity="0.2" d="M101.694 197.208C102.91 197.208 103.896 196.222 103.896 195.006C103.896 193.79 102.91 192.804 101.694 192.804C100.478 192.804 99.492 193.79 99.492 195.006C99.492 196.222 100.478 197.208 101.694 197.208Z" fill="black"/>
<path d="M102.678 195C102.678 195.195 102.62 195.385 102.512 195.547C102.404 195.708 102.25 195.835 102.071 195.909C101.891 195.984 101.693 196.003 101.502 195.965C101.311 195.927 101.136 195.833 100.998 195.696C100.861 195.558 100.767 195.383 100.729 195.192C100.691 195.001 100.71 194.803 100.785 194.623C100.859 194.444 100.985 194.29 101.147 194.182C101.309 194.074 101.499 194.016 101.694 194.016C101.955 194.016 102.205 194.12 102.39 194.304C102.574 194.489 102.678 194.739 102.678 195Z" fill="#11414C"/>
<path opacity="0.2" d="M87.54 142.722C87.54 143.231 87.389 143.729 87.1062 144.152C86.8234 144.575 86.4214 144.905 85.951 145.1C85.4807 145.295 84.9631 145.346 84.4638 145.247C83.9645 145.147 83.5059 144.902 83.1459 144.542C82.7859 144.182 82.5408 143.723 82.4415 143.224C82.3421 142.725 82.3931 142.207 82.5879 141.737C82.7828 141.267 83.1127 140.865 83.536 140.582C83.9593 140.299 84.4569 140.148 84.966 140.148C85.6487 140.148 86.3034 140.419 86.7861 140.902C87.2688 141.385 87.54 142.039 87.54 142.722Z" fill="black"/>
<path d="M86.784 142.722C86.784 143.078 86.6784 143.426 86.4806 143.722C86.2829 144.018 86.0017 144.249 85.6728 144.385C85.3439 144.521 84.982 144.557 84.6328 144.487C84.2837 144.418 83.9629 144.247 83.7112 143.995C83.4595 143.743 83.288 143.422 83.2186 143.073C83.1491 142.724 83.1848 142.362 83.321 142.033C83.4573 141.704 83.688 141.423 83.984 141.225C84.28 141.028 84.628 140.922 84.984 140.922C85.4614 140.922 85.9192 141.112 86.2568 141.449C86.5944 141.787 86.784 142.245 86.784 142.722Z" fill="#11414C"/>
<path opacity="0.2" d="M93.384 153.066C93.384 153.422 93.2784 153.77 93.0806 154.066C92.8829 154.362 92.6017 154.593 92.2728 154.729C91.9439 154.865 91.582 154.901 91.2328 154.831C90.8837 154.762 90.5629 154.591 90.3112 154.339C90.0595 154.087 89.888 153.766 89.8186 153.417C89.7491 153.068 89.7848 152.706 89.921 152.377C90.0573 152.048 90.288 151.767 90.584 151.569C90.88 151.372 91.228 151.266 91.584 151.266C92.0614 151.266 92.5192 151.456 92.8568 151.793C93.1944 152.131 93.384 152.589 93.384 153.066Z" fill="black"/>
<path d="M92.85 153.066C92.8548 153.322 92.7832 153.574 92.6444 153.789C92.5055 154.004 92.3058 154.173 92.0705 154.275C91.8353 154.376 91.5752 154.405 91.3234 154.358C91.0716 154.311 90.8395 154.19 90.6567 154.011C90.4738 153.831 90.3486 153.601 90.2968 153.351C90.2451 153.1 90.2692 152.839 90.3661 152.602C90.463 152.365 90.6283 152.162 90.8409 152.019C91.0535 151.876 91.3038 151.8 91.56 151.8C91.898 151.8 92.2225 151.933 92.4638 152.169C92.705 152.406 92.8437 152.728 92.85 153.066Z" fill="#11414C"/>
<path d="M74.9838 82.4627L64.147 85.2996L73.8719 122.448L84.7087 119.611L74.9838 82.4627Z" fill="white"/>
<path d="M78.9354 47.4065L78.3549 47.5585L79.5067 51.9582L80.0872 51.8063L78.9354 47.4065Z" fill="#11414C"/>
<path d="M77.616 44.724L75.18 35.43C75.0209 34.8205 74.6643 34.2809 74.1661 33.8956C73.6678 33.5102 73.0559 33.3008 72.426 33.3C72.1808 33.299 71.9365 33.3313 71.7 33.396L66.222 34.83L66.072 34.23L71.55 32.796C71.8357 32.7194 72.1302 32.6811 72.426 32.682C73.1891 32.6825 73.9305 32.9361 74.5341 33.4029C75.1377 33.8698 75.5696 34.5236 75.762 35.262L78.162 44.556L77.616 44.724Z" fill="#11414C"/>
<path d="M43.3497 42.364L72.0815 34.8425C72.426 34.7572 72.7903 34.811 73.0954 34.9923C73.4006 35.1736 73.6221 35.4677 73.7119 35.8111L81.5754 65.8489L50.2316 74.0542L42.3682 44.0165C42.3229 43.8435 42.3124 43.6632 42.3373 43.4862C42.3622 43.3091 42.4221 43.1388 42.5134 42.985C42.6047 42.8313 42.7257 42.6972 42.8692 42.5906C43.0128 42.484 43.1761 42.407 43.3497 42.364Z" fill="#11414C"/>
<path opacity="0.2" d="M58.4934 38.3936L56.9436 38.7993L65.1489 70.1431L66.6987 69.7374L58.4934 38.3936Z" fill="black"/>
<path opacity="0.2" d="M64.3568 37.1952L62.8028 37.5957L70.9028 69.0237L72.4568 68.6232L64.3568 37.1952Z" fill="black"/>
<path opacity="0.2" d="M70.0962 35.3619L68.5464 35.7676L76.7518 67.1114L78.3015 66.7056L70.0962 35.3619Z" fill="black"/>
<path opacity="0.2" d="M52.6831 39.917L51.1334 40.3227L59.3387 71.6665L60.8885 71.2608L52.6831 39.917Z" fill="black"/>
<path opacity="0.2" d="M46.8862 41.4387L45.3365 41.8444L53.5418 73.1882L55.0916 72.7825L46.8862 41.4387Z" fill="black"/>
<path d="M81.0422 63.7138L49.6926 71.9207C48.6251 72.2001 47.9863 73.2921 48.2658 74.3595L49.3552 78.5213C49.6347 79.5888 50.7266 80.2276 51.7941 79.9482L83.1437 71.7413C84.2112 71.4619 84.85 70.3699 84.5706 69.3024L83.4811 65.1407C83.2016 64.0732 82.1097 63.4344 81.0422 63.7138Z" fill="#11414C"/>
<path d="M264.541 110.016L264.213 114.071L264.811 114.119L265.139 110.064L264.541 110.016Z" fill="#11414C"/>
<path d="M265.897 93.5587L264.924 105.597L265.522 105.646L266.495 93.607L265.897 93.5587Z" fill="#11414C"/>
<path d="M168.09 44.112L157.476 175.386L236.364 181.758L258.792 162.69L267.726 52.164L168.09 44.112Z" fill="white"/>
<path d="M236.364 182.31H236.316L157.434 175.932C157.361 175.927 157.29 175.907 157.225 175.874C157.16 175.84 157.102 175.795 157.055 175.739C157.008 175.683 156.973 175.618 156.951 175.548C156.93 175.478 156.923 175.405 156.93 175.332L167.538 44.07C167.544 43.9974 167.564 43.9267 167.598 43.862C167.631 43.7973 167.677 43.7399 167.733 43.6931C167.789 43.6462 167.853 43.6109 167.923 43.5891C167.992 43.5672 168.065 43.5594 168.138 43.566L267.768 51.6C267.841 51.6052 267.912 51.6251 267.977 51.6583C268.042 51.6915 268.1 51.7375 268.147 51.7934C268.194 51.8494 268.229 51.9142 268.251 51.984C268.272 52.0539 268.279 52.1273 268.272 52.2L259.338 162.72C259.333 162.792 259.313 162.862 259.28 162.926C259.247 162.99 259.202 163.046 259.146 163.092L236.718 182.166C236.621 182.256 236.496 182.307 236.364 182.31ZM158.07 174.882L236.178 181.2L258.264 162.42L267.132 52.668L168.6 44.706L158.07 174.882Z" fill="#11414C"/>
<path opacity="0.2" d="M234.132 162.252L236.364 181.758L258.792 162.69L234.132 162.252Z" fill="#11414C"/>
<path d="M238.038 161.01L236.364 181.758L258.792 162.69L238.038 161.01Z" fill="white"/>
<path d="M236.364 182.31C236.276 182.311 236.19 182.29 236.112 182.25C236.015 182.201 235.935 182.123 235.881 182.028C235.828 181.933 235.804 181.825 235.812 181.716L237.492 160.968C237.497 160.895 237.516 160.824 237.549 160.759C237.582 160.694 237.628 160.637 237.684 160.59C237.739 160.543 237.803 160.507 237.872 160.486C237.941 160.464 238.014 160.457 238.086 160.464L258.834 162.138C258.942 162.147 259.046 162.187 259.131 162.255C259.216 162.322 259.28 162.413 259.314 162.516C259.349 162.621 259.351 162.735 259.322 162.842C259.292 162.949 259.23 163.044 259.146 163.116L236.718 182.19C236.619 182.272 236.493 182.315 236.364 182.31ZM238.542 161.604L237 180.48L257.4 163.128L238.542 161.604Z" fill="#11414C"/>
<path d="M216.564 66.888H216.39C215.882 66.8467 215.411 66.6056 215.08 66.2176C214.75 65.8295 214.586 65.3262 214.626 64.818L215.034 59.784C215.054 59.5319 215.124 59.2861 215.239 59.0609C215.354 58.8356 215.512 58.6352 215.705 58.4712C215.897 58.3071 216.12 58.1825 216.361 58.1046C216.601 58.0267 216.855 57.9969 217.107 58.017C217.359 58.0371 217.605 58.1066 217.83 58.2217C218.055 58.3368 218.256 58.495 218.42 58.6875C218.584 58.88 218.708 59.103 218.786 59.3436C218.864 59.5842 218.894 59.8379 218.874 60.09L218.466 65.124C218.426 65.6021 218.208 66.048 217.857 66.3742C217.505 66.7005 217.044 66.8837 216.564 66.888Z" fill="#11414C"/>
<path d="M219.486 62.058H219.318L214.284 61.65C214.022 61.6435 213.765 61.5838 213.527 61.4743C213.289 61.3649 213.076 61.2081 212.901 61.0136C212.725 60.819 212.592 60.5908 212.508 60.3428C212.424 60.0949 212.391 59.8324 212.412 59.5714C212.433 59.3104 212.506 59.0563 212.629 58.8248C212.751 58.5933 212.919 58.3892 213.123 58.2249C213.327 58.0606 213.562 57.9396 213.814 57.8693C214.067 57.799 214.331 57.7809 214.59 57.816L219.6 58.2C220.085 58.2517 220.532 58.4852 220.851 58.8534C221.17 59.2216 221.338 59.6972 221.321 60.1843C221.303 60.6714 221.102 61.1337 220.757 61.4781C220.412 61.8224 219.949 62.0232 219.462 62.04L219.486 62.058Z" fill="#11414C"/>
<path d="M212.196 120.888H212.028C211.776 120.868 211.531 120.799 211.305 120.684C211.08 120.57 210.88 120.411 210.716 120.219C210.552 120.027 210.428 119.804 210.35 119.564C210.273 119.323 210.243 119.07 210.264 118.818L210.672 113.784C210.678 113.522 210.738 113.265 210.848 113.027C210.957 112.789 211.114 112.576 211.308 112.401C211.503 112.225 211.731 112.092 211.979 112.008C212.227 111.923 212.49 111.891 212.751 111.912C213.012 111.933 213.266 112.006 213.497 112.129C213.729 112.251 213.933 112.419 214.097 112.623C214.261 112.827 214.382 113.062 214.453 113.314C214.523 113.567 214.541 113.831 214.506 114.09L214.098 119.124C214.059 119.603 213.842 120.049 213.49 120.376C213.138 120.702 212.676 120.885 212.196 120.888Z" fill="#11414C"/>
<path d="M214.716 121.092H214.542L209.508 120.684C209.247 120.677 208.99 120.616 208.752 120.506C208.515 120.396 208.303 120.239 208.129 120.044C207.954 119.849 207.821 119.621 207.738 119.373C207.654 119.125 207.622 118.863 207.643 118.603C207.665 118.342 207.739 118.088 207.861 117.857C207.983 117.626 208.152 117.423 208.355 117.259C208.559 117.095 208.794 116.974 209.046 116.904C209.297 116.833 209.561 116.815 209.82 116.85L214.854 117.258C215.339 117.31 215.786 117.543 216.105 117.911C216.424 118.28 216.592 118.755 216.575 119.242C216.557 119.729 216.355 120.192 216.011 120.536C215.666 120.88 215.203 121.081 214.716 121.098V121.092Z" fill="#11414C"/>
<path d="M244.098 93.762H243.93L238.896 93.354C238.387 93.3126 237.915 93.0706 237.584 92.6813C237.253 92.292 237.091 91.7872 237.132 91.278C237.173 90.7688 237.415 90.2968 237.805 89.966C238.194 89.6352 238.699 89.4726 239.208 89.514L244.242 89.922C244.737 89.9611 245.199 90.1903 245.529 90.5616C245.859 90.9328 246.034 91.4174 246.015 91.9141C245.996 92.4107 245.786 92.8809 245.429 93.2265C245.072 93.572 244.595 93.766 244.098 93.768V93.762Z" fill="#11414C"/>
<path d="M243.9 96.276H243.726C243.474 96.2556 243.228 96.1856 243.003 96.0702C242.778 95.9548 242.578 95.7962 242.414 95.6034C242.25 95.4106 242.126 95.1875 242.048 94.9467C241.971 94.7059 241.941 94.4521 241.962 94.2L242.37 89.166C242.436 88.6771 242.687 88.2321 243.071 87.9228C243.455 87.6134 243.943 87.4632 244.435 87.5033C244.927 87.5433 245.384 87.7704 245.713 88.1378C246.042 88.5052 246.218 88.9849 246.204 89.478L245.802 94.512C245.762 94.9901 245.544 95.4359 245.193 95.7622C244.841 96.0885 244.38 96.2717 243.9 96.276Z" fill="#11414C"/>
<path d="M190.098 89.4H189.93L184.896 88.992C184.635 88.9845 184.378 88.9239 184.14 88.8139C183.903 88.7038 183.691 88.5466 183.517 88.3519C183.342 88.1571 183.209 87.9289 183.126 87.6811C183.042 87.4333 183.01 87.1712 183.031 86.9106C183.053 86.65 183.127 86.3964 183.249 86.1654C183.371 85.9343 183.54 85.7306 183.743 85.5666C183.947 85.4027 184.182 85.2819 184.434 85.2116C184.685 85.1414 184.949 85.1231 185.208 85.158L190.242 85.566C190.727 85.6181 191.174 85.8521 191.493 86.2209C191.812 86.5897 191.979 87.0658 191.961 87.5532C191.943 88.0405 191.74 88.5027 191.394 88.8466C191.049 89.1905 190.585 89.3904 190.098 89.406V89.4Z" fill="#11414C"/>
<path d="M184.866 91.506H184.692C184.44 91.4856 184.194 91.4156 183.969 91.3002C183.744 91.1848 183.544 91.0262 183.38 90.8334C183.216 90.6406 183.092 90.4175 183.014 90.1767C182.937 89.9359 182.907 89.6821 182.928 89.43L183.336 84.396C183.343 84.1347 183.404 83.8776 183.514 83.6404C183.624 83.4032 183.781 83.191 183.976 83.0165C184.171 82.8421 184.399 82.7091 184.647 82.6257C184.895 82.5423 185.157 82.5102 185.417 82.5314C185.678 82.5526 185.932 82.6267 186.163 82.749C186.394 82.8714 186.597 83.0395 186.761 83.2432C186.925 83.4468 187.046 83.6817 187.116 83.9335C187.187 84.1854 187.205 84.4489 187.17 84.708L186.768 89.742C186.728 90.2201 186.51 90.666 186.159 90.9922C185.807 91.3185 185.346 91.5017 184.866 91.506Z" fill="#11414C"/>
<path d="M198.672 72.66C198.39 72.6643 198.111 72.6056 197.854 72.4883C197.598 72.3711 197.371 72.1981 197.19 71.982L193.914 68.136C193.583 67.7469 193.42 67.2423 193.461 66.7331C193.502 66.224 193.744 65.752 194.133 65.421C194.522 65.09 195.027 64.9271 195.536 64.9682C196.045 65.0093 196.517 65.2509 196.848 65.64L200.124 69.492C200.454 69.8813 200.615 70.3855 200.574 70.8939C200.532 71.4024 200.291 71.8735 199.902 72.204C199.559 72.4975 199.123 72.6592 198.672 72.66Z" fill="#11414C"/>
<path d="M193.476 70.452C193.081 70.455 192.695 70.3365 192.369 70.1125C192.044 69.8885 191.795 69.5699 191.657 69.1999C191.519 68.8298 191.498 68.4263 191.597 68.0438C191.696 67.6614 191.91 67.3186 192.21 67.062L196.062 63.786C196.253 63.609 196.477 63.4725 196.722 63.3846C196.967 63.2968 197.227 63.2594 197.487 63.2749C197.746 63.2903 198 63.3582 198.233 63.4745C198.466 63.5907 198.673 63.7529 198.841 63.9512C199.009 64.1496 199.136 64.38 199.212 64.6285C199.289 64.8771 199.315 65.1386 199.288 65.3973C199.261 65.6561 199.182 65.9067 199.055 66.134C198.929 66.3613 198.758 66.5607 198.552 66.72L194.706 69.99C194.362 70.2825 193.927 70.4459 193.476 70.452Z" fill="#11414C"/>
<path d="M233.766 113.934C233.485 113.935 233.206 113.875 232.951 113.758C232.695 113.641 232.467 113.47 232.284 113.256L229.014 109.41C228.85 109.217 228.726 108.994 228.648 108.754C228.57 108.513 228.541 108.259 228.561 108.007C228.582 107.755 228.651 107.509 228.767 107.284C228.882 107.059 229.04 106.859 229.233 106.695C229.426 106.531 229.649 106.407 229.889 106.329C230.13 106.251 230.384 106.222 230.636 106.242C230.888 106.263 231.134 106.332 231.359 106.448C231.584 106.563 231.784 106.721 231.948 106.914L235.2 110.76C235.435 111.04 235.586 111.381 235.635 111.743C235.684 112.105 235.629 112.474 235.477 112.806C235.325 113.138 235.082 113.421 234.776 113.62C234.47 113.82 234.113 113.929 233.748 113.934H233.766Z" fill="#11414C"/>
<path d="M231.846 115.566C231.564 115.57 231.285 115.512 231.028 115.394C230.772 115.277 230.545 115.104 230.364 114.888C230.2 114.696 230.075 114.473 229.997 114.233C229.919 113.993 229.889 113.739 229.909 113.487C229.929 113.235 229.998 112.99 230.114 112.765C230.229 112.54 230.387 112.34 230.58 112.176L234.426 108.906C234.815 108.575 235.32 108.412 235.829 108.453C236.338 108.494 236.81 108.736 237.141 109.125C237.472 109.514 237.635 110.019 237.594 110.528C237.553 111.037 237.311 111.509 236.922 111.84L233.076 115.11C232.733 115.404 232.297 115.565 231.846 115.566Z" fill="#11414C"/>
<path d="M233.292 75.462C232.898 75.4637 232.512 75.3443 232.188 75.1199C231.863 74.8954 231.616 74.5768 231.478 74.207C231.341 73.8373 231.32 73.4342 231.419 73.0524C231.518 72.6705 231.732 72.3283 232.032 72.072L235.878 68.796C236.267 68.465 236.772 68.3021 237.281 68.3432C237.79 68.3843 238.262 68.6259 238.593 69.015C238.924 69.4041 239.087 69.9087 239.046 70.4178C239.005 70.927 238.763 71.399 238.374 71.73L234.528 75C234.183 75.2938 233.745 75.4573 233.292 75.462Z" fill="#11414C"/>
<path d="M238.8 74.112C238.519 74.1145 238.241 74.0551 237.986 73.9379C237.731 73.8207 237.505 73.6486 237.324 73.434L234 69.6C233.836 69.4073 233.712 69.1843 233.634 68.9436C233.556 68.7029 233.527 68.4492 233.547 68.1971C233.568 67.945 233.637 67.6994 233.753 67.4742C233.868 67.2491 234.026 67.0489 234.219 66.885C234.412 66.7211 234.635 66.5968 234.875 66.5191C235.116 66.4414 235.37 66.4119 235.622 66.4322C235.874 66.4525 236.12 66.5223 236.345 66.6376C236.57 66.7529 236.77 66.9113 236.934 67.104L240.204 70.95C240.444 71.2283 240.599 71.5697 240.651 71.9335C240.703 72.2974 240.649 72.6685 240.496 73.0027C240.343 73.3369 240.098 73.6203 239.788 73.819C239.479 74.0178 239.12 74.1236 238.752 74.124L238.8 74.112Z" fill="#11414C"/>
<path d="M192 110.556C191.718 110.56 191.439 110.502 191.182 110.384C190.926 110.267 190.699 110.094 190.518 109.878C190.354 109.686 190.23 109.463 190.152 109.222C190.074 108.981 190.045 108.728 190.066 108.476C190.086 108.224 190.156 107.978 190.272 107.754C190.388 107.529 190.547 107.329 190.74 107.166L194.586 103.896C194.777 103.719 195.001 103.582 195.246 103.495C195.491 103.407 195.751 103.369 196.011 103.385C196.27 103.4 196.524 103.468 196.757 103.584C196.99 103.701 197.197 103.863 197.365 104.061C197.533 104.26 197.66 104.49 197.736 104.739C197.813 104.987 197.839 105.249 197.812 105.507C197.785 105.766 197.706 106.017 197.579 106.244C197.453 106.471 197.282 106.671 197.076 106.83L193.23 110.1C192.888 110.395 192.452 110.557 192 110.556Z" fill="#11414C"/>
<path d="M193.662 112.482C193.38 112.485 193.102 112.425 192.845 112.308C192.589 112.191 192.362 112.019 192.18 111.804L188.904 107.958C188.573 107.569 188.41 107.064 188.451 106.555C188.492 106.046 188.734 105.574 189.123 105.243C189.512 104.912 190.017 104.749 190.526 104.79C191.035 104.831 191.507 105.073 191.838 105.462L195.108 109.308C195.273 109.501 195.397 109.724 195.476 109.965C195.554 110.205 195.584 110.459 195.564 110.712C195.544 110.964 195.474 111.21 195.359 111.436C195.243 111.661 195.085 111.862 194.892 112.026C194.546 112.315 194.112 112.476 193.662 112.482Z" fill="#11414C"/>
<path d="M230.478 108.157C240.812 99.3679 242.065 83.8653 233.276 73.531C224.487 63.1966 208.984 61.9439 198.65 70.7329C188.316 79.5219 187.063 95.0244 195.852 105.359C204.641 115.693 220.144 116.946 230.478 108.157Z" fill="white"/>
<path d="M214.8 115.11C214.038 115.11 213.276 115.11 212.508 115.026C207.449 114.618 202.624 112.718 198.644 109.568C194.664 106.418 191.708 102.158 190.15 97.3274C188.591 92.4969 188.5 87.3126 189.888 82.4303C191.276 77.5479 194.08 73.1868 197.947 69.8985C201.813 66.6102 206.568 64.5424 211.61 63.9566C216.652 63.3708 221.754 64.2933 226.272 66.6075C230.789 68.9217 234.519 72.5236 236.989 76.9577C239.46 81.3917 240.56 86.4588 240.15 91.518C239.633 97.9055 236.745 103.869 232.054 108.234C227.363 112.6 221.208 115.053 214.8 115.11ZM214.386 66C208.27 66.0581 202.42 68.5086 198.088 72.8268C193.756 77.1449 191.288 82.9875 191.21 89.1033C191.133 95.2192 193.453 101.122 197.675 105.548C201.896 109.975 207.682 112.572 213.795 112.785C219.908 112.997 225.861 110.808 230.379 106.686C234.898 102.564 237.623 96.8363 237.971 90.7298C238.318 84.6233 236.261 78.6234 232.24 74.0147C228.219 69.406 222.553 66.5549 216.456 66.072C215.752 66.024 215.062 66 214.386 66Z" fill="#11414C"/>
<path opacity="0.2" d="M223.404 92.784C223.164 92.784 222.924 92.784 222.69 92.784C220.57 92.6137 218.605 91.6084 217.227 89.9892C215.848 88.37 215.17 86.2696 215.34 84.15C215.51 82.0304 216.516 80.0652 218.135 78.6868C219.754 77.3084 221.854 76.6297 223.974 76.8C226.034 76.9598 227.952 77.9105 229.326 79.4529C230.701 80.9953 231.425 83.0098 231.348 85.0743C231.27 87.1388 230.397 89.0932 228.91 90.5281C227.424 91.963 225.44 92.7671 223.374 92.772L223.404 92.784ZM223.29 79.758C222.313 79.7653 221.359 80.0571 220.546 80.5977C219.732 81.1383 219.093 81.9043 218.708 82.802C218.322 83.6998 218.207 84.6903 218.375 85.6527C218.544 86.615 218.989 87.5075 219.656 88.2209C220.324 88.9343 221.184 89.4379 222.133 89.6699C223.082 89.902 224.079 89.8526 225 89.5277C225.921 89.2028 226.728 88.6165 227.322 87.8404C227.915 87.0644 228.27 86.1323 228.342 85.158C228.446 83.831 228.02 82.5168 227.156 81.5043C226.292 80.4917 225.061 79.8636 223.734 79.758C223.59 79.764 223.44 79.758 223.29 79.758Z" fill="#11414C"/>
<path opacity="0.4" d="M205.29 87.51C205.223 88.3936 204.895 89.2375 204.348 89.9346C203.801 90.6318 203.059 91.1509 202.217 91.4261C201.375 91.7014 200.47 91.7204 199.617 91.4809C198.763 91.2413 198.001 90.7538 197.425 90.0803C196.849 89.4068 196.486 88.5774 196.382 87.6974C196.278 86.8174 196.437 85.9263 196.84 85.137C197.243 84.3477 197.871 83.6957 198.644 83.2636C199.418 82.8316 200.303 82.6389 201.186 82.71C202.366 82.805 203.46 83.3633 204.229 84.2628C204.998 85.1624 205.379 86.3299 205.29 87.51Z" fill="#11414C"/>
<path opacity="0.2" d="M217.374 101.886C217.323 102.509 217.089 103.103 216.701 103.594C216.312 104.084 215.788 104.448 215.192 104.639C214.597 104.831 213.959 104.842 213.357 104.671C212.756 104.5 212.219 104.154 211.814 103.678C211.409 103.202 211.154 102.616 211.082 101.995C211.009 101.374 211.123 100.745 211.408 100.189C211.693 99.6322 212.136 99.1726 212.682 98.8681C213.229 98.5636 213.853 98.4278 214.476 98.478C215.312 98.5468 216.086 98.9442 216.629 99.5831C217.173 100.222 217.44 101.05 217.374 101.886Z" fill="#11414C"/>
<path opacity="0.2" d="M188.586 143.4H188.49L174.906 142.302C174.761 142.291 174.619 142.251 174.489 142.184C174.359 142.117 174.244 142.025 174.15 141.914C174.056 141.802 173.986 141.672 173.942 141.533C173.899 141.394 173.884 141.247 173.898 141.102L174.996 127.518C175.008 127.373 175.049 127.231 175.116 127.102C175.183 126.973 175.275 126.858 175.386 126.764C175.498 126.67 175.627 126.6 175.766 126.556C175.905 126.513 176.051 126.497 176.196 126.51L189.774 127.608C189.919 127.62 190.061 127.661 190.19 127.728C190.319 127.795 190.434 127.887 190.528 127.998C190.622 128.11 190.692 128.239 190.736 128.378C190.78 128.517 190.795 128.663 190.782 128.808L189.684 142.386C189.673 142.53 189.633 142.671 189.567 142.8C189.501 142.928 189.41 143.043 189.3 143.136C189.1 143.305 188.848 143.398 188.586 143.4ZM176.178 140.19L187.578 141.114L188.496 129.714L177.096 128.79L176.178 140.19Z" fill="#263238"/>
<path d="M240.45 138H240.354L195.99 134.4C195.7 134.376 195.431 134.238 195.242 134.016C195.054 133.793 194.961 133.505 194.985 133.215C195.009 132.925 195.147 132.656 195.369 132.467C195.592 132.279 195.88 132.186 196.17 132.21L240.528 135.81C240.672 135.815 240.814 135.849 240.945 135.908C241.076 135.968 241.195 136.054 241.293 136.159C241.391 136.265 241.468 136.389 241.518 136.524C241.569 136.659 241.592 136.803 241.587 136.947C241.582 137.091 241.548 137.233 241.489 137.364C241.429 137.495 241.343 137.614 241.238 137.712C241.132 137.81 241.008 137.887 240.873 137.937C240.738 137.988 240.594 138.011 240.45 138.006V138Z" fill="#E0E0E0"/>
<path d="M209.862 141.06H209.766L195.546 139.914C195.395 139.911 195.246 139.878 195.109 139.816C194.971 139.753 194.848 139.663 194.747 139.551C194.645 139.439 194.568 139.308 194.519 139.165C194.471 139.022 194.452 138.87 194.464 138.72C194.477 138.569 194.52 138.423 194.591 138.29C194.662 138.157 194.76 138.04 194.878 137.946C194.996 137.852 195.133 137.783 195.278 137.744C195.424 137.705 195.577 137.696 195.726 137.718L209.946 138.87C210.237 138.881 210.512 139.008 210.71 139.221C210.908 139.435 211.013 139.719 211.002 140.01C210.991 140.301 210.864 140.576 210.651 140.774C210.437 140.972 210.153 141.077 209.862 141.066V141.06Z" fill="#E0E0E0"/>
<path d="M230.796 142.752H230.7L218.4 141.756C218.11 141.732 217.841 141.594 217.652 141.372C217.464 141.149 217.371 140.861 217.395 140.571C217.419 140.281 217.557 140.012 217.779 139.823C218.002 139.635 218.29 139.542 218.58 139.566L230.85 140.556C231.141 140.566 231.416 140.692 231.615 140.905C231.814 141.118 231.919 141.402 231.909 141.693C231.899 141.984 231.773 142.259 231.56 142.458C231.347 142.657 231.063 142.762 230.772 142.752H230.796Z" fill="#E0E0E0"/>
<path opacity="0.2" d="M186.636 167.544H186.54L172.956 166.446C172.811 166.435 172.669 166.395 172.539 166.328C172.409 166.261 172.294 166.169 172.2 166.058C172.106 165.946 172.036 165.816 171.992 165.677C171.949 165.538 171.934 165.391 171.948 165.246L173.046 151.668C173.058 151.523 173.099 151.381 173.166 151.252C173.233 151.123 173.325 151.008 173.436 150.914C173.548 150.82 173.677 150.75 173.816 150.706C173.955 150.663 174.101 150.647 174.246 150.66L187.8 151.8C187.945 151.811 188.087 151.851 188.217 151.918C188.347 151.985 188.462 152.077 188.556 152.188C188.65 152.3 188.72 152.43 188.764 152.569C188.807 152.708 188.822 152.855 188.808 153L187.71 166.584C187.685 166.875 187.547 167.144 187.326 167.334C187.127 167.481 186.883 167.555 186.636 167.544ZM174.228 164.34L185.628 165.264L186.546 153.864L175.146 152.94L174.228 164.34Z" fill="#263238"/>
<path d="M230.538 161.502H230.442L194.04 158.556C193.75 158.532 193.481 158.394 193.292 158.172C193.104 157.949 193.011 157.661 193.035 157.371C193.059 157.081 193.197 156.812 193.419 156.623C193.642 156.435 193.93 156.342 194.22 156.366L230.622 159.306C230.913 159.317 231.188 159.444 231.386 159.657C231.584 159.871 231.689 160.155 231.678 160.446C231.667 160.737 231.54 161.012 231.327 161.21C231.113 161.408 230.829 161.513 230.538 161.502Z" fill="#E0E0E0"/>
<path d="M215.952 165.84H215.856L193.596 164.04C193.445 164.037 193.296 164.004 193.159 163.942C193.021 163.879 192.898 163.789 192.797 163.677C192.695 163.565 192.618 163.434 192.569 163.291C192.521 163.148 192.502 162.996 192.514 162.846C192.527 162.695 192.57 162.549 192.641 162.416C192.712 162.283 192.81 162.166 192.928 162.072C193.046 161.978 193.183 161.909 193.328 161.87C193.474 161.831 193.627 161.822 193.776 161.844L216.03 163.644C216.321 163.654 216.596 163.78 216.795 163.993C216.994 164.206 217.099 164.49 217.089 164.781C217.079 165.072 216.953 165.347 216.74 165.546C216.527 165.745 216.243 165.85 215.952 165.84Z" fill="#E0E0E0"/>
<path opacity="0.3" d="M107.673 133.866C112.336 120.131 102.941 104.525 86.6902 99.009C70.4393 93.4926 53.4858 100.155 48.8237 113.889C44.1615 127.623 53.556 143.229 69.8069 148.746C86.0578 154.262 103.011 147.6 107.673 133.866Z" fill="#11414C"/>
<path opacity="0.3" d="M95.7562 105.066L89.2364 98.317L52.0039 134.285L58.5237 141.034L95.7562 105.066Z" fill="white"/>
<path opacity="0.3" d="M104.257 111.994L99.167 106.725L61.0714 143.526L66.1614 148.795L104.257 111.994Z" fill="white"/>
<path d="M81.39 152.808C77.2192 152.794 73.0787 152.099 69.132 150.75C60.804 147.918 53.898 142.5 49.68 135.492C45.39 128.37 44.382 120.492 46.842 113.226C49.302 105.96 54.912 100.326 62.652 97.284C70.266 94.284 79.044 94.2 87.372 97.032C95.7 99.864 102.612 105.276 106.83 112.284C111.114 119.406 112.122 127.314 109.668 134.556C107.214 141.798 101.592 147.456 93.858 150.492C89.8839 152.039 85.6544 152.824 81.39 152.808ZM75.114 99.174C71.3821 99.1591 67.6803 99.8429 64.2 101.19C57.6 103.8 52.872 108.528 50.82 114.6C48.768 120.672 49.62 127.308 53.274 133.35C56.982 139.512 63.096 144.288 70.482 146.796C77.868 149.304 85.632 149.238 92.322 146.61C98.886 144.03 103.638 139.278 105.69 133.23C107.742 127.182 106.89 120.522 103.23 114.474C99.522 108.312 93.414 103.542 86.022 101.034C82.512 99.8222 78.8272 99.1939 75.114 99.174Z" fill="#263238"/>
<path d="M109.926 131.046C114.018 131.518 118.084 132.201 122.106 133.092C126.102 133.944 130.062 134.928 133.98 136.008C137.898 137.088 141.78 138.27 145.656 139.53C147.57 140.208 149.568 140.658 151.344 141.732C152.273 142.281 153.13 142.944 153.894 143.706C154.313 144.12 154.7 144.565 155.052 145.038C155.452 145.564 155.798 146.128 156.084 146.724C156.639 147.87 156.721 149.188 156.312 150.393C155.904 151.599 155.037 152.596 153.9 153.168C153.307 153.465 152.686 153.702 152.046 153.876C151.482 154.035 150.906 154.151 150.324 154.224C149.252 154.362 148.168 154.362 147.096 154.224C145.032 153.996 143.178 153.138 141.246 152.514C137.412 151.164 133.608 149.736 129.846 148.194C126.084 146.652 122.34 145.038 118.644 143.28C114.913 141.536 111.275 139.601 107.742 137.484C107.067 137.07 106.552 136.439 106.283 135.694C106.014 134.949 106.006 134.134 106.26 133.384C106.515 132.634 107.017 131.993 107.684 131.566C108.352 131.139 109.144 130.951 109.932 131.034L109.926 131.046Z" fill="#263238"/>
<path opacity="0.1" d="M146.4 88.542C146.832 90.996 145.83 92.826 144.162 92.628C142.494 92.43 140.796 90.288 140.37 87.828C139.944 85.368 140.97 83.544 142.608 83.742C144.246 83.94 145.956 86.088 146.4 88.542Z" fill="#11414C"/>
<path d="M155.4 247.2C160.362 246.816 162.882 243.636 162.492 240.06C162.276 238.086 168.594 237.444 168.594 237.444C167.664 243.678 169.026 244.68 169.26 246.282C169.494 247.884 169.362 249.624 168.06 249.654C166.488 249.696 165.78 249.396 163.824 249.474C161.538 249.558 159.996 249.648 155.94 249.654C154.326 249.666 153.21 247.38 155.4 247.2Z" fill="#263238"/>
<path d="M199.932 243.6C202.866 238.578 200.454 235.278 198.336 232.548C197.082 230.934 203.1 228.888 203.1 228.888C204.6 232.662 206.1 232.614 207.6 233.448C209.1 234.282 209.958 235.668 209.136 236.682C208.146 237.882 207.27 237.792 206.106 239.34C204.744 241.14 203.292 243.486 201.384 245.43C200.25 246.6 198.828 245.472 199.932 243.6Z" fill="#263238"/>
<path d="M142.284 142.038C142.284 142.038 143.118 167.238 149.274 188.238C151.956 206.394 162.426 240.702 162.426 240.702C164.598 241.22 166.864 241.2 169.026 240.642C169.026 240.642 172.38 214.158 165.336 185.442C169.914 154.812 166.8 139.176 166.8 139.176L142.284 142.038Z" fill="#11414C"/>
<path d="M151.962 140.88C151.962 140.88 162.48 175.542 170.562 191.574C179.058 208.41 197.364 232.374 198.21 233.436C200.538 232.326 202.572 231.066 203.79 229.368C203.79 229.368 196.794 202.788 186.456 184.68C178.326 144.78 172.908 138.384 172.908 138.384L151.962 140.88Z" fill="#11414C"/>
<path d="M158.1 90.738C157.656 94.296 157.5 100.026 159.21 102.864C159.21 102.864 154.674 103.638 148.776 109.62C145.176 105.474 148.08 104.22 148.08 104.22C150.714 103.26 150.75 99.918 150.438 97.344L158.1 90.738Z" fill="#FFC3BD"/>
<path d="M139.05 114.192C138.372 110.046 140.82 106.668 145.962 104.892C150.702 103.26 157.506 102.066 162.204 102.738C166.902 103.41 168.624 105.738 168.312 109.278C166.968 124.638 172.842 133.686 172.92 138.384C161.868 141.204 145.002 143.574 142.284 142.038C140.298 139.944 140.682 126.882 141.3 124.89C136.398 122.316 139.428 116.502 139.05 114.192Z" fill="#11414C"/>
<path d="M143.718 88.44C143.79 88.902 143.604 89.322 143.298 89.37C142.992 89.418 142.698 89.082 142.608 88.614C142.518 88.146 142.722 87.726 143.028 87.678C143.334 87.63 143.64 87.972 143.718 88.44Z" fill="#263238"/>
<path d="M143.166 87.684L141.966 87.54C141.966 87.54 142.71 88.326 143.166 87.684Z" fill="#263238"/>
<path d="M143.7 89.4C143.449 90.5314 143.045 91.6235 142.5 92.646C142.764 92.7789 143.054 92.8521 143.35 92.8604C143.645 92.8687 143.939 92.8119 144.21 92.694L143.7 89.4Z" fill="#ED847E"/>
<path d="M142.23 85.962C142.183 85.9336 142.146 85.8921 142.123 85.8426C142.1 85.7931 142.092 85.7379 142.101 85.6839C142.109 85.63 142.133 85.5797 142.17 85.5395C142.207 85.4993 142.255 85.4709 142.308 85.458C142.733 85.3377 143.18 85.3213 143.612 85.4101C144.044 85.4988 144.449 85.6902 144.792 85.968C144.844 86.0197 144.873 86.0899 144.873 86.163C144.873 86.2361 144.844 86.3062 144.792 86.358C144.767 86.3843 144.737 86.4052 144.703 86.4196C144.67 86.4339 144.633 86.4412 144.597 86.4412C144.561 86.4412 144.525 86.4339 144.491 86.4196C144.457 86.4052 144.427 86.3843 144.402 86.358C144.127 86.1436 143.806 85.9972 143.464 85.9304C143.122 85.8637 142.769 85.8786 142.434 85.974C142.367 85.9969 142.294 85.9926 142.23 85.962Z" fill="#263238"/>
<path d="M158.904 85.236C159.468 91.026 159.828 93.468 157.452 96.864C153.882 101.97 146.778 101.364 144.528 95.85C142.506 90.888 141.924 82.254 147.066 79.098C152.208 75.942 158.34 79.446 158.904 85.236Z" fill="#FFC3BD"/>
<path d="M147 88.866C144.894 89.172 144 85.956 144.72 84.54C142.236 84.462 141.804 82.218 142.608 80.568C143.412 78.918 145.422 75.258 152.658 76.368C159.894 77.478 162.258 83.772 161.628 86.418C160.998 89.064 162.294 96.504 155.532 97.728C148.77 98.952 144.654 92.25 147 88.866Z" fill="#263238"/>
<path d="M171.33 103.2C167.634 99.6 153.648 101.4 143.472 104.64C133.296 107.88 135.834 118.092 136.716 125.208C137.598 132.324 142.92 182.544 149.028 200.808C163.86 200.994 186.51 196.008 192.798 192.762C190.332 186.222 177.102 135.348 174.93 121.962C173.874 115.434 175.23 106.98 171.33 103.2Z" fill="#11414C"/>
<path opacity="0.6" d="M171.33 103.2C167.634 99.6 153.648 101.4 143.472 104.64C133.296 107.88 135.834 118.092 136.716 125.208C137.598 132.324 142.92 182.544 149.028 200.808C163.86 200.994 186.51 196.008 192.798 192.762C190.332 186.222 177.102 135.348 174.93 121.962C173.874 115.434 175.23 106.98 171.33 103.2Z" fill="white"/>
<path opacity="0.5" d="M137.604 132.762C139.644 130.122 141.402 127.566 141.954 125.988C143.922 120.342 141.264 135.756 138.924 143.772C138.402 139.584 137.958 135.828 137.604 132.762Z" fill="#11414C"/>
<path d="M120.714 136.11L122.85 138.27C123.996 141.426 119.508 143.166 119.508 143.166L117.492 144.87C117.191 145.153 116.793 145.311 116.379 145.311C115.965 145.311 115.567 145.153 115.266 144.87L113.766 143.37C113.432 143.011 113.247 142.54 113.247 142.05C113.247 141.56 113.432 141.089 113.766 140.73L115.326 139.002C115.764 138.507 116.302 138.11 116.904 137.838L120.714 136.11Z" fill="#11414C"/>
<path d="M121.578 135.882C119.178 134.832 116.982 136.686 114.978 137.64C114.636 137.802 114.522 138.786 115.122 138.894C115.509 138.987 115.91 139.001 116.302 138.937C116.695 138.874 117.071 138.732 117.408 138.522C117.912 139.17 120.006 140.268 122.094 138.372C122.256 137.506 122.071 136.612 121.578 135.882Z" fill="#11414C"/>
<path d="M149.964 114.036L149.67 115.428L149.352 116.742C149.136 117.612 148.908 118.476 148.68 119.334C148.2 121.056 147.678 122.772 147.096 124.476C146.514 126.18 145.896 127.878 145.182 129.576C144.84 130.428 144.456 131.28 144.072 132.126L143.472 133.398L143.106 134.136C142.944 134.466 142.764 134.778 142.578 135.09C141.059 137.597 138.799 139.569 136.11 140.736L135.858 140.844L135.672 140.916L135.312 141.048L134.586 141.306L133.17 141.75L131.79 142.134L130.428 142.464C128.628 142.872 126.828 143.184 125.064 143.43C124.176 143.55 123.294 143.652 122.406 143.748C121.518 143.844 120.654 143.916 119.694 143.97L118.2 135.216L120.48 134.496C121.254 134.25 122.022 133.986 122.784 133.722C124.308 133.206 125.784 132.666 127.242 132.09L128.298 131.652L129.318 131.208L130.278 130.74L130.716 130.5L130.944 130.386L131.046 130.332L131.082 130.302C131.467 129.99 131.752 129.573 131.904 129.102C131.904 129.042 131.94 128.988 131.952 128.928V128.886L131.994 128.766L132.084 128.502L132.456 127.434C132.69 126.702 132.936 125.988 133.158 125.238C133.608 123.756 134.022 122.238 134.418 120.69C134.814 119.142 135.186 117.6 135.534 116.034C135.714 115.254 135.888 114.474 136.05 113.694L136.512 111.432L149.964 114.036Z" fill="#11414C"/>
<g opacity="0.6">
<path d="M149.964 114.036L149.67 115.428L149.352 116.742C149.136 117.612 148.908 118.476 148.68 119.334C148.2 121.056 147.678 122.772 147.096 124.476C146.514 126.18 145.896 127.878 145.182 129.576C144.84 130.428 144.456 131.28 144.072 132.126L143.472 133.398L143.106 134.136C142.944 134.466 142.764 134.778 142.578 135.09C141.059 137.597 138.799 139.569 136.11 140.736L135.858 140.844L135.672 140.916L135.312 141.048L134.586 141.306L133.17 141.75L131.79 142.134L130.428 142.464C128.628 142.872 126.828 143.184 125.064 143.43C124.176 143.55 123.294 143.652 122.406 143.748C121.518 143.844 120.654 143.916 119.694 143.97L118.2 135.216L120.48 134.496C121.254 134.25 122.022 133.986 122.784 133.722C124.308 133.206 125.784 132.666 127.242 132.09L128.298 131.652L129.318 131.208L130.278 130.74L130.716 130.5L130.944 130.386L131.046 130.332L131.082 130.302C131.467 129.99 131.752 129.573 131.904 129.102C131.904 129.042 131.94 128.988 131.952 128.928V128.886L131.994 128.766L132.084 128.502L132.456 127.434C132.69 126.702 132.936 125.988 133.158 125.238C133.608 123.756 134.022 122.238 134.418 120.69C134.814 119.142 135.186 117.6 135.534 116.034C135.714 115.254 135.888 114.474 136.05 113.694L136.512 111.432L149.964 114.036Z" fill="white"/>
</g>
<path opacity="0.5" d="M159.702 138.438C159.702 138.438 169.578 137.052 172.482 135.15C168.966 138.228 164.208 138.882 159.702 138.438Z" fill="#11414C"/>
<path opacity="0.5" d="M160.8 139.548C160.8 139.548 168.054 139.602 170.34 138.522C167.49 140.4 163.992 140.364 160.8 139.548Z" fill="#11414C"/>
<path d="M143.166 90.246C142.464 92.13 141.69 94.194 142.212 96.48C142.734 98.766 145.056 99.966 148.644 99.936C148.26 98.442 146.634 97.536 145.344 95.238C144.054 92.94 145.344 87.732 145.344 87.732L144.894 87.342C144.362 88.6511 143.939 90.0017 143.628 91.38C143.028 90.48 143.166 90.246 143.166 90.246Z" fill="#11414C"/>
<path opacity="0.3" d="M143.166 90.246C142.464 92.13 141.69 94.194 142.212 96.48C142.734 98.766 145.056 99.966 148.644 99.936C148.26 98.442 146.634 97.536 145.344 95.238C144.054 92.94 145.344 87.732 145.344 87.732L144.894 87.342C144.362 88.6511 143.939 90.0017 143.628 91.38C143.028 90.48 143.166 90.246 143.166 90.246Z" fill="white"/>
<path d="M148.596 90.402C148.523 90.9548 148.329 91.4847 148.027 91.9536C147.725 92.4225 147.323 92.8187 146.85 93.114C145.65 93.756 144.684 92.298 144.69 90.63C144.69 89.124 145.29 86.982 146.658 87.03C148.026 87.078 148.872 88.878 148.596 90.402Z" fill="#FFC3BD"/>
<path d="M142.302 81.354C142.716 84.066 145.758 91.776 150.39 94.842C154.59 97.638 158.964 97.974 160.38 94.944C160.38 94.944 165.564 96.702 166.8 86.748C167.862 78.24 161.694 72.198 154.998 71.148C148.908 70.2 136.938 72.99 142.302 81.354Z" fill="#11414C"/>
<path opacity="0.2" d="M142.836 81.6C142.836 81.6 147.534 90.366 159.864 94.536C152.664 93.9 146.868 88.368 142.836 81.6Z" fill="black"/>
</svg>
