<svg width="639" height="448" viewBox="0 0 639 448" fill="none" xmlns="http://www.w3.org/2000/svg">
<g filter="url(#filter0_di_150_5)">
<path d="M135.128 81.1016C135.128 108.716 112.742 387.602 85.1282 387.602C57.514 387.602 35.1283 108.716 35.1283 81.1016C35.1283 53.4874 57.5141 31.1016 85.1283 31.1016C112.743 31.1016 135.128 53.4874 135.128 81.1016Z" fill="#11414C"/>
<path d="M124.682 49.5002C141.103 71.2595 289.073 304.499 267.031 321.133C244.989 337.767 61.2815 131.497 44.8607 109.738C28.4399 87.9786 32.9968 56.8546 55.0388 40.2204C77.0808 23.5862 108.261 27.741 124.682 49.5002Z" fill="#11414C"/>
</g>
<path fill-rule="evenodd" clip-rule="evenodd" d="M0 4.29876C58.75 -14.306 55.9794 33.5029 55.9794 33.5029C55.9794 33.5029 18.5485 63.2287 0 4.29876Z" fill="#3BB777"/>
<path fill-rule="evenodd" clip-rule="evenodd" d="M0 4.29876L55.9794 33.5029C55.9794 33.5029 18.5485 63.2287 0 4.29876Z" fill="#229857"/>
<path fill-rule="evenodd" clip-rule="evenodd" d="M123.174 70.2516C116.939 52.4161 100.974 47.3722 100.279 47.1618C99.2775 46.8556 98.1977 46.9615 97.2773 47.4564C96.357 47.9512 95.6714 48.7944 95.3715 49.8004C95.0715 50.8064 95.1818 51.8928 95.678 52.8207C96.1742 53.7486 97.0157 54.4419 98.0174 54.7481C98.6289 54.9438 111.675 59.2 116.166 74.1816C116.642 76.3557 119.002 77.4732 121.087 76.8435C122.087 76.5424 122.925 75.8538 123.417 74.9292C123.909 74.0045 124.015 72.9194 123.711 71.9127C123.542 71.3458 123.363 70.7912 123.174 70.2516ZM82.9722 51.5534C85.4304 53.0109 88.5924 52.1951 90.0297 49.7268C90.3724 49.1411 90.5966 48.4925 90.6894 47.8184C90.7823 47.1442 90.7419 46.4577 90.5706 45.798C90.3994 45.1384 90.1006 44.5186 89.6914 43.9741C89.2822 43.4297 88.7706 42.9712 88.1859 42.625C87.0052 41.9245 85.5982 41.7231 84.2745 42.0651C83.619 42.2345 83.0038 42.5322 82.4638 42.9412C81.9238 43.3502 81.4698 43.8626 81.1275 44.449C80.7852 45.0354 80.5614 45.6844 80.4689 46.3589C80.3764 47.0335 80.417 47.7203 80.5884 48.3803C80.9345 49.7131 81.7923 50.8554 82.9731 51.556" fill="#FEFEFE" fill-opacity="0.25"/>
<g filter="url(#filter1_di_150_5)">
<path d="M434.52 295.171C429.345 268.046 355.091 -1.70321 327.966 3.4719C300.841 8.647 331.117 286.787 336.292 313.912C341.467 341.037 367.652 358.831 394.777 353.656C421.901 348.48 439.695 322.296 434.52 295.171Z" fill="#11414C"/>
<path d="M216.725 148.723C207.907 138.736 126.907 30.7589 136.843 21.9861C146.779 13.2133 243.889 106.967 252.707 116.954C261.525 126.942 260.619 142.15 250.682 150.922C240.746 159.695 225.543 158.711 216.725 148.723Z" fill="#11414C"/>
<path d="M300.725 8.18517C291.907 18.1725 210.907 126.15 220.843 134.922C230.779 143.695 327.889 49.9416 336.707 39.9543C345.525 29.967 344.619 14.7589 334.683 5.98611C324.746 -2.7867 309.543 -1.80215 300.725 8.18517Z" fill="#11414C"/>
</g>
<path fill-rule="evenodd" clip-rule="evenodd" d="M349.434 311.898C354.329 330.147 369.876 336.361 370.553 336.623C371.53 337.002 372.614 336.977 373.569 336.551C374.523 336.126 375.27 335.336 375.643 334.355C376.017 333.374 375.988 332.283 375.562 331.321C375.136 330.358 374.348 329.605 373.372 329.225C372.776 328.984 360.082 323.772 356.714 308.499C356.401 306.295 354.131 305.006 352.004 305.479C350.985 305.705 350.098 306.33 349.539 307.215C348.98 308.101 348.794 309.175 349.022 310.202C349.149 310.78 349.286 311.346 349.434 311.898ZM388.138 333.527C385.795 331.891 382.581 332.47 380.965 334.825C380.58 335.384 380.308 336.014 380.165 336.679C380.023 337.345 380.012 338.032 380.134 338.703C380.256 339.373 380.508 340.013 380.876 340.587C381.243 341.16 381.719 341.655 382.277 342.044C383.402 342.83 384.791 343.135 386.136 342.892C386.802 342.772 387.438 342.521 388.007 342.153C388.575 341.785 389.066 341.308 389.451 340.748C389.836 340.189 390.107 339.558 390.249 338.893C390.392 338.227 390.402 337.539 390.28 336.868C390.034 335.513 389.263 334.31 388.138 333.524" fill="#FEFEFE" fill-opacity="0.25"/>
<g filter="url(#filter2_di_150_5)">
<path d="M588.053 300.691C560.438 381.718 471.307 424.657 388.972 396.597C306.637 368.537 474.416 387.72 502.03 306.693C529.645 225.665 406.638 75.1097 488.973 103.17C571.308 131.23 615.667 219.663 588.053 300.691Z" fill="#11414C"/>
</g>
<path fill-rule="evenodd" clip-rule="evenodd" d="M531.174 153.252C524.939 135.416 508.974 130.372 508.279 130.162C507.278 129.856 506.198 129.962 505.277 130.456C504.357 130.951 503.671 131.794 503.371 132.8C503.072 133.806 503.182 134.893 503.678 135.821C504.174 136.749 505.016 137.442 506.017 137.748C506.629 137.944 519.675 142.2 524.166 157.182C524.642 159.356 527.002 160.473 529.087 159.844C530.087 159.542 530.925 158.854 531.417 157.929C531.909 157.004 532.015 155.919 531.711 154.913C531.542 154.346 531.363 153.791 531.174 153.252ZM490.972 134.553C493.43 136.011 496.592 135.195 498.03 132.727C498.372 132.141 498.597 131.493 498.689 130.818C498.782 130.144 498.742 129.458 498.571 128.798C498.399 128.138 498.101 127.519 497.691 126.974C497.282 126.43 496.771 125.971 496.186 125.625C495.005 124.924 493.598 124.723 492.274 125.065C491.619 125.234 491.004 125.532 490.464 125.941C489.924 126.35 489.47 126.863 489.127 127.449C488.785 128.035 488.561 128.684 488.469 129.359C488.376 130.033 488.417 130.72 488.588 131.38C488.935 132.713 489.792 133.855 490.973 134.556" fill="#FEFEFE" fill-opacity="0.25"/>
<defs>
<filter id="filter0_di_150_5" x="30" y="30.0242" width="244.265" height="372.577" filterUnits="userSpaceOnUse" color-interpolation-filters="sRGB">
<feFlood flood-opacity="0" result="BackgroundImageFix"/>
<feColorMatrix in="SourceAlpha" type="matrix" values="0 0 0 0 0 0 0 0 0 0 0 0 0 0 0 0 0 0 127 0" result="hardAlpha"/>
<feOffset dy="10"/>
<feGaussianBlur stdDeviation="2.5"/>
<feComposite in2="hardAlpha" operator="out"/>
<feColorMatrix type="matrix" values="0 0 0 0 0 0 0 0 0 0 0 0 0 0 0 0 0 0 0.25 0"/>
<feBlend mode="normal" in2="BackgroundImageFix" result="effect1_dropShadow_150_5"/>
<feBlend mode="normal" in="SourceGraphic" in2="effect1_dropShadow_150_5" result="shape"/>
<feColorMatrix in="SourceAlpha" type="matrix" values="0 0 0 0 0 0 0 0 0 0 0 0 0 0 0 0 0 0 127 0" result="hardAlpha"/>
<feOffset dy="10"/>
<feGaussianBlur stdDeviation="2.5"/>
<feComposite in2="hardAlpha" operator="arithmetic" k2="-1" k3="1"/>
<feColorMatrix type="matrix" values="0 0 0 0 0 0 0 0 0 0 0 0 0 0 0 0 0 0 0.25 0"/>
<feBlend mode="normal" in2="shape" result="effect2_innerShadow_150_5"/>
</filter>
<filter id="filter1_di_150_5" x="131" y="0" width="309.415" height="369.551" filterUnits="userSpaceOnUse" color-interpolation-filters="sRGB">
<feFlood flood-opacity="0" result="BackgroundImageFix"/>
<feColorMatrix in="SourceAlpha" type="matrix" values="0 0 0 0 0 0 0 0 0 0 0 0 0 0 0 0 0 0 127 0" result="hardAlpha"/>
<feOffset dy="10"/>
<feGaussianBlur stdDeviation="2.5"/>
<feComposite in2="hardAlpha" operator="out"/>
<feColorMatrix type="matrix" values="0 0 0 0 0 0 0 0 0 0 0 0 0 0 0 0 0 0 0.25 0"/>
<feBlend mode="normal" in2="BackgroundImageFix" result="effect1_dropShadow_150_5"/>
<feBlend mode="normal" in="SourceGraphic" in2="effect1_dropShadow_150_5" result="shape"/>
<feColorMatrix in="SourceAlpha" type="matrix" values="0 0 0 0 0 0 0 0 0 0 0 0 0 0 0 0 0 0 127 0" result="hardAlpha"/>
<feOffset dy="10"/>
<feGaussianBlur stdDeviation="2.5"/>
<feComposite in2="hardAlpha" operator="arithmetic" k2="-1" k3="1"/>
<feColorMatrix type="matrix" values="0 0 0 0 0 0 0 0 0 0 0 0 0 0 0 0 0 0 0.25 0"/>
<feBlend mode="normal" in2="shape" result="effect2_innerShadow_150_5"/>
</filter>
<filter id="filter2_di_150_5" x="361.443" y="99.7322" width="239.814" height="320.456" filterUnits="userSpaceOnUse" color-interpolation-filters="sRGB">
<feFlood flood-opacity="0" result="BackgroundImageFix"/>
<feColorMatrix in="SourceAlpha" type="matrix" values="0 0 0 0 0 0 0 0 0 0 0 0 0 0 0 0 0 0 127 0" result="hardAlpha"/>
<feOffset dy="10"/>
<feGaussianBlur stdDeviation="2.5"/>
<feComposite in2="hardAlpha" operator="out"/>
<feColorMatrix type="matrix" values="0 0 0 0 0 0 0 0 0 0 0 0 0 0 0 0 0 0 0.25 0"/>
<feBlend mode="normal" in2="BackgroundImageFix" result="effect1_dropShadow_150_5"/>
<feBlend mode="normal" in="SourceGraphic" in2="effect1_dropShadow_150_5" result="shape"/>
<feColorMatrix in="SourceAlpha" type="matrix" values="0 0 0 0 0 0 0 0 0 0 0 0 0 0 0 0 0 0 127 0" result="hardAlpha"/>
<feOffset dy="10"/>
<feGaussianBlur stdDeviation="2.5"/>
<feComposite in2="hardAlpha" operator="arithmetic" k2="-1" k3="1"/>
<feColorMatrix type="matrix" values="0 0 0 0 0 0 0 0 0 0 0 0 0 0 0 0 0 0 0.25 0"/>
<feBlend mode="normal" in2="shape" result="effect2_innerShadow_150_5"/>
</filter>
</defs>
</svg>
