<svg width="607" height="416" viewBox="0 0 607 416" fill="none" xmlns="http://www.w3.org/2000/svg">
<g filter="url(#filter0_di_225_4111)">
<path d="M129.682 49.5002C146.103 71.2595 294.073 304.499 272.031 321.133C258.937 331.014 188.792 262.234 130.557 200.202C121.465 286.645 106.743 387.602 90.1282 387.602C63.4553 387.602 41.6606 127.405 40.2057 84.7805C38.6854 68.1782 45.6222 51.1 60.0388 40.2204C82.0808 23.5862 113.261 27.741 129.682 49.5002Z" fill="url(#paint0_linear_225_4111)" shape-rendering="crispEdges"/>
<path d="M305.725 8.18517C299.879 14.8067 262.304 64.5005 240.538 99.7995C209.856 70.1989 149.56 15.1729 141.843 21.9861C131.907 30.7589 212.907 138.736 221.725 148.723C230.543 158.711 245.746 159.695 255.682 150.922C265.619 142.15 266.525 126.942 257.707 116.954L257.692 116.936C278.262 100.532 304.178 76.6439 321.882 59.6643C320.714 143.71 337.553 294.316 341.292 313.912C346.467 341.037 372.652 358.831 399.777 353.656C426.901 348.48 444.695 322.296 439.52 295.171C435.026 271.614 378.43 65.0634 345.852 14.5223C344.5 11.3476 342.438 8.41933 339.682 5.98611C329.746 -2.7867 314.543 -1.80214 305.725 8.18517Z" fill="url(#paint1_linear_225_4111)" shape-rendering="crispEdges"/>
<path d="M593.053 300.691C565.438 381.718 476.307 424.657 393.972 396.597C357.302 384.1 370.244 380.974 398.32 374.192C433.283 365.747 491.715 351.633 507.03 306.693C520.168 268.142 499.213 213.855 482.498 170.552C464.08 122.837 450.81 88.4596 493.973 103.17C576.308 131.23 620.667 219.663 593.053 300.691Z" fill="url(#paint2_linear_225_4111)" shape-rendering="crispEdges"/>
<path fill-rule="evenodd" clip-rule="evenodd" d="M60.9794 33.5029C60.9794 33.5029 23.5485 63.2287 5 4.29876L60.9794 33.5029Z" fill="url(#paint3_linear_225_4111)" shape-rendering="crispEdges"/>
<path d="M5 4.29876C63.75 -14.306 60.9794 33.5029 60.9794 33.5029L5 4.29876Z" fill="#3BB777" shape-rendering="crispEdges"/>
<path fill-rule="evenodd" clip-rule="evenodd" d="M127.174 70.2516C120.939 52.416 104.974 47.3721 104.279 47.1617C103.278 46.8555 102.198 46.9615 101.277 47.4563C100.357 47.9512 99.6714 48.7943 99.3715 49.8003C99.0715 50.8063 99.1818 51.8928 99.678 52.8206C100.174 53.7485 101.016 54.4418 102.017 54.748C102.629 54.9438 115.675 59.1999 120.166 74.1816C120.642 76.3556 123.002 77.4732 125.087 76.8435C126.087 76.5424 126.925 75.8538 127.417 74.9291C127.909 74.0044 128.015 72.9194 127.711 71.9126C127.542 71.3457 127.363 70.7912 127.174 70.2516ZM86.9722 51.5533C89.4304 53.0108 92.5924 52.195 94.0297 49.7268C94.3724 49.141 94.5966 48.4925 94.6894 47.8183C94.7823 47.1442 94.7419 46.4576 94.5706 45.798C94.3994 45.1383 94.1006 44.5185 93.6914 43.9741C93.2822 43.4296 92.7706 42.9712 92.1859 42.625C91.0052 41.9244 89.5982 41.723 88.2745 42.0651C87.619 42.2344 87.0038 42.5321 86.4638 42.9412C85.9238 43.3502 85.4698 43.8625 85.1275 44.4489C84.7852 45.0354 84.5614 45.6844 84.4689 46.3589C84.3764 47.0334 84.417 47.7202 84.5884 48.3802C84.9345 49.713 85.7923 50.8554 86.9731 51.5559" fill="#FEFEFE" fill-opacity="0.5" shape-rendering="crispEdges"/>
<path fill-rule="evenodd" clip-rule="evenodd" d="M353.434 311.898C358.329 330.147 373.876 336.361 374.553 336.622C375.53 337.002 376.614 336.977 377.569 336.551C378.523 336.126 379.27 335.336 379.643 334.355C380.017 333.374 379.988 332.283 379.562 331.32C379.136 330.358 378.348 329.605 377.372 329.225C376.776 328.984 364.082 323.772 360.714 308.499C360.401 306.295 358.131 305.006 356.004 305.479C354.985 305.705 354.098 306.33 353.539 307.215C352.98 308.101 352.794 309.175 353.022 310.202C353.149 310.78 353.286 311.346 353.434 311.898ZM392.138 333.527C389.795 331.891 386.581 332.47 384.965 334.825C384.58 335.384 384.308 336.014 384.165 336.679C384.023 337.344 384.012 338.032 384.134 338.703C384.256 339.373 384.508 340.013 384.876 340.587C385.243 341.16 385.719 341.655 386.277 342.044C387.402 342.83 388.791 343.135 390.136 342.892C390.802 342.772 391.438 342.521 392.007 342.153C392.575 341.785 393.066 341.308 393.451 340.748C393.836 340.189 394.107 339.558 394.25 338.893C394.392 338.227 394.402 337.539 394.28 336.868C394.034 335.513 393.263 334.31 392.138 333.524" fill="#FEFEFE" fill-opacity="0.5" shape-rendering="crispEdges"/>
<path fill-rule="evenodd" clip-rule="evenodd" d="M535.174 153.252C528.939 135.416 512.974 130.372 512.279 130.162C511.278 129.855 510.198 129.961 509.277 130.456C508.357 130.951 507.671 131.794 507.371 132.8C507.072 133.806 507.182 134.893 507.678 135.821C508.174 136.749 509.016 137.442 510.017 137.748C510.629 137.944 523.675 142.2 528.166 157.182C528.642 159.356 531.001 160.473 533.087 159.843C534.087 159.542 534.925 158.854 535.417 157.929C535.909 157.004 536.015 155.919 535.711 154.913C535.542 154.346 535.363 153.791 535.174 153.252ZM494.972 134.553C497.43 136.011 500.592 135.195 502.03 132.727C502.372 132.141 502.597 131.492 502.689 130.818C502.782 130.144 502.742 129.458 502.571 128.798C502.399 128.138 502.101 127.519 501.691 126.974C501.282 126.43 500.771 125.971 500.186 125.625C499.005 124.924 497.598 124.723 496.274 125.065C495.619 125.234 495.004 125.532 494.464 125.941C493.924 126.35 493.47 126.863 493.127 127.449C492.785 128.035 492.561 128.684 492.469 129.359C492.376 130.033 492.417 130.72 492.588 131.38C492.935 132.713 493.792 133.855 494.973 134.556" fill="#FEFEFE" fill-opacity="0.5" shape-rendering="crispEdges"/>
</g>
<defs>
<filter id="filter0_di_225_4111" x="0" y="0" width="606.257" height="415.188" filterUnits="userSpaceOnUse" color-interpolation-filters="sRGB">
<feFlood flood-opacity="0" result="BackgroundImageFix"/>
<feColorMatrix in="SourceAlpha" type="matrix" values="0 0 0 0 0 0 0 0 0 0 0 0 0 0 0 0 0 0 127 0" result="hardAlpha"/>
<feOffset dy="5"/>
<feGaussianBlur stdDeviation="2.5"/>
<feComposite in2="hardAlpha" operator="out"/>
<feColorMatrix type="matrix" values="0 0 0 0 0 0 0 0 0 0 0 0 0 0 0 0 0 0 0.25 0"/>
<feBlend mode="normal" in2="BackgroundImageFix" result="effect1_dropShadow_225_4111"/>
<feBlend mode="normal" in="SourceGraphic" in2="effect1_dropShadow_225_4111" result="shape"/>
<feColorMatrix in="SourceAlpha" type="matrix" values="0 0 0 0 0 0 0 0 0 0 0 0 0 0 0 0 0 0 127 0" result="hardAlpha"/>
<feOffset dy="5"/>
<feGaussianBlur stdDeviation="2.5"/>
<feComposite in2="hardAlpha" operator="arithmetic" k2="-1" k3="1"/>
<feColorMatrix type="matrix" values="0 0 0 0 0 0 0 0 0 0 0 0 0 0 0 0 0 0 0.25 0"/>
<feBlend mode="normal" in2="shape" result="effect2_innerShadow_225_4111"/>
</filter>
<linearGradient id="paint0_linear_225_4111" x1="303.128" y1="0" x2="303.128" y2="405.188" gradientUnits="userSpaceOnUse">
<stop stop-color="#229857"/>
<stop offset="1" stop-color="#11414C"/>
</linearGradient>
<linearGradient id="paint1_linear_225_4111" x1="303.128" y1="0" x2="303.128" y2="405.188" gradientUnits="userSpaceOnUse">
<stop stop-color="#229857"/>
<stop offset="1" stop-color="#11414C"/>
</linearGradient>
<linearGradient id="paint2_linear_225_4111" x1="303.128" y1="0" x2="303.128" y2="405.188" gradientUnits="userSpaceOnUse">
<stop stop-color="#229857"/>
<stop offset="1" stop-color="#11414C"/>
</linearGradient>
<linearGradient id="paint3_linear_225_4111" x1="303.128" y1="0" x2="303.128" y2="405.188" gradientUnits="userSpaceOnUse">
<stop stop-color="#229857"/>
<stop offset="1" stop-color="#11414C"/>
</linearGradient>
</defs>
</svg>
