<?xml version="1.0" ?><svg viewBox="0 0 64 64" xmlns="http://www.w3.org/2000/svg"><defs><style>.cls-1{fill:#fcb316;}.cls-2{fill:#ffcb29;}.cls-3{fill:#ef5451;}.cls-4{fill:#e53a35;}.cls-5{fill:#455b64;}.cls-6{fill:#faa629;}</style></defs><g id="Icon"><path class="cls-1" d="M60,32A28.02,28.02,0,0,1,34,59.92c-.66.06-1.33.08-2,.08A28,28,0,0,1,32,4c.67,0,1.34.02,2,.08A28.02,28.02,0,0,1,60,32Z"/><ellipse class="cls-2" cx="34" cy="32" rx="26" ry="27.92"/><path class="cls-3" d="M43,43.49a5.283,5.283,0,0,1-1.31,3.99c-1.487,1.432-3.79,1.258-6.47,1.06a46.138,46.138,0,0,0-6.44,0c-2.208.139-4.89.488-6.47-1.06A5.283,5.283,0,0,1,21,43.49c0-5.61,4.01-8.82,11-8.82S43,37.88,43,43.49Z"/><path class="cls-4" d="M41.69,47.48c-1.487,1.432-3.79,1.258-6.47,1.06a46.138,46.138,0,0,0-6.44,0c-2.208.139-4.89.488-6.47-1.06.87-3.36,3.42-5.81,6.42-5.81h6.54C38.27,41.67,40.82,44.12,41.69,47.48Z"/><ellipse class="cls-5" cx="42" cy="27" rx="4" ry="6"/><ellipse class="cls-5" cx="22" cy="27" rx="4" ry="6"/><path class="cls-6" d="M45,19a5.006,5.006,0,0,1-5-5,1,1,0,0,1,2,0,3,3,0,0,0,3,3,1,1,0,0,1,0,2Z"/><path class="cls-6" d="M19,19a1,1,0,0,1,0-2,3,3,0,0,0,3-3,1,1,0,0,1,2,0A5.006,5.006,0,0,1,19,19Z"/></g></svg>