<svg width="26" height="25" viewBox="0 0 26 25" fill="none" xmlns="http://www.w3.org/2000/svg">
<path d="M25.25 12.5C25.2469 15.6594 24.0485 18.7006 21.8954 21.0127C19.7423 23.3248 16.794 24.7365 13.6429 24.9643C13.3482 24.9911 13.0491 25 12.75 25C9.43479 25 6.25537 23.683 3.91117 21.3388C1.56696 18.9946 0.25 15.8152 0.25 12.5C0.25 9.18479 1.56696 6.00537 3.91117 3.66117C6.25537 1.31696 9.43479 0 12.75 0C13.0491 0 13.3482 0.00892854 13.6429 0.0357143C16.794 0.263477 19.7423 1.67521 21.8954 3.98731C24.0485 6.29942 25.2469 9.34062 25.25 12.5Z" fill="#FCB316"/>
<path d="M13.6429 24.9643C20.0533 24.9643 25.25 19.3838 25.25 12.5C25.25 5.61617 20.0533 0.0357143 13.6429 0.0357143C7.23241 0.0357143 2.03571 5.61617 2.03571 12.5C2.03571 19.3838 7.23241 24.9643 13.6429 24.9643Z" fill="#FFCB29"/>
<path d="M7.83929 18.5714C7.74257 18.5716 7.64842 18.5403 7.571 18.4824C7.49358 18.4244 7.43707 18.3429 7.40998 18.25C7.3829 18.1572 7.38669 18.0581 7.4208 17.9676C7.45491 17.8771 7.51748 17.8001 7.59911 17.7482C9.13995 16.773 10.926 16.2552 12.7496 16.2552C14.5731 16.2552 16.3592 16.773 17.9 17.7482C17.9502 17.7793 17.9937 17.8201 18.028 17.8682C18.0624 17.9163 18.0868 17.9707 18.0999 18.0283C18.1131 18.0859 18.1147 18.1455 18.1046 18.2037C18.0945 18.2619 18.073 18.3175 18.0413 18.3674C18.0096 18.4172 17.9683 18.4602 17.9198 18.494C17.8713 18.5277 17.8166 18.5515 17.7589 18.564C17.7012 18.5764 17.6415 18.5773 17.5834 18.5666C17.5254 18.5558 17.47 18.5336 17.4205 18.5013C16.0232 17.6167 14.4034 17.147 12.7496 17.147C11.0957 17.147 9.4759 17.6167 8.07857 18.5013C8.00716 18.5471 7.92411 18.5714 7.83929 18.5714Z" fill="#EF5451"/>
<path d="M17.2143 14.4634C18.2005 14.4634 19 13.2642 19 11.7848C19 10.3055 18.2005 9.10625 17.2143 9.10625C16.2281 9.10625 15.4286 10.3055 15.4286 11.7848C15.4286 13.2642 16.2281 14.4634 17.2143 14.4634Z" fill="#455B64"/>
<path d="M8.28571 14.4634C9.27194 14.4634 10.0714 13.2642 10.0714 11.7848C10.0714 10.3055 9.27194 9.10625 8.28571 9.10625C7.29949 9.10625 6.5 10.3055 6.5 11.7848C6.5 13.2642 7.29949 14.4634 8.28571 14.4634Z" fill="#455B64"/>
<path d="M17.0835 6.55848C16.9998 6.47479 16.8862 6.42777 16.7679 6.42777C16.6495 6.42777 16.536 6.47479 16.4522 6.55848L15.1129 7.89777C15.0316 7.98197 14.9866 8.09473 14.9876 8.21179C14.9887 8.32884 15.0356 8.44081 15.1184 8.52358C15.2012 8.60635 15.3131 8.6533 15.4302 8.65432C15.5472 8.65534 15.66 8.61034 15.7442 8.52902L17.0835 7.18973C17.1672 7.10601 17.2142 6.99248 17.2142 6.87411C17.2142 6.75573 17.1672 6.6422 17.0835 6.55848Z" fill="#FAA629"/>
<path d="M10.3871 7.89777L9.04777 6.55848C8.96357 6.47716 8.8508 6.43216 8.73375 6.43318C8.6167 6.4342 8.50473 6.48115 8.42196 6.56392C8.33919 6.64669 8.29223 6.75866 8.29122 6.87571C8.2902 6.99277 8.3352 7.10554 8.41652 7.18973L9.7558 8.52902C9.84 8.61034 9.95277 8.65534 10.0698 8.65432C10.1869 8.6533 10.2988 8.60635 10.3816 8.52358C10.4644 8.44081 10.5113 8.32884 10.5124 8.21179C10.5134 8.09473 10.4684 7.98197 10.3871 7.89777Z" fill="#FAA629"/>
</svg>
