<svg width="25" height="25" viewBox="0 0 25 25" fill="none" xmlns="http://www.w3.org/2000/svg">
<path d="M25 12.5C24.9969 15.6594 23.7985 18.7006 21.6454 21.0127C19.4923 23.3248 16.544 24.7365 13.3929 24.9643C13.0982 24.9911 12.7991 25 12.5 25C9.18479 25 6.00537 23.683 3.66117 21.3388C1.31696 18.9946 0 15.8152 0 12.5C0 9.18479 1.31696 6.00537 3.66117 3.66117C6.00537 1.31696 9.18479 0 12.5 0C12.7991 0 13.0982 0.00892854 13.3929 0.0357143C16.544 0.263477 19.4923 1.67521 21.6454 3.98731C23.7985 6.29942 24.9969 9.34062 25 12.5Z" fill="#FCB316"/>
<path d="M13.3929 24.9643C19.8033 24.9643 25 19.3838 25 12.5C25 5.61617 19.8033 0.0357143 13.3929 0.0357143C6.98241 0.0357143 1.78571 5.61617 1.78571 12.5C1.78571 19.3838 6.98241 24.9643 13.3929 24.9643Z" fill="#FFCB29"/>
<path d="M9.375 8.03571C9.2566 8.03571 9.14305 8.08275 9.05933 8.16647C8.97561 8.25019 8.92857 8.36374 8.92857 8.48214C8.92857 9.50402 8.45714 10.2679 8.03571 10.2679C7.61429 10.2679 7.14286 9.50402 7.14286 8.48214C7.14286 8.36374 7.09582 8.25019 7.0121 8.16647C6.92838 8.08275 6.81483 8.03571 6.69643 8.03571C6.57803 8.03571 6.46448 8.08275 6.38076 8.16647C6.29703 8.25019 6.25 8.36374 6.25 8.48214C6.25 9.98393 7.03438 11.1607 8.03571 11.1607C9.03705 11.1607 9.82143 9.98393 9.82143 8.48214C9.82143 8.36374 9.77439 8.25019 9.69067 8.16647C9.60695 8.08275 9.4934 8.03571 9.375 8.03571Z" fill="#455B64"/>
<path d="M18.3036 8.03571C18.1852 8.03571 18.0716 8.08275 17.9879 8.16647C17.9042 8.25019 17.8571 8.36374 17.8571 8.48214C17.8571 9.50402 17.3857 10.2679 16.9643 10.2679C16.5429 10.2679 16.0714 9.50402 16.0714 8.48214C16.0714 8.36374 16.0244 8.25019 15.9407 8.16647C15.857 8.08275 15.7434 8.03571 15.625 8.03571C15.5066 8.03571 15.393 8.08275 15.3093 8.16647C15.2256 8.25019 15.1786 8.36374 15.1786 8.48214C15.1786 9.98393 15.9629 11.1607 16.9643 11.1607C17.9656 11.1607 18.75 9.98393 18.75 8.48214C18.75 8.36374 18.703 8.25019 18.6192 8.16647C18.5355 8.08275 18.422 8.03571 18.3036 8.03571Z" fill="#455B64"/>
<path d="M12.5 16.9643C13.7328 16.9643 14.7321 15.9649 14.7321 14.7321C14.7321 13.4994 13.7328 12.5 12.5 12.5C11.2672 12.5 10.2679 13.4994 10.2679 14.7321C10.2679 15.9649 11.2672 16.9643 12.5 16.9643Z" fill="#EF5451"/>
<path d="M18.3036 6.27545H16.4924C16.4041 6.27543 16.3178 6.24923 16.2444 6.20018C16.171 6.15112 16.1138 6.08141 16.0801 5.99985C16.0463 5.91828 16.0374 5.82854 16.0547 5.74195C16.0719 5.65536 16.1144 5.57583 16.1768 5.51339L17.2259 4.46429H16.5179C16.3995 4.46429 16.2859 4.41725 16.2022 4.33353C16.1185 4.24981 16.0714 4.13626 16.0714 4.01786C16.0714 3.89946 16.1185 3.78591 16.2022 3.70218C16.2859 3.61846 16.3995 3.57143 16.5179 3.57143H18.3036C18.3919 3.57145 18.4781 3.59764 18.5515 3.6467C18.6249 3.69575 18.6821 3.76547 18.7159 3.84703C18.7497 3.92859 18.7586 4.01834 18.7413 4.10492C18.7241 4.19151 18.6816 4.27105 18.6192 4.33348L17.5701 5.38259H18.3036C18.422 5.38259 18.5355 5.42962 18.6192 5.51335C18.703 5.59707 18.75 5.71062 18.75 5.82902C18.75 5.94742 18.703 6.06097 18.6192 6.14469C18.5355 6.22841 18.422 6.27545 18.3036 6.27545Z" fill="#3D82C4"/>
<path d="M24.5536 2.70402H22.7424C22.6541 2.704 22.5678 2.67781 22.4944 2.62875C22.421 2.5797 22.3638 2.50998 22.3301 2.42842C22.2963 2.34685 22.2874 2.25711 22.3047 2.17052C22.3219 2.08394 22.3644 2.0044 22.4268 1.94196L23.4759 0.892857H22.7679C22.6495 0.892857 22.5359 0.845823 22.4522 0.762101C22.3685 0.67838 22.3214 0.564829 22.3214 0.446429C22.3214 0.328028 22.3685 0.214478 22.4522 0.130756C22.5359 0.0470344 22.6495 0 22.7679 0H24.5536C24.6419 1.88501e-05 24.7281 0.0262116 24.8015 0.075267C24.8749 0.124323 24.9321 0.194038 24.9659 0.275601C24.9997 0.357163 25.0085 0.44691 24.9913 0.533496C24.9741 0.620082 24.9316 0.69962 24.8692 0.762054L23.8201 1.81116H24.5536C24.672 1.81116 24.7855 1.8582 24.8692 1.94192C24.953 2.02564 25 2.13919 25 2.25759C25 2.37599 24.953 2.48954 24.8692 2.57326C24.7855 2.65698 24.672 2.70402 24.5536 2.70402Z" fill="#3D82C4"/>
</svg>
