<svg width="26" height="25" viewBox="0 0 26 25" fill="none" xmlns="http://www.w3.org/2000/svg">
<path d="M25.5 12.5C25.4969 15.6594 24.2985 18.7006 22.1454 21.0127C19.9923 23.3248 17.044 24.7365 13.8929 24.9643C13.5982 24.9911 13.2991 25 13 25C9.68479 25 6.50537 23.683 4.16117 21.3388C1.81696 18.9946 0.5 15.8152 0.5 12.5C0.5 9.18479 1.81696 6.00537 4.16117 3.66117C6.50537 1.31696 9.68479 0 13 0C13.2991 0 13.5982 0.00892854 13.8929 0.0357143C17.044 0.263477 19.9923 1.67521 22.1454 3.98731C24.2985 6.29942 25.4969 9.34062 25.5 12.5Z" fill="#FCB316"/>
<path d="M13.8929 24.9643C20.3033 24.9643 25.5 19.3838 25.5 12.5C25.5 5.61617 20.3033 0.0357143 13.8929 0.0357143C7.48241 0.0357143 2.28571 5.61617 2.28571 12.5C2.28571 19.3838 7.48241 24.9643 13.8929 24.9643Z" fill="#FFCB29"/>
<path d="M13 17.2263C11.1761 17.2285 9.38944 16.7104 7.84955 15.733C7.79936 15.7019 7.75584 15.6611 7.72151 15.613C7.68719 15.565 7.66275 15.5106 7.64961 15.453C7.63647 15.3954 7.63489 15.3358 7.64495 15.2776C7.65502 15.2194 7.67654 15.1637 7.70826 15.1139C7.73998 15.0641 7.78128 15.021 7.82975 14.9873C7.87823 14.9535 7.93292 14.9297 7.99066 14.9173C8.0484 14.9048 8.10804 14.9039 8.16612 14.9147C8.2242 14.9254 8.27957 14.9476 8.32902 14.9799C9.72635 15.8646 11.3462 16.3342 13 16.3342C14.6538 16.3342 16.2737 15.8646 17.671 14.9799C17.7204 14.9476 17.7758 14.9254 17.8339 14.9147C17.892 14.9039 17.9516 14.9048 18.0093 14.9173C18.0671 14.9297 18.1218 14.9535 18.1702 14.9873C18.2187 15.021 18.26 15.0641 18.2917 15.1139C18.3235 15.1637 18.345 15.2194 18.355 15.2776C18.3651 15.3358 18.3635 15.3954 18.3504 15.453C18.3372 15.5106 18.3128 15.565 18.2785 15.613C18.2442 15.6611 18.2006 15.7019 18.1504 15.733C16.6106 16.7104 14.8239 17.2285 13 17.2263Z" fill="#EF5451"/>
<path d="M17.4643 13.1241C18.4505 13.1241 19.25 11.9249 19.25 10.4455C19.25 8.9662 18.4505 7.76696 17.4643 7.76696C16.4781 7.76696 15.6786 8.9662 15.6786 10.4455C15.6786 11.9249 16.4781 13.1241 17.4643 13.1241Z" fill="#455B64"/>
<path d="M8.53571 13.1241C9.52194 13.1241 10.3214 11.9249 10.3214 10.4455C10.3214 8.9662 9.52194 7.76696 8.53571 7.76696C7.54949 7.76696 6.75 8.9662 6.75 10.4455C6.75 11.9249 7.54949 13.1241 8.53571 13.1241Z" fill="#455B64"/>
</svg>
