<svg width="25" height="25" viewBox="0 0 25 25" fill="none" xmlns="http://www.w3.org/2000/svg">
<path d="M25 12.5C24.9969 15.6594 23.7985 18.7006 21.6454 21.0127C19.4923 23.3248 16.544 24.7365 13.3929 24.9643C13.0982 24.9911 12.7991 25 12.5 25C9.18479 25 6.00537 23.683 3.66117 21.3388C1.31696 18.9946 0 15.8152 0 12.5C0 9.18479 1.31696 6.00537 3.66117 3.66117C6.00537 1.31696 9.18479 0 12.5 0C12.7991 0 13.0982 0.00892854 13.3929 0.0357143C16.544 0.263477 19.4923 1.67521 21.6454 3.98731C23.7985 6.29942 24.9969 9.34062 25 12.5Z" fill="#FCB316"/>
<path d="M13.3929 24.9643C19.8033 24.9643 25 19.3838 25 12.5C25 5.61617 19.8033 0.0357143 13.3929 0.0357143C6.98241 0.0357143 1.78571 5.61617 1.78571 12.5C1.78571 19.3838 6.98241 24.9643 13.3929 24.9643Z" fill="#FFCB29"/>
<path d="M8.66384 17.9853C8.56203 17.9854 8.46325 17.9507 8.38387 17.8869C8.30449 17.8232 8.24928 17.7342 8.22739 17.6348C8.2055 17.5354 8.21826 17.4315 8.26354 17.3403C8.30882 17.2491 8.3839 17.1761 8.47634 17.1335C9.73724 16.5497 11.1101 16.2474 12.4996 16.2474C13.889 16.2474 15.2619 16.5497 16.5228 17.1335C16.576 17.1581 16.6239 17.1929 16.6636 17.236C16.7034 17.2791 16.7343 17.3296 16.7545 17.3846C16.7748 17.4397 16.784 17.4981 16.7817 17.5567C16.7793 17.6153 16.7654 17.6729 16.7408 17.7261C16.7163 17.7793 16.6814 17.8272 16.6383 17.867C16.5952 17.9068 16.5447 17.9376 16.4897 17.9579C16.4347 17.9781 16.3762 17.9874 16.3176 17.985C16.259 17.9827 16.2014 17.9688 16.1482 17.9442C15.0047 17.4146 13.7597 17.1403 12.4996 17.1403C11.2394 17.1403 9.99436 17.4146 8.85089 17.9442C8.79225 17.9713 8.72843 17.9853 8.66384 17.9853Z" fill="#EF5451"/>
<path d="M18.3036 12.2321C18.1852 12.2321 18.0716 12.1851 17.9879 12.1014C17.9042 12.0177 17.8571 11.9041 17.8571 11.7857C17.8571 10.7638 17.3857 10 16.9643 10C16.5429 10 16.0714 10.7638 16.0714 11.7857C16.0714 11.9041 16.0244 12.0177 15.9407 12.1014C15.857 12.1851 15.7434 12.2321 15.625 12.2321C15.5066 12.2321 15.393 12.1851 15.3093 12.1014C15.2256 12.0177 15.1786 11.9041 15.1786 11.7857C15.1786 10.2839 15.9629 9.10714 16.9643 9.10714C17.9656 9.10714 18.75 10.2839 18.75 11.7857C18.75 11.9041 18.703 12.0177 18.6192 12.1014C18.5355 12.1851 18.422 12.2321 18.3036 12.2321Z" fill="#455B64"/>
<path d="M9.375 12.2321C9.2566 12.2321 9.14305 12.1851 9.05933 12.1014C8.97561 12.0177 8.92857 11.9041 8.92857 11.7857C8.92857 10.7638 8.45714 10 8.03571 10C7.61429 10 7.14286 10.7638 7.14286 11.7857C7.14286 11.9041 7.09582 12.0177 7.0121 12.1014C6.92838 12.1851 6.81483 12.2321 6.69643 12.2321C6.57803 12.2321 6.46448 12.1851 6.38076 12.1014C6.29703 12.0177 6.25 11.9041 6.25 11.7857C6.25 10.2839 7.03438 9.10714 8.03571 9.10714C9.03705 9.10714 9.82143 10.2839 9.82143 11.7857C9.82143 11.9041 9.77439 12.0177 9.69067 12.1014C9.60695 12.1851 9.4934 12.2321 9.375 12.2321Z" fill="#455B64"/>
<path d="M16.8335 6.55848C16.7498 6.47479 16.6362 6.42777 16.5179 6.42777C16.3995 6.42777 16.286 6.47479 16.2022 6.55848L14.8629 7.89777C14.7816 7.98197 14.7366 8.09473 14.7376 8.21179C14.7387 8.32884 14.7856 8.44081 14.8684 8.52358C14.9512 8.60635 15.0631 8.6533 15.1802 8.65432C15.2972 8.65534 15.41 8.61034 15.4942 8.52902L16.8335 7.18973C16.9172 7.10601 16.9642 6.99248 16.9642 6.87411C16.9642 6.75573 16.9172 6.6422 16.8335 6.55848Z" fill="#FAA629"/>
<path d="M10.1371 7.89777L8.79777 6.55848C8.71357 6.47716 8.6008 6.43216 8.48375 6.43318C8.3667 6.4342 8.25473 6.48115 8.17196 6.56392C8.08919 6.64669 8.04223 6.75866 8.04122 6.87571C8.0402 6.99277 8.0852 7.10554 8.16652 7.18973L9.5058 8.52902C9.59 8.61034 9.70277 8.65534 9.81982 8.65432C9.93687 8.6533 10.0488 8.60635 10.1316 8.52358C10.2144 8.44081 10.2613 8.32884 10.2624 8.21179C10.2634 8.09473 10.2184 7.98197 10.1371 7.89777Z" fill="#FAA629"/>
<path d="M23.3598 19.9737C23.6057 19.6296 23.7215 19.2095 23.6866 18.788C23.6516 18.3666 23.4683 17.9712 23.1692 17.6723C22.838 17.3552 22.3998 17.1742 21.9414 17.1652C21.483 17.1562 21.038 17.3198 20.6946 17.6237L15.5683 13.2299C15.4829 13.1567 15.373 13.1184 15.2606 13.1227C15.1482 13.127 15.0416 13.1736 14.9621 13.2531L13.6996 14.5156C13.6201 14.5951 13.5735 14.7016 13.5691 14.8139C13.5647 14.9262 13.6029 15.036 13.6759 15.1214L18.0701 20.2482C17.7569 20.5871 17.5871 21.034 17.5962 21.4953C17.6052 21.9566 17.7925 22.3965 18.1188 22.7228C18.4216 23.0147 18.816 23.1931 19.2352 23.2279C19.6544 23.2627 20.0728 23.1518 20.4196 22.9138C20.8236 23.2209 21.3251 23.3713 21.8314 23.3369C22.3377 23.3026 22.8144 23.086 23.1732 22.7272C23.532 22.3684 23.7486 21.8917 23.7829 21.3854C23.8172 20.8792 23.6669 20.3776 23.3598 19.9737Z" fill="#FFE081"/>
<path d="M11.3004 14.5156L10.0379 13.2531C9.95841 13.1736 9.85177 13.127 9.73937 13.1227C9.62697 13.1184 9.51709 13.1567 9.4317 13.2299L4.30536 17.6237C3.96209 17.3197 3.51703 17.1559 3.05858 17.1649C2.60013 17.1739 2.16185 17.3551 1.8308 17.6723C1.53185 17.9711 1.34858 18.3663 1.31359 18.7875C1.2786 19.2088 1.39417 19.6287 1.63973 19.9728C1.33123 20.3767 1.17981 20.8788 1.21362 21.3859C1.24742 21.8931 1.46414 22.3707 1.82352 22.73C2.18291 23.0894 2.66052 23.3062 3.16763 23.34C3.67475 23.3738 4.1769 23.2223 4.5808 22.9138C4.92765 23.1517 5.34593 23.2625 5.76503 23.2277C6.18413 23.1929 6.57839 23.0145 6.88125 22.7228C7.20748 22.3965 7.39475 21.9566 7.40382 21.4953C7.4129 21.034 7.24306 20.5871 6.92991 20.2482L11.3241 15.1214C11.3971 15.036 11.4353 14.9262 11.4309 14.8139C11.4265 14.7016 11.3799 14.5951 11.3004 14.5156Z" fill="#FFE081"/>
</svg>
