<?xml version="1.0" ?><svg viewBox="0 0 64 64" xmlns="http://www.w3.org/2000/svg"><defs><style>.cls-1{fill:#fcb316;}.cls-2{fill:#ffcb29;}.cls-3{fill:#455b64;}.cls-4{fill:#ef5451;}.cls-5{fill:#e53a35;}.cls-6{fill:#ef9a9b;}.cls-7{fill:#fff;}</style></defs><g id="Icon"><path class="cls-1" d="M60,32A28.02,28.02,0,0,1,34,59.92c-.66.06-1.33.08-2,.08A28,28,0,0,1,32,4c.67,0,1.34.02,2,.08A28.02,28.02,0,0,1,60,32Z"/><ellipse class="cls-2" cx="34" cy="32" rx="26" ry="27.92"/><path class="cls-3" d="M42,16c-2.243,0-4,2.636-4,6a1,1,0,0,0,2,0c0-2.29,1.056-4,2-4s2,1.71,2,4a1,1,0,0,0,2,0C46,18.636,44.243,16,42,16Z"/><ellipse class="cls-3" cx="22" cy="22" rx="4" ry="6"/><path class="cls-4" d="M43,34.19c0,4.37-2.34,7.25-6.76,8.34a1.032,1.032,0,0,1-.86-.18,1,1,0,0,1-.38-.79V36H29v5.56a.992.992,0,0,1-1.24.97C23.34,41.44,21,38.56,21,34.19a5.28,5.28,0,0,1,1.36-4.05c1.518-1.368,3.766-1.2,6.42-1.01a46.138,46.138,0,0,0,6.44,0c2.665-.194,4.9-.359,6.42,1.01A5.28,5.28,0,0,1,43,34.19Z"/><path class="cls-5" d="M36,34H28a1,1,0,0,0-1,1v8a5,5,0,0,0,10,0V35A1,1,0,0,0,36,34Z"/><path class="cls-6" d="M32,41a1,1,0,0,1-1-1V35a1,1,0,0,1,2,0v5A1,1,0,0,1,32,41Z"/><path class="cls-7" d="M41.54,30.06a3.205,3.205,0,0,1-.05.82C40.44,33.99,38,36,35.27,36H28.73c-2.73,0-5.17-2.01-6.22-5.12a3.251,3.251,0,0,1-.05-.82c1.48-1.28,3.73-1.12,6.32-.93a46.138,46.138,0,0,0,6.44,0C37.82,28.94,40.06,28.78,41.54,30.06Z"/></g></svg>