<svg width="26" height="25" viewBox="0 0 26 25" fill="none" xmlns="http://www.w3.org/2000/svg">
<path d="M25.75 12.5C25.7469 15.6594 24.5485 18.7006 22.3954 21.0127C20.2423 23.3248 17.294 24.7365 14.1429 24.9643C13.8482 24.9911 13.5491 25 13.25 25C9.93479 25 6.75537 23.683 4.41117 21.3388C2.06696 18.9946 0.75 15.8152 0.75 12.5C0.75 9.18479 2.06696 6.00537 4.41117 3.66117C6.75537 1.31696 9.93479 0 13.25 0C13.5491 0 13.8482 0.00892854 14.1429 0.0357143C17.294 0.263477 20.2423 1.67521 22.3954 3.98731C24.5485 6.29942 25.7469 9.34062 25.75 12.5Z" fill="#FCB316"/>
<path d="M14.1429 24.9643C20.5533 24.9643 25.75 19.3838 25.75 12.5C25.75 5.61617 20.5533 0.0357143 14.1429 0.0357143C7.73241 0.0357143 2.53571 5.61617 2.53571 12.5C2.53571 19.3838 7.73241 24.9643 14.1429 24.9643Z" fill="#FFCB29"/>
<path d="M18.6071 15.4018C18.6071 16.4613 18.293 17.4971 17.7043 18.3781C17.1157 19.259 16.279 19.9457 15.3001 20.3511C14.3212 20.7566 13.2441 20.8627 12.2049 20.656C11.1657 20.4493 10.2111 19.9391 9.46193 19.1899C8.71272 18.4406 8.2025 17.4861 7.99579 16.4469C7.78909 15.4077 7.89518 14.3306 8.30065 13.3517C8.70612 12.3728 9.39275 11.5361 10.2737 10.9475C11.1547 10.3588 12.1905 10.0446 13.25 10.0446C14.6701 10.047 16.0313 10.6122 17.0355 11.6163C18.0396 12.6205 18.6048 13.9817 18.6071 15.4018Z" fill="#EF5451"/>
<path d="M17.7455 18.308C17.261 19.0599 16.5955 19.6783 15.8102 20.1065C15.0248 20.5347 14.1445 20.7591 13.25 20.7591C12.3555 20.7591 11.4752 20.5347 10.6898 20.1065C9.90447 19.6783 9.23904 19.0599 8.75446 18.308C9.23732 17.5538 9.90215 16.9333 10.6878 16.5034C11.4734 16.0736 12.3545 15.8483 13.25 15.8483C14.1455 15.8483 15.0266 16.0736 15.8122 16.5034C16.5978 16.9333 17.2627 17.5538 17.7455 18.308Z" fill="#E53A35"/>
<path d="M8.78571 7.36607C7.78438 7.36607 7 6.18929 7 4.6875C7 4.5691 7.04703 4.45555 7.13076 4.37183C7.21448 4.28811 7.32803 4.24107 7.44643 4.24107C7.56483 4.24107 7.67838 4.28811 7.7621 4.37183C7.84582 4.45555 7.89286 4.5691 7.89286 4.6875C7.89286 5.70938 8.36429 6.47321 8.78571 6.47321C9.20714 6.47321 9.67857 5.70938 9.67857 4.6875C9.67857 4.5691 9.72561 4.45555 9.80933 4.37183C9.89305 4.28811 10.0066 4.24107 10.125 4.24107C10.2434 4.24107 10.357 4.28811 10.4407 4.37183C10.5244 4.45555 10.5714 4.5691 10.5714 4.6875C10.5714 6.18929 9.78705 7.36607 8.78571 7.36607Z" fill="#455B64"/>
<path d="M17.7143 7.36607C16.7129 7.36607 15.9286 6.18929 15.9286 4.6875C15.9286 4.5691 15.9756 4.45555 16.0593 4.37183C16.143 4.28811 16.2566 4.24107 16.375 4.24107C16.4934 4.24107 16.607 4.28811 16.6907 4.37183C16.7744 4.45555 16.8214 4.5691 16.8214 4.6875C16.8214 5.70938 17.2929 6.47321 17.7143 6.47321C18.1357 6.47321 18.6071 5.70938 18.6071 4.6875C18.6071 4.5691 18.6542 4.45555 18.7379 4.37183C18.8216 4.28811 18.9352 4.24107 19.0536 4.24107C19.172 4.24107 19.2855 4.28811 19.3692 4.37183C19.453 4.45555 19.5 4.5691 19.5 4.6875C19.5 6.18929 18.7156 7.36607 17.7143 7.36607Z" fill="#455B64"/>
</svg>
