<svg width="24" height="24" viewBox="0 0 24 24" fill="none" xmlns="http://www.w3.org/2000/svg">
<path d="M12 0C18.6274 0 23.9999 5.37258 23.9999 12C23.9999 18.6274 18.6274 24 12 24C5.37257 24 0 18.6274 0 12C0 5.37258 5.37257 0 12 0ZM12.9364 6.56275L12.8354 6.4756C12.5223 6.24323 12.0924 6.24035 11.7764 6.467L11.6636 6.56275L11.5765 6.66369C11.344 6.97688 11.3412 7.40673 11.5678 7.7228L11.6636 7.83554L14.9271 11.0992H6.89915L6.77703 11.1073C6.37767 11.1616 6.06154 11.4777 6.00737 11.877L5.99915 11.9992L6.00737 12.1212C6.06154 12.5206 6.37767 12.8368 6.77703 12.8909L6.89915 12.8992H14.9271L11.6629 16.1636L11.5758 16.2646C11.3143 16.6168 11.3432 17.1168 11.6626 17.4364C11.9821 17.7559 12.4821 17.7851 12.8344 17.5237L12.9355 17.4366L17.7373 12.6366L17.8244 12.5357C18.0568 12.2225 18.0598 11.7927 17.8331 11.4765L17.7374 11.3638L12.9364 6.56275Z" fill="#F8F5EC"/>
</svg>
