<svg width="24" height="24" viewBox="0 0 24 24" fill="none" xmlns="http://www.w3.org/2000/svg">
<path d="M12 0C5.37257 0 0 5.37258 0 12C0 18.6274 5.37257 24 12 24C18.6273 24 24 18.6274 24 12C24 5.37258 18.6273 0 12 0ZM12.3361 17.4368C12.0165 17.7563 11.5166 17.7853 11.1643 17.524L11.0634 17.4368L6.26235 12.6359C5.94279 12.3162 5.91379 11.8162 6.1753 11.4639L6.26247 11.3629L11.0643 6.56293C11.4158 6.21152 11.9857 6.21163 12.3371 6.56317C12.6565 6.88275 12.6855 7.38275 12.4241 7.73504L12.3368 7.83596L9.07053 11.1007L17.1006 11.1004C17.5562 11.1004 17.9328 11.439 17.9923 11.8783L18.0006 12.0004C18.0006 12.456 17.6619 12.8326 17.2227 12.8922L17.1006 12.9004L9.07293 12.9007L12.3361 16.164C12.6557 16.4836 12.6847 16.9835 12.4232 17.3359L12.3361 17.4368Z" fill="#F8F5EC"/>
</svg>
