<svg width="30" height="30" viewBox="0 0 30 30" fill="none" xmlns="http://www.w3.org/2000/svg">
<path d="M15 0C6.71625 0 0 6.71588 0 15C0 23.2838 6.71625 30 15 30C23.2838 30 30 23.2838 30 15C30 6.71588 23.2838 0 15 0ZM15 27.4999C8.09587 27.4999 2.50012 21.903 2.50012 15C2.50012 8.09625 8.09587 2.50012 15 2.50012C21.4819 2.50012 26.8091 7.43363 27.4365 13.7501H10.5176L13.7501 10.5176L11.9824 8.75025L6.61613 14.1165C6.1275 14.6036 6.1275 15.396 6.61613 15.8843L11.9824 21.2505L13.7501 19.4839L10.5176 16.2506H27.4365C26.8091 22.566 21.4819 27.4999 15 27.4999Z" fill="#F8F5EC"/>
</svg>
