<svg width="25" height="27" viewBox="0 0 25 27" fill="none" xmlns="http://www.w3.org/2000/svg">
<path d="M10.8057 0C9.0356 0 7.6006 1.43499 7.6006 3.20513C7.6006 4.97527 9.0356 6.41026 10.8057 6.41026C12.5759 6.41026 14.0109 4.97527 14.0109 3.20513C14.0109 1.43499 12.5759 0 10.8057 0ZM21.503 5.79315C21.0461 4.40333 19.5251 3.6723 18.1543 4.18364L16.0946 4.95201C15.86 5.03956 15.6687 5.21526 15.5615 5.44171C14.7214 7.21741 12.9148 8.44247 10.8241 8.44247C8.73816 8.44247 6.9352 7.22312 6.09257 5.45405C5.98521 5.22867 5.7944 5.05387 5.56049 4.96663L3.47207 4.18769C2.09433 3.67383 0.56693 4.41731 0.121417 5.81864C-0.284135 7.09431 0.35634 8.46782 1.59424 8.97714L5.05793 10.4022C5.43278 10.5564 5.67746 10.9216 5.67746 11.327V14.5251C5.67746 14.6362 5.65897 14.7464 5.62276 14.8513L3.15001 22.0174C2.69962 23.3227 3.38896 24.7465 4.69217 25.2027C5.98142 25.6541 7.39476 24.9906 7.8713 23.7105L9.50209 19.3297C9.53427 19.2432 9.55399 19.1524 9.56289 19.0605C9.88978 15.6896 12.2251 12.9065 15.357 11.9227C15.6914 11.8177 15.9338 11.5166 15.9338 11.1661V11.1661C15.9338 10.8592 16.1194 10.5827 16.4036 10.4665L20.0305 8.98333C21.2825 8.4713 21.9256 7.07823 21.503 5.79315Z" fill="#FF0000"/>
<path fill-rule="evenodd" clip-rule="evenodd" d="M17.9487 26.9231C21.843 26.9231 25 23.7661 25 19.8718C25 15.9775 21.843 12.8205 17.9487 12.8205C14.0544 12.8205 10.8974 15.9775 10.8974 19.8718C10.8974 23.7661 14.0544 26.9231 17.9487 26.9231ZM21.3726 22.5175L19.53 20.4742C19.1886 20.0956 19.1867 19.5206 19.5256 19.1397L21.1981 17.2604C21.3144 17.1309 21.3726 17.0204 21.3726 16.929C21.3726 16.769 21.232 16.6204 20.951 16.4833C20.9342 16.4767 20.9182 16.4704 20.9028 16.4643C20.8288 16.4349 20.768 16.4108 20.7038 16.3919C20.6263 16.3614 20.5439 16.3462 20.4566 16.3462C20.2046 16.3462 19.9769 16.4566 19.7733 16.6776L18.6864 17.8913C18.2889 18.3352 17.594 18.3352 17.1965 17.8913L16.1096 16.6776C15.9157 16.4566 15.6879 16.3462 15.4262 16.3462C15.3487 16.3462 15.2663 16.3614 15.1791 16.3919C15.1036 16.4141 15.0189 16.4436 14.9249 16.4803C14.9234 16.481 14.9238 16.4833 14.9255 16.4833V16.4833C14.9271 16.4833 14.9276 16.4855 14.9261 16.4862C14.6586 16.6226 14.5248 16.7701 14.5248 16.929C14.5248 16.9512 14.5298 16.9786 14.5397 17.0113C14.5557 17.0641 14.5831 17.1126 14.6137 17.1585C14.6374 17.1939 14.6611 17.2279 14.6848 17.2604C15.0434 17.6718 15.4214 18.0985 15.8188 18.5404C16.0037 18.746 16.1844 18.9475 16.3609 19.1449C16.6991 19.5229 16.6984 20.0944 16.361 20.4731L14.5394 22.5175C14.4618 22.6013 14.4231 22.6889 14.4231 22.7803C14.4231 22.8717 14.457 22.9555 14.5248 23.0317C14.6024 23.1003 14.709 23.1727 14.8447 23.2489C15.0095 23.3479 15.1839 23.3974 15.3681 23.3974C15.5813 23.3974 15.78 23.3022 15.9642 23.1117C16.1096 22.9517 16.2647 22.7765 16.4294 22.586L16.9528 22.0146C17.1273 21.8165 17.2969 21.6222 17.4617 21.4318V21.4318C17.7191 21.1507 18.163 21.1514 18.4185 21.4343L19.9333 23.1117C20.0205 23.1955 20.1126 23.2641 20.2095 23.3174C20.3161 23.3708 20.4179 23.3974 20.5148 23.3974C20.6796 23.3974 20.854 23.3479 21.0382 23.2489C21.329 23.0889 21.4744 22.9289 21.4744 22.7689C21.4744 22.6775 21.4404 22.5936 21.3726 22.5175Z" fill="#FF0000"/>
</svg>
