<svg width="24" height="24" viewBox="0 0 24 24" fill="none" xmlns="http://www.w3.org/2000/svg">
<path d="M19.42 11.75H16C15.8015 11.7487 15.6115 11.6693 15.4711 11.5289C15.3307 11.3885 15.2513 11.1985 15.25 11V4.01C15.2516 3.27849 15.5429 2.57739 16.0601 2.06014C16.5774 1.54288 17.2785 1.25159 18.01 1.25L18.02 1.25C19.2749 1.25687 20.476 1.76048 21.3605 2.65065C22.2451 3.54082 22.7411 4.74508 22.74 6V8.42C22.7675 8.8636 22.7006 9.308 22.5436 9.72381C22.3866 10.1396 22.1432 10.5174 21.8294 10.8321C21.5156 11.1469 21.1385 11.3915 20.7232 11.5497C20.3079 11.7079 19.8637 11.7762 19.42 11.75ZM16.75 10.25H19.42C19.6665 10.2752 19.9156 10.2452 20.149 10.1621C20.3825 10.079 20.5946 9.94503 20.7698 9.7698C20.945 9.59458 21.079 9.38253 21.1621 9.14905C21.2452 8.91557 21.2752 8.66653 21.25 8.42V6C21.2516 5.14102 20.9124 4.31647 20.3069 3.70721C19.7014 3.09794 18.879 2.75371 18.02 2.75H18.01C17.8446 2.75009 17.6809 2.78281 17.5281 2.84631C17.3754 2.9098 17.2367 3.00281 17.12 3.12C17.002 3.23614 16.9085 3.37472 16.845 3.52758C16.7814 3.68043 16.7491 3.84446 16.75 4.01V10.25Z" fill="#949699"/>
<path d="M9.00001 23.33C8.7689 23.3317 8.53983 23.2865 8.32669 23.1972C8.11355 23.1078 7.92077 22.9761 7.76001 22.81L6.10001 21.14C6.05732 21.0963 5.99988 21.07 5.93888 21.0663C5.87787 21.0626 5.81768 21.0817 5.77001 21.12L4.06001 22.4C3.80022 22.5958 3.49094 22.7152 3.16699 22.7448C2.84303 22.7743 2.51724 22.7129 2.22628 22.5675C1.93532 22.422 1.69073 22.1982 1.52002 21.9213C1.34931 21.6444 1.25927 21.3253 1.26001 21V6C1.26001 2.98 2.99001 1.25 6.01001 1.25H18.01C18.2085 1.25131 18.3985 1.33075 18.5389 1.47112C18.6793 1.61149 18.7587 1.80149 18.76 2C18.7587 2.19851 18.6793 2.38851 18.5389 2.52888C18.3985 2.66925 18.2085 2.74869 18.01 2.75C17.6785 2.75 17.3606 2.8817 17.1261 3.11612C16.8917 3.35054 16.76 3.66848 16.76 4V21C16.7608 21.3253 16.6707 21.6444 16.5 21.9213C16.3293 22.1982 16.0847 22.422 15.7937 22.5675C15.5028 22.7129 15.177 22.7743 14.853 22.7448C14.5291 22.7152 14.2198 22.5958 13.96 22.4L12.25 21.12C12.2033 21.0839 12.1451 21.0661 12.0862 21.0697C12.0274 21.0734 11.9718 21.0984 11.93 21.14L10.25 22.82C9.91648 23.1475 9.46749 23.3307 9.00001 23.33ZM5.91001 19.57C6.14268 19.5678 6.37337 19.6128 6.58819 19.7022C6.80302 19.7915 6.99753 19.9235 7.16001 20.09L8.82001 21.76C8.8691 21.8051 8.93334 21.8302 9.00001 21.8302C9.06669 21.8302 9.13093 21.8051 9.18001 21.76L10.86 20.08C11.1585 19.7814 11.5555 19.6016 11.9768 19.574C12.3981 19.5464 12.8151 19.6729 13.15 19.93L14.85 21.2C14.8862 21.2294 14.9304 21.247 14.9769 21.2506C15.0233 21.2542 15.0698 21.2435 15.11 21.22C15.1514 21.1999 15.1864 21.1686 15.2111 21.1298C15.2358 21.091 15.2493 21.046 15.25 21V4C15.2497 3.56546 15.3525 3.13705 15.55 2.75H6.00001C3.78001 2.75 2.75001 3.78 2.75001 6V21C2.74933 21.0476 2.76211 21.0945 2.78688 21.1352C2.81164 21.1759 2.84739 21.2087 2.89001 21.23C2.93141 21.2515 2.97827 21.2601 3.0246 21.2547C3.07093 21.2494 3.1146 21.2303 3.15001 21.2L4.86001 19.92C5.16347 19.6938 5.53155 19.5711 5.91001 19.57Z" fill="#949699"/>
<path d="M12 9.75H6C5.80149 9.74869 5.61149 9.66925 5.47112 9.52888C5.33075 9.38851 5.25131 9.19851 5.25 9C5.25131 8.80149 5.33075 8.61149 5.47112 8.47112C5.61149 8.33075 5.80149 8.25131 6 8.25H12C12.1985 8.25131 12.3885 8.33075 12.5289 8.47112C12.6693 8.61149 12.7487 8.80149 12.75 9C12.7487 9.19851 12.6693 9.38851 12.5289 9.52888C12.3885 9.66925 12.1985 9.74869 12 9.75Z" fill="#949699"/>
<path d="M11.25 13.75H6.75C6.55149 13.7487 6.36149 13.6693 6.22112 13.5289C6.08075 13.3885 6.00131 13.1985 6 13C6.00131 12.8015 6.08075 12.6115 6.22112 12.4711C6.36149 12.3307 6.55149 12.2513 6.75 12.25H11.25C11.4485 12.2513 11.6385 12.3307 11.7789 12.4711C11.9193 12.6115 11.9987 12.8015 12 13C11.9987 13.1985 11.9193 13.3885 11.7789 13.5289C11.6385 13.6693 11.4485 13.7487 11.25 13.75Z" fill="#949699"/>
</svg>
