<svg width="24" height="24" viewBox="0 0 24 24" fill="none" xmlns="http://www.w3.org/2000/svg">
<path d="M13 22H4.99998C4.59247 22.0581 4.17703 22.0206 3.78653 21.8904C3.39604 21.7602 3.04121 21.5409 2.75014 21.2498C2.45907 20.9587 2.23976 20.6039 2.10955 20.2134C1.97935 19.8229 1.94184 19.4075 1.99998 19V11C1.94184 10.5925 1.97935 10.177 2.10955 9.78653C2.23976 9.39604 2.45907 9.04121 2.75014 8.75014C3.04121 8.45907 3.39604 8.23976 3.78653 8.10955C4.17703 7.97935 4.59247 7.94184 4.99998 7.99998H9.99998V19C9.94184 19.4075 9.97935 19.8229 10.1096 20.2134C10.2398 20.6039 10.4591 20.9587 10.7501 21.2498C11.0412 21.5409 11.396 21.7602 11.7865 21.8904C12.177 22.0206 12.5925 22.0581 13 22V22Z" stroke="#949699" stroke-width="1.5" stroke-linecap="round" stroke-linejoin="round"/>
<path d="M10.11 4C10.0301 4.32715 9.9931 4.6633 10 5V8H5V6C5.00158 5.47005 5.2128 4.96227 5.58753 4.58753C5.96227 4.2128 6.47005 4.00158 7 4H10.11Z" stroke="#949699" stroke-width="1.5" stroke-linecap="round" stroke-linejoin="round"/>
<path d="M14 8V13" stroke="#949699" stroke-width="1.5" stroke-linecap="round" stroke-linejoin="round"/>
<path d="M18 8V13" stroke="#949699" stroke-width="1.5" stroke-linecap="round" stroke-linejoin="round"/>
<path d="M17 17H15C14.7348 17 14.4804 17.1054 14.2929 17.2929C14.1054 17.4804 14 17.7348 14 18V22H18V18C18 17.7348 17.8946 17.4804 17.7071 17.2929C17.5196 17.1054 17.2652 17 17 17Z" stroke="#949699" stroke-width="1.5" stroke-linecap="round" stroke-linejoin="round"/>
<path d="M6 13V17" stroke="#949699" stroke-width="1.5" stroke-linecap="round" stroke-linejoin="round"/>
<path d="M9.99998 19V4.99998C9.94184 4.59247 9.97935 4.17703 10.1096 3.78653C10.2398 3.39604 10.4591 3.04121 10.7501 2.75014C11.0412 2.45907 11.396 2.23976 11.7865 2.10955C12.177 1.97935 12.5925 1.94184 13 1.99998H19C19.4075 1.94184 19.8229 1.97935 20.2134 2.10955C20.6039 2.23976 20.9587 2.45907 21.2498 2.75014C21.5409 3.04121 21.7602 3.39604 21.8904 3.78653C22.0206 4.17703 22.0581 4.59247 22 4.99998V19C22.0581 19.4075 22.0206 19.8229 21.8904 20.2134C21.7602 20.6039 21.5409 20.9587 21.2498 21.2498C20.9587 21.5409 20.6039 21.7602 20.2134 21.8904C19.8229 22.0206 19.4075 22.0581 19 22H13C12.5925 22.0581 12.177 22.0206 11.7865 21.8904C11.396 21.7602 11.0412 21.5409 10.7501 21.2498C10.4591 20.9587 10.2398 20.6039 10.1096 20.2134C9.97935 19.8229 9.94184 19.4075 9.99998 19V19Z" stroke="#949699" stroke-width="1.5" stroke-linecap="round" stroke-linejoin="round"/>
</svg>
