<svg width="32" height="32" viewBox="0 0 32 32" fill="none" xmlns="http://www.w3.org/2000/svg">
<rect width="32" height="32" rx="16" fill="#219653" fill-opacity="0.1"/>
<path d="M15.2509 18.36L13.7687 19.84C13.6197 19.9901 13.4172 20.0752 13.2055 20.0767C12.9939 20.0782 12.7902 19.996 12.639 19.848C12.5509 19.76 12.4628 19.68 12.3746 19.592C11.5644 18.7776 10.8172 17.9031 10.1393 16.976C9.51667 16.1273 8.99002 15.2124 8.56894 14.248C8.20933 13.4217 8.01605 12.5328 8.00009 11.632C7.99664 11.1037 8.09455 10.5796 8.28852 10.088C8.4923 9.57979 8.80707 9.12337 9.2099 8.75201C9.42315 8.52171 9.68053 8.33648 9.96679 8.20731C10.253 8.07814 10.5624 8.00765 10.8764 8.00001C11.1008 7.99912 11.3225 8.04832 11.5254 8.14401C11.7418 8.24182 11.9274 8.39671 12.0622 8.59201L13.9209 11.208C14.0495 11.3814 14.1571 11.5694 14.2414 11.768C14.311 11.9216 14.3491 12.0875 14.3536 12.256C14.3513 12.4573 14.2931 12.6539 14.1853 12.824C14.0618 13.0324 13.9109 13.2235 13.7367 13.392L13.1278 14.024C13.0853 14.0656 13.052 14.1155 13.03 14.1706C13.0079 14.2256 12.9975 14.2847 12.9996 14.344C12.9997 14.4061 13.0077 14.468 13.0236 14.528C13.0476 14.592 13.0717 14.64 13.0877 14.688C13.3028 15.0523 13.5523 15.3951 13.8328 15.712C14.1933 16.128 14.5779 16.552 14.9945 16.976C15.0747 17.056 15.1628 17.136 15.2429 17.216C15.3197 17.29 15.381 17.3785 15.4231 17.4765C15.4652 17.5744 15.4872 17.6798 15.488 17.7863C15.4887 17.8929 15.4681 17.9985 15.4274 18.0971C15.3867 18.1956 15.3267 18.285 15.2509 18.36Z" fill="#219653"/>
<path d="M23.9999 21.0641C23.999 21.2959 23.9584 21.5259 23.8797 21.7441C23.8565 21.8095 23.8297 21.8735 23.7996 21.9361C23.6597 22.2337 23.4761 22.5087 23.2548 22.7521C22.894 23.162 22.4447 23.4847 21.9408 23.6961C21.9328 23.6961 21.9248 23.7041 21.9168 23.7041C21.4282 23.9018 20.9057 24.0024 20.3785 24.0001C19.4773 23.9834 18.5888 23.7848 17.7666 23.4161C16.7909 22.9938 15.8663 22.4624 15.0105 21.8321C14.698 21.6001 14.3856 21.3681 14.0891 21.1201L16.709 18.5041C16.8963 18.6474 17.0945 18.7758 17.3019 18.8881C17.342 18.9041 17.39 18.9281 17.4461 18.9521C17.5103 18.975 17.5783 18.9858 17.6464 18.9841C17.7076 18.9854 17.7685 18.9741 17.825 18.9506C17.8816 18.9272 17.9326 18.8923 17.9749 18.8481L18.5838 18.2481C18.7527 18.0709 18.9471 17.9199 19.1607 17.8001C19.3306 17.6915 19.5278 17.6333 19.7295 17.6321C19.8977 17.6344 20.0638 17.6697 20.2183 17.7361C20.4155 17.8204 20.6035 17.925 20.7791 18.0481L23.4311 19.9281C23.6235 20.0537 23.7763 20.2312 23.8717 20.4401C23.9549 20.6377 23.9984 20.8497 23.9999 21.0641Z" fill="#219653"/>
</svg>
