<svg width="24" height="24" viewBox="0 0 24 24" fill="none" xmlns="http://www.w3.org/2000/svg">
<path d="M18.33 2.03001C18.7074 2.0315 19.0797 2.1169 19.42 2.28001C19.792 2.45462 20.1358 2.68382 20.44 2.96001C20.9524 3.41036 21.3558 3.97111 21.62 4.60001C21.8753 5.21822 22.0045 5.88119 22 6.55001C21.9792 7.67481 21.7309 8.78375 21.27 9.81001C20.7421 11.0278 20.0779 12.1818 19.29 13.25C18.4401 14.4119 17.5041 15.5083 16.49 16.53C15.472 17.5412 14.3789 18.4739 13.22 19.32C12.1591 20.0971 11.0155 20.7544 9.81002 21.28C8.77918 21.7364 7.66721 21.9813 6.54001 22C5.8796 22.0043 5.22447 21.8821 4.61001 21.64C3.97474 21.3857 3.40421 20.9928 2.94001 20.49C2.65214 20.2238 2.42061 19.9026 2.25914 19.5453C2.09768 19.188 2.00956 18.802 2.00001 18.41C1.9989 18.13 2.0604 17.8532 2.18001 17.6C2.30227 17.3299 2.49589 17.0983 2.74001 16.93L6.01002 14.61C6.22677 14.4496 6.46174 14.3153 6.71001 14.21C6.90199 14.1232 7.10938 14.0756 7.32001 14.07C7.57157 14.0728 7.81739 14.1456 8.03001 14.28C8.29056 14.4342 8.52934 14.6226 8.74001 14.84L9.53001 15.6C9.58196 15.653 9.64434 15.6945 9.7132 15.7221C9.78206 15.7496 9.85589 15.7625 9.93002 15.76C10.0076 15.7599 10.0849 15.7498 10.16 15.73C10.24 15.7 10.3 15.67 10.36 15.65C10.8153 15.3815 11.2439 15.0701 11.64 14.72C12.16 14.27 12.69 13.79 13.22 13.27C13.75 12.73 14.24 12.21 14.69 11.68C15.0404 11.2829 15.3487 10.8506 15.61 10.39C15.63 10.34 15.66 10.28 15.69 10.21C15.7187 10.1299 15.7322 10.0451 15.73 9.96001C15.7317 9.88361 15.7175 9.80769 15.6882 9.7371C15.6589 9.66651 15.6153 9.60279 15.56 9.55001L14.81 8.79001C14.5885 8.57926 14.3998 8.33658 14.25 8.07001C14.1143 7.85795 14.0415 7.61177 14.04 7.36001C14.0429 7.15012 14.0871 6.94285 14.17 6.75001C14.2754 6.50381 14.4061 6.26921 14.56 6.05001L16.91 2.74001C17.067 2.49984 17.289 2.30913 17.55 2.19001C17.7971 2.08626 18.0621 2.03191 18.33 2.03001V2.03001Z" stroke="#949699" stroke-width="1.5"/>
</svg>
