<svg width="26" height="25" viewBox="0 0 26 25" fill="none" xmlns="http://www.w3.org/2000/svg">
<path fill-rule="evenodd" clip-rule="evenodd" d="M3.49576 10.8785C4.54276 10.5251 5.29661 9.53489 5.29661 8.36864C5.29661 6.90603 4.11092 5.72034 2.64831 5.72034C1.18569 5.72034 0 6.90603 0 8.36864C0 9.53489 0.753849 10.5251 1.80085 10.8785V20.0212C1.80085 21.4838 2.98653 22.6695 4.44915 22.6695H5.10362C5.26062 23.9823 6.37798 25 7.73305 25H17.7966C19.1517 25 20.269 23.9823 20.426 22.6695H20.9746C22.4372 22.6695 23.6229 21.4838 23.6229 20.0212V17.4788C23.6229 16.0162 22.4372 14.8305 20.9746 14.8305H20.3919C20.1466 13.6217 19.0778 12.7119 17.7966 12.7119H7.73305C6.45182 12.7119 5.3831 13.6217 5.13772 14.8305H4.44915C4.11306 14.8305 3.79159 14.8931 3.49576 15.0073V10.8785ZM9.74576 20.5508C10.6233 20.5508 11.3347 19.8394 11.3347 18.9619C11.3347 18.0843 10.6233 17.3729 9.74576 17.3729C8.86819 17.3729 8.15678 18.0843 8.15678 18.9619C8.15678 19.8394 8.86819 20.5508 9.74576 20.5508ZM15.678 20.5508C16.5555 20.5508 17.2669 19.8394 17.2669 18.9619C17.2669 18.0843 16.5555 17.3729 15.678 17.3729C14.8004 17.3729 14.089 18.0843 14.089 18.9619C14.089 19.8394 14.8004 20.5508 15.678 20.5508Z" fill="#11414C"/>
<path fill-rule="evenodd" clip-rule="evenodd" d="M13.7712 0C12.7181 0 11.8644 0.853694 11.8644 1.90678V7.94492C11.8644 8.998 12.7181 9.8517 13.7712 9.8517H14.8305V11.0699C14.8658 11.4407 15.3072 11.9597 16.7903 11.0699C18.2733 10.1801 19.6328 9.88701 20.1271 9.8517H23.3051C24.3582 9.8517 25.2119 8.998 25.2119 7.94492V1.90678C25.2119 0.853694 24.3582 0 23.3051 0H13.7712ZM15.625 2.54237C15.1277 2.54237 14.7246 2.94551 14.7246 3.4428C14.7246 3.94009 15.1277 4.34322 15.625 4.34322H17.9555C18.4528 4.34322 18.8559 3.94009 18.8559 3.4428C18.8559 2.94551 18.4528 2.54237 17.9555 2.54237H15.625ZM15.625 5.50847C15.1277 5.50847 14.7246 5.91161 14.7246 6.4089C14.7246 6.90619 15.1277 7.30932 15.625 7.30932H20.286C20.7833 7.30932 21.1864 6.90619 21.1864 6.4089C21.1864 5.91161 20.7833 5.50847 20.286 5.50847H15.625Z" fill="#11414C"/>
</svg>
