<svg width="16" height="16" viewBox="0 0 16 16" fill="none" xmlns="http://www.w3.org/2000/svg">
<path d="M13 0.5H3C2.33696 0.5 1.70107 0.763392 1.23223 1.23223C0.763392 1.70107 0.5 2.33696 0.5 3V13C0.5 13.663 0.763392 14.2989 1.23223 14.7678C1.70107 15.2366 2.33696 15.5 3 15.5H13C13.663 15.5 14.2989 15.2366 14.7678 14.7678C15.2366 14.2989 15.5 13.663 15.5 13V3C15.5 2.33696 15.2366 1.70107 14.7678 1.23223C14.2989 0.763392 13.663 0.5 13 0.5ZM13.8333 13C13.8333 13.221 13.7455 13.433 13.5893 13.5893C13.433 13.7455 13.221 13.8333 13 13.8333H3C2.77899 13.8333 2.56702 13.7455 2.41074 13.5893C2.25446 13.433 2.16667 13.221 2.16667 13V3C2.16667 2.77899 2.25446 2.56702 2.41074 2.41074C2.56702 2.25446 2.77899 2.16667 3 2.16667H13C13.221 2.16667 13.433 2.25446 13.5893 2.41074C13.7455 2.56702 13.8333 2.77899 13.8333 3V13Z" fill="#252525"/>
<path d="M10.25 4.99165L7.09999 9.15832L5.74166 7.39998C5.60574 7.22538 5.40602 7.11193 5.18645 7.08458C4.96687 7.05723 4.74543 7.11823 4.57083 7.25415C4.39623 7.39007 4.28277 7.58979 4.25542 7.80937C4.22807 8.02894 4.28907 8.25038 4.42499 8.42498L6.45 11.0167C6.52847 11.116 6.62854 11.1961 6.74261 11.251C6.85668 11.3058 6.98175 11.334 7.10833 11.3333C7.23559 11.333 7.3611 11.3036 7.47521 11.2472C7.58933 11.1909 7.68903 11.1092 7.76666 11.0083L11.575 6.00832C11.7098 5.83151 11.7689 5.60838 11.7392 5.38803C11.7095 5.16767 11.5935 4.96814 11.4167 4.83332C11.2399 4.6985 11.0167 4.63944 10.7964 4.66913C10.576 4.69883 10.3765 4.81484 10.2417 4.99165H10.25Z" fill="#252525"/>
</svg>
