<svg width="22" height="19" viewBox="0 0 22 19" fill="none" xmlns="http://www.w3.org/2000/svg">
<path d="M11.71 9.29001C11.5231 9.10678 11.2718 9.00415 11.01 9.00415C10.7483 9.00415 10.4969 9.10678 10.31 9.29001L7.31002 12.19C7.20391 12.2776 7.117 12.3861 7.05474 12.5088C6.99248 12.6314 6.9562 12.7656 6.94818 12.903C6.94015 13.0403 6.96054 13.1778 7.00809 13.3069C7.05563 13.436 7.1293 13.5539 7.22448 13.6532C7.31967 13.7526 7.43433 13.8312 7.56128 13.8842C7.68824 13.9371 7.82476 13.9634 7.96231 13.9612C8.09987 13.959 8.23549 13.9285 8.3607 13.8715C8.48592 13.8145 8.59802 13.7323 8.69002 13.63L10 12.36V18C10 18.2652 10.1054 18.5196 10.2929 18.7071C10.4804 18.8947 10.7348 19 11 19C11.2652 19 11.5196 18.8947 11.7071 18.7071C11.8947 18.5196 12 18.2652 12 18V12.41L13.29 13.71C13.383 13.8037 13.4936 13.8781 13.6154 13.9289C13.7373 13.9797 13.868 14.0058 14 14.0058C14.132 14.0058 14.2627 13.9797 14.3846 13.9289C14.5065 13.8781 14.6171 13.8037 14.71 13.71C14.8037 13.617 14.8781 13.5064 14.9289 13.3846C14.9797 13.2627 15.0058 13.132 15.0058 13C15.0058 12.868 14.9797 12.7373 14.9289 12.6154C14.8781 12.4936 14.8037 12.383 14.71 12.29L11.71 9.29001Z" fill="#6C6C6C"/>
<path d="M16.67 4.99998C16.262 3.82103 15.4966 2.7986 14.4804 2.07494C13.4641 1.35129 12.2476 0.962402 11 0.962402C9.75245 0.962402 8.53592 1.35129 7.51968 2.07494C6.50345 2.7986 5.73806 3.82103 5.33002 4.99998C4.43157 5.12032 3.58273 5.48263 2.87432 6.04817C2.1659 6.61371 1.62455 7.3612 1.30818 8.21067C0.991814 9.06014 0.912327 9.97964 1.07822 10.8708C1.24412 11.762 1.64916 12.5913 2.25002 13.27C2.3226 13.3978 2.42247 13.5081 2.54253 13.5929C2.66258 13.6778 2.79987 13.7351 2.94461 13.7608C3.08934 13.7866 3.23798 13.7801 3.37992 13.7418C3.52186 13.7035 3.65362 13.6345 3.76582 13.5395C3.87801 13.4445 3.96788 13.3259 4.02903 13.1922C4.09018 13.0585 4.1211 12.913 4.11959 12.766C4.11808 12.619 4.08418 12.4742 4.02031 12.3417C3.95643 12.2093 3.86414 12.0927 3.75002 12C3.36313 11.5674 3.11 11.032 3.02131 10.4585C2.93261 9.88497 3.01215 9.29806 3.25029 8.76885C3.48843 8.23965 3.87495 7.79087 4.36301 7.47691C4.85106 7.16295 5.4197 6.99728 6.00002 6.99998H6.10002C6.33396 7.0047 6.56216 6.92723 6.74488 6.78105C6.92759 6.63488 7.05327 6.42926 7.10002 6.19998C7.28363 5.29575 7.7742 4.4828 8.48861 3.89888C9.20302 3.31496 10.0973 2.99597 11.02 2.99597C11.9427 2.99597 12.837 3.31496 13.5514 3.89888C14.2658 4.4828 14.7564 5.29575 14.94 6.19998C14.9868 6.42926 15.1124 6.63488 15.2952 6.78105C15.4779 6.92723 15.7061 7.0047 15.94 6.99998H16C16.5803 6.99728 17.149 7.16295 17.637 7.47691C18.1251 7.79087 18.5116 8.23965 18.7497 8.76885C18.9879 9.29806 19.0674 9.88497 18.9787 10.4585C18.89 11.032 18.6369 11.5674 18.25 12C18.1619 12.0988 18.0943 12.214 18.0511 12.3392C18.0079 12.4643 17.99 12.5967 17.9984 12.7288C18.0067 12.8609 18.0413 12.99 18.0999 13.1086C18.1585 13.2273 18.2402 13.3331 18.34 13.42C18.5223 13.5808 18.7569 13.6696 19 13.67C19.142 13.6698 19.2823 13.6394 19.4116 13.5808C19.541 13.5221 19.6563 13.4366 19.75 13.33C20.3675 12.6524 20.7869 11.8181 20.9622 10.9183C21.1376 10.0185 21.0622 9.0878 20.7443 8.22795C20.4263 7.3681 19.8781 6.61221 19.1596 6.04291C18.441 5.47362 17.5798 5.11282 16.67 4.99998Z" fill="#6C6C6C"/>
</svg>
