<svg width="24" height="24" viewBox="0 0 24 24" fill="none" xmlns="http://www.w3.org/2000/svg">
<path d="M16.9851 5.60069L5.60068 16.9851C5.22968 17.3561 5.22968 17.9576 5.60068 18.3286L5.67139 18.3993C6.04238 18.7703 6.64389 18.7703 7.01489 18.3993L18.3993 7.0149C18.7703 6.64391 18.7703 6.0424 18.3993 5.6714L18.3286 5.60069C17.9576 5.22969 17.3561 5.22969 16.9851 5.60069Z" fill="white"/>
<path d="M18.3993 16.985L7.01492 5.60058C6.64392 5.22959 6.04242 5.22959 5.67142 5.60058L5.60071 5.6713C5.22971 6.04229 5.22971 6.6438 5.60071 7.0148L16.9851 18.3992C17.3561 18.7702 17.9576 18.7702 18.3286 18.3992L18.3993 18.3285C18.7703 17.9575 18.7703 17.356 18.3993 16.985Z" fill="white"/>
</svg>
