<svg width="28" height="26" viewBox="0 0 28 26" fill="none" xmlns="http://www.w3.org/2000/svg">
<path d="M17.7733 3.27995L25.9067 18.736C26.3241 19.5346 26.478 20.4449 26.3462 21.3364C26.2144 22.2278 25.8037 23.0547 25.173 23.6984C24.5424 24.3421 23.7241 24.7695 22.8355 24.9195C21.9469 25.0695 21.0337 24.9343 20.2267 24.5333L15.9067 22.3733C15.3146 22.0775 14.6618 21.9236 14 21.9236C13.3382 21.9236 12.6854 22.0775 12.0933 22.3733L7.77333 24.5333C6.96605 24.9349 6.05228 25.0705 5.16316 24.9206C4.27403 24.7706 3.45527 24.3428 2.82439 23.6986C2.1935 23.0544 1.78292 22.2269 1.65158 21.3348C1.52024 20.4427 1.67489 19.532 2.09333 18.7333L10.2267 3.27995C10.5891 2.59329 11.132 2.01855 11.7969 1.61764C12.4619 1.21673 13.2236 1.00487 14 1.00487C14.7764 1.00487 15.5381 1.21673 16.2031 1.61764C16.868 2.01855 17.4109 2.59329 17.7733 3.27995Z" fill="white" stroke="white" stroke-width="1.5" stroke-linecap="round" stroke-linejoin="round"/>
</svg>
