<svg width="57" height="57" viewBox="0 0 57 57" fill="none" xmlns="http://www.w3.org/2000/svg">
<path d="M28.5 55.5833C33.8565 55.5833 39.0928 53.9949 43.5467 51.0189C48.0005 48.043 51.4718 43.8131 53.5217 38.8643C55.5716 33.9155 56.1079 28.4699 55.0629 23.2163C54.0179 17.9626 51.4384 13.1368 47.6508 9.34916C43.8631 5.56149 39.0373 2.98205 33.7837 1.93704C28.53 0.89202 23.0844 1.42836 18.1356 3.47823C13.1868 5.52811 8.95695 8.99945 5.98099 13.4533C3.00504 17.9071 1.41663 23.1434 1.41663 28.5C1.43735 35.6765 4.29742 42.5533 9.37204 47.6279C14.4467 52.7025 21.3234 55.5626 28.5 55.5833V55.5833Z" stroke="#292D32" stroke-width="1.5" stroke-linecap="round" stroke-linejoin="round"/>
<path d="M16.9895 28.5L24.6541 36.1646L40.0103 20.8354" stroke="#292D32" stroke-width="1.5" stroke-linecap="round" stroke-linejoin="round"/>
</svg>
