<svg width="24" height="24" viewBox="0 0 24 24" fill="none" xmlns="http://www.w3.org/2000/svg">
<path d="M21.27 9.17991C20.9877 8.73304 20.6805 8.30236 20.35 7.88991C20.2627 7.77876 20.1528 7.68738 20.0276 7.62179C19.9024 7.5562 19.7648 7.51788 19.6237 7.50938C19.4826 7.50088 19.3413 7.52237 19.2092 7.57245C19.077 7.62253 18.957 7.70005 18.857 7.79991L15.857 10.7999C16.0885 11.5156 16.1093 12.2827 15.917 13.0099C15.7383 13.709 15.3747 14.3472 14.8645 14.8574C14.3542 15.3677 13.7161 15.7312 13.017 15.9099C12.2898 16.1022 11.5226 16.0814 10.807 15.8499L8.34995 18.3089C8.2318 18.4255 8.14451 18.5696 8.09597 18.7283C8.04743 18.887 8.03916 19.0553 8.0719 19.2181C8.10464 19.3808 8.17736 19.5328 8.28352 19.6604C8.38967 19.788 8.52591 19.8871 8.67995 19.9489C9.73901 20.3582 10.8646 20.5684 12 20.5689C13.8022 20.5557 15.565 20.0397 17.09 19.0789C18.8123 17.9735 20.2591 16.489 21.32 14.7389C21.7795 13.8828 22.0159 12.9246 22.0072 11.953C21.9984 10.9814 21.7449 10.0276 21.27 9.17991Z" fill="#6C6C6C"/>
<path d="M14.02 9.97989L9.98001 14.0199C9.44704 13.482 9.14556 12.7571 9.14001 11.9999C9.1416 11.2419 9.44343 10.5153 9.97944 9.97932C10.5155 9.44331 11.242 9.14148 12 9.13989C12.7572 9.14544 13.4822 9.44692 14.02 9.97989Z" fill="#6C6C6C"/>
<path d="M18.25 5.74993L14.86 9.13993C14.486 8.76256 14.0403 8.46377 13.5492 8.26113C13.058 8.05849 12.5313 7.95608 12 7.95993C11.2011 7.96101 10.4204 8.19866 9.75632 8.64289C9.09229 9.08712 8.57467 9.71804 8.26876 10.4561C7.96285 11.1941 7.88234 12.0062 8.03739 12.79C8.19244 13.5737 8.57611 14.294 9.14 14.8599L5.76 18.2499H5.75C4.57452 17.2806 3.56172 16.1293 2.75 14.8399C2.2584 13.9723 2 12.9921 2 11.9949C2 10.9977 2.2584 10.0175 2.75 9.14993C3.80195 7.44584 5.2237 6.00017 6.91 4.91993C8.43691 3.96363 10.1984 3.44798 12 3.42993C14.2883 3.46041 16.496 4.2799 18.25 5.74993Z" fill="#6C6C6C"/>
<path d="M14.86 12C14.8584 12.758 14.5565 13.4845 14.0205 14.0205C13.4845 14.5565 12.758 14.8584 12 14.86C11.9426 14.8631 11.8851 14.8563 11.83 14.84L14.84 11.83C14.8563 11.8851 14.8631 11.9426 14.86 12Z" fill="#6C6C6C"/>
<path d="M21.7699 2.22994C21.6251 2.08595 21.4292 2.00513 21.2249 2.00513C21.0207 2.00513 20.8248 2.08595 20.6799 2.22994L2.22994 20.6899C2.08595 20.8348 2.00513 21.0307 2.00513 21.2349C2.00513 21.4392 2.08595 21.6351 2.22994 21.7799C2.37536 21.9194 2.5685 21.9981 2.76994 21.9999C2.87072 21.9994 2.97039 21.9788 3.06311 21.9393C3.15583 21.8998 3.23974 21.8423 3.30994 21.7699L21.7699 3.30494C21.8426 3.23556 21.9005 3.15216 21.94 3.05977C21.9796 2.96738 22 2.86794 22 2.76744C22 2.66695 21.9796 2.56751 21.94 2.47512C21.9005 2.38273 21.8426 2.29932 21.7699 2.22994Z" fill="#6C6C6C"/>
</svg>
