<svg width="20" height="15" viewBox="0 0 20 15" fill="none" xmlns="http://www.w3.org/2000/svg">
<path d="M17.1333 2.13704C17.2501 2.02115 17.3429 1.88334 17.4063 1.73151C17.4698 1.57968 17.5026 1.41682 17.5029 1.25228C17.5032 1.08773 17.4711 0.924747 17.4083 0.772666C17.3454 0.620585 17.2532 0.482405 17.1369 0.366055C17.0205 0.249706 16.8823 0.157476 16.7302 0.0946594C16.5782 0.0318426 16.4152 -0.000324887 16.2506 2.47366e-06C16.0861 0.000329834 15.9232 0.0331457 15.7714 0.0965672C15.6196 0.159989 15.4818 0.252767 15.3659 0.369579L14.4698 1.26566C13.1244 0.44162 11.5777 0.00482425 10 0.00337053C5.38358 0.00337053 2.56637 3.27466 0.210562 6.80962C0.073283 7.01478 0 7.25608 0 7.50293C0 7.74979 0.073283 7.99108 0.210562 8.19625C1.15256 9.66129 2.25756 11.0149 3.50442 12.231L2.86667 12.8688C2.74985 12.9847 2.65708 13.1225 2.59365 13.2743C2.53023 13.4261 2.49742 13.589 2.49709 13.7535C2.49676 13.9181 2.52893 14.0811 2.59175 14.2332C2.65456 14.3852 2.74679 14.5234 2.86314 14.6398C2.97949 14.7561 3.11767 14.8483 3.26975 14.9112C3.42183 14.974 3.58482 15.0061 3.74937 15.0058C3.91391 15.0055 4.07677 14.9727 4.2286 14.9093C4.38043 14.8458 4.51824 14.7531 4.63412 14.6362L17.1333 2.13704ZM2.7641 7.50291C5.27617 3.91793 7.34879 2.50322 10 2.50322C10.9132 2.50109 11.8152 2.70348 12.6399 3.09554L10.6414 5.094C10.4329 5.03388 10.217 5.00327 10 5.00306C9.3372 5.00371 8.70173 5.2673 8.23306 5.73597C7.76439 6.20464 7.5008 6.84011 7.50015 7.50291C7.50037 7.71992 7.53098 7.93583 7.59108 8.14435L5.27112 10.4643C4.33307 9.56862 3.49269 8.57593 2.7641 7.50291Z" fill="#4C7078"/>
<path d="M19.7894 6.8096C19.2846 6.05204 18.7517 5.31479 18.1913 4.6111L16.4109 6.39154C16.6819 6.73881 16.9553 7.10254 17.2359 7.50291C14.8284 10.9388 12.8189 12.3659 10.3224 12.48L8.03571 14.7667C8.67962 14.9184 9.33849 14.9974 10 15.0025C14.6164 15.0025 17.4336 11.7312 19.7894 8.1962C19.9267 7.99104 20 7.74975 20 7.5029C20 7.25605 19.9267 7.01476 19.7894 6.8096Z" fill="#4C7078"/>
</svg>
