<svg width="20" height="15" viewBox="0 0 20 15" fill="none" xmlns="http://www.w3.org/2000/svg">
<path d="M19.7903 6.80685C17.4331 3.27158 14.6156 0 10 0C5.38438 0 2.56692 3.27158 0.209672 6.80685C0.072948 7.01225 0 7.25348 0 7.50022C0 7.74697 0.072948 7.9882 0.209672 8.1936C2.56692 11.7289 5.38438 15.0004 10 15.0004C14.6156 15.0004 17.4331 11.7289 19.7903 8.1936C19.9271 7.9882 20 7.74697 20 7.50022C20 7.25348 19.9271 7.01225 19.7903 6.80685ZM10 12.5004C7.34733 12.5004 5.27696 11.0856 2.76346 7.50022C5.27696 3.91491 7.34733 2.50008 10 2.50008C12.6527 2.50008 14.723 3.91491 17.2365 7.50022C14.723 11.0856 12.6527 12.5004 10 12.5004Z" fill="#4C7078"/>
<path d="M10 5.00023C9.50555 5.00023 9.0222 5.14685 8.61107 5.42155C8.19995 5.69625 7.87952 6.0867 7.6903 6.54352C7.50108 7.00033 7.45157 7.503 7.54804 7.98795C7.6445 8.4729 7.8826 8.91836 8.23223 9.26799C8.58186 9.61762 9.02732 9.85572 9.51227 9.95219C9.99723 10.0486 10.4999 9.99914 10.9567 9.80992C11.4135 9.6207 11.804 9.30027 12.0787 8.88915C12.3534 8.47803 12.5 7.99468 12.5 7.50022C12.4991 6.83746 12.2354 6.20209 11.7668 5.73344C11.2981 5.26479 10.6628 5.00111 10 5.00023Z" fill="#4C7078"/>
</svg>
