<svg width="25" height="28" viewBox="0 0 25 28" fill="none" xmlns="http://www.w3.org/2000/svg">
<path d="M10.8455 0C9.06886 0 7.62858 1.44027 7.62858 3.21693C7.62858 4.99359 9.06886 6.43386 10.8455 6.43386C12.6222 6.43386 14.0624 4.99359 14.0624 3.21693C14.0624 1.44027 12.6222 0 10.8455 0ZM21.5822 5.81448C21.1236 4.41955 19.597 3.68582 18.2212 4.19905L16.1538 4.97025C15.9184 5.05812 15.7264 5.23446 15.6188 5.46174C14.7756 7.24398 12.9624 8.47356 10.8639 8.47356C8.77033 8.47356 6.96073 7.24971 6.115 5.47413C6.00725 5.24792 5.81574 5.07248 5.58097 4.98492L3.48485 4.20311C2.10204 3.68736 0.569017 4.43357 0.121864 5.84007C-0.285181 7.12043 0.357652 8.499 1.60011 9.0102L5.07884 10.4414C5.45368 10.5956 5.69836 10.9609 5.69836 11.3662V14.5792C5.69836 14.6903 5.67987 14.8005 5.64366 14.9054L3.16161 22.0985C2.70956 23.4086 3.40143 24.8377 4.70945 25.2955C6.00344 25.7486 7.42199 25.0827 7.90028 23.7978L9.53725 19.4004C9.56944 19.3139 9.58916 19.223 9.59805 19.1312C9.92596 15.7476 12.2699 12.9541 15.4136 11.9666C15.7492 11.8612 15.9925 11.559 15.9925 11.2072V11.2072C15.9925 10.8991 16.1788 10.6216 16.464 10.505L20.1042 9.01641C21.3609 8.50249 22.0063 7.10429 21.5822 5.81448ZM25 19.9478C25 23.8565 21.8315 27.025 17.9228 27.025C14.0141 27.025 10.8455 23.8565 10.8455 19.9478C10.8455 16.0391 14.0141 12.8705 17.9228 12.8705C21.8315 12.8705 25 16.0391 25 19.9478ZM22.2381 16.9192C21.9868 16.6681 21.5794 16.6681 21.3281 16.9192L17.3431 20.9043C16.9526 21.2949 16.3194 21.2948 15.9289 20.9043L14.5174 19.4928C14.2661 19.2416 13.8587 19.2416 13.6074 19.4928C13.3563 19.7441 13.3563 20.1515 13.6074 20.4028L16.181 22.9763C16.4323 23.2275 16.8397 23.2275 17.091 22.9763L22.2381 17.8293C22.4893 17.5779 22.4893 17.1706 22.2381 16.9192Z" fill="#3BB777"/>
</svg>
