<svg width="25" height="25" viewBox="0 0 25 25" fill="none" xmlns="http://www.w3.org/2000/svg">
<path d="M12.7991 5.36887e-06C11.0643 -0.000440729 9.35026 0.38617 7.77579 1.13301C6.20132 1.87985 4.80416 2.96904 3.68126 4.32501L2.02348 2.81251C1.84768 2.65439 1.63124 2.55147 1.39998 2.51601C1.16872 2.48055 0.932396 2.51405 0.719187 2.61251C0.50532 2.71109 0.32372 2.87084 0.196159 3.07259C0.0685973 3.27435 0.000489244 3.50955 0 3.75001V8.75001C0 9.08153 0.128426 9.39947 0.357025 9.63389C0.585625 9.86831 0.895672 10 1.21896 10H6.70428C6.94983 9.99926 7.18944 9.92249 7.39172 9.77974C7.594 9.63699 7.74952 9.43493 7.83792 9.2C7.92779 8.96194 7.94442 8.70137 7.88558 8.45332C7.82674 8.20527 7.69526 7.98165 7.5088 7.81251L5.49751 5.97501C6.39722 4.8857 7.51761 4.01053 8.78069 3.4104C10.0438 2.81027 11.4192 2.4996 12.8113 2.50001C14.599 2.49971 16.3523 3.00334 17.8797 3.95585C19.4072 4.90837 20.6499 6.27312 21.472 7.90094C22.2942 9.52876 22.6642 11.357 22.5416 13.1859C22.419 15.0148 21.8085 16.7739 20.7768 18.271C19.7451 19.7682 18.3319 20.9457 16.6918 21.6749C15.0516 22.4041 13.2475 22.6569 11.4767 22.4057C9.70589 22.1545 8.03647 21.409 6.65091 20.2506C5.26534 19.0922 4.21695 17.5656 3.62031 15.8375C3.51363 15.5242 3.28995 15.2672 2.99849 15.1231C2.70702 14.9789 2.37165 14.9594 2.06614 15.0688C1.76063 15.1782 1.51002 15.4075 1.36943 15.7064C1.22884 16.0053 1.20979 16.3492 1.31648 16.6625C2.06087 18.824 3.37055 20.734 5.10228 22.1835C6.83401 23.6331 8.92111 24.5664 11.1353 24.8814C13.3495 25.1964 15.6055 24.881 17.6567 23.9696C19.7078 23.0582 21.4751 21.586 22.7652 19.714C24.0553 17.8419 24.8185 15.6421 24.9714 13.3551C25.1244 11.0682 24.6611 8.78212 23.6323 6.747C22.6034 4.71189 21.0487 3.00607 19.1381 1.81611C17.2274 0.626154 15.0345 -0.00211888 12.7991 5.36887e-06Z" fill="#11414C"/>
<path d="M17.3702 17.5C17.1064 17.5 16.8498 17.4123 16.6388 17.25L11.763 13.5C11.6116 13.3836 11.4887 13.2326 11.4041 13.059C11.3194 12.8855 11.2754 12.6941 11.2754 12.5V7.50001C11.2754 7.16848 11.4038 6.85054 11.6324 6.61612C11.861 6.3817 12.1711 6.25001 12.4943 6.25001C12.8176 6.25001 13.1277 6.3817 13.3563 6.61612C13.5849 6.85054 13.7133 7.16848 13.7133 7.50001V11.875L18.1016 15.25C18.2296 15.3485 18.3375 15.4719 18.4191 15.6131C18.5006 15.7544 18.5543 15.9107 18.5769 16.0732C18.5995 16.2357 18.5907 16.4012 18.551 16.5602C18.5113 16.7192 18.4414 16.8687 18.3454 17C18.2318 17.1553 18.0846 17.2813 17.9153 17.368C17.7461 17.4548 17.5594 17.5 17.3702 17.5Z" fill="#11414C"/>
</svg>
