<svg width="24" height="25" viewBox="0 0 24 25" fill="none" xmlns="http://www.w3.org/2000/svg">
<path d="M9.67972 0.682826C10.7542 -0.223702 12.3257 -0.223702 13.4002 0.682826L22.0552 7.98447C22.705 8.53263 23.0799 9.33945 23.0799 10.1896V22.759C23.0799 23.9983 22.0753 25.0029 20.836 25.0029H16.9894C15.7501 25.0029 14.7455 23.9983 14.7455 22.759V16.348C14.7455 15.8169 14.3149 15.3863 13.7838 15.3863H9.29608C8.76497 15.3863 8.33441 15.8169 8.33441 16.348V22.759C8.33441 23.9983 7.3298 25.0029 6.09053 25.0029H2.24388C1.00462 25.0029 0 23.9983 0 22.759V10.1896C0 9.33945 0.374933 8.53263 1.0247 7.98447L9.67972 0.682826Z" fill="#11414C"/>
</svg>
