<svg width="24" height="24" viewBox="0 0 24 24" fill="none" xmlns="http://www.w3.org/2000/svg">
<path d="M8.76 1.73002H8.89C13.33 1.73002 15.47 3.48002 15.84 7.40002C15.8495 7.49857 15.8394 7.59802 15.8103 7.69266C15.7813 7.78729 15.7338 7.87524 15.6706 7.95145C15.6074 8.02766 15.5297 8.09062 15.4421 8.13671C15.3545 8.1828 15.2586 8.21112 15.16 8.22002C14.9617 8.23548 14.7653 8.17314 14.6122 8.0462C14.4591 7.91926 14.3615 7.73771 14.34 7.54002C14.05 4.40002 12.57 3.23002 8.88 3.23002H8.752C4.682 3.23002 3.242 4.67002 3.242 8.74002L3.242 15.26C3.242 19.33 4.682 20.77 8.752 20.77H8.882C12.592 20.77 14.072 19.58 14.342 16.38C14.3636 16.1832 14.4613 16.0027 14.6143 15.877C14.7672 15.7513 14.9633 15.6905 15.1605 15.7075C15.3577 15.7244 15.5405 15.8179 15.6697 15.9679C15.7989 16.1179 15.8644 16.3124 15.852 16.51C15.51 20.49 13.36 22.27 8.89 22.27H8.76C3.852 22.27 1.752 20.17 1.752 15.26L1.752 8.74002C1.752 3.83002 3.852 1.73002 8.76 1.73002Z" fill="#D3D3D3"/>
<path d="M9 11.25L20.38 11.25C20.5785 11.2513 20.7685 11.3307 20.9089 11.4711C21.0493 11.6115 21.1287 11.8015 21.13 12C21.1287 12.1985 21.0493 12.3885 20.9089 12.5289C20.7685 12.6693 20.5785 12.7487 20.38 12.75L9 12.75C8.8015 12.7487 8.61149 12.6693 8.47112 12.5289C8.33075 12.3885 8.25132 12.1985 8.25 12C8.25132 11.8015 8.33075 11.6115 8.47112 11.4711C8.61149 11.3307 8.8015 11.2513 9 11.25Z" fill="#D3D3D3"/>
<path d="M18.147 7.89801C18.2455 7.89765 18.3431 7.91693 18.4341 7.9547C18.5251 7.99247 18.6077 8.04799 18.677 8.11801L22.029 11.47C22.1685 11.6111 22.2467 11.8016 22.2467 12C22.2467 12.1984 22.1685 12.3889 22.029 12.53L18.679 15.88C18.5368 16.0125 18.3488 16.0846 18.1545 16.0812C17.9602 16.0778 17.7748 15.999 17.6374 15.8616C17.5 15.7242 17.4213 15.5388 17.4178 15.3445C17.4144 15.1502 17.4865 14.9622 17.619 14.82L20.44 11.998L17.62 9.17801C17.4805 9.03687 17.4023 8.84644 17.4023 8.64801C17.4023 8.44958 17.4805 8.25914 17.62 8.11801C17.6884 8.04757 17.7703 7.99175 17.8609 7.95393C17.9515 7.91612 18.0488 7.89709 18.147 7.89801Z" fill="#D3D3D3"/>
</svg>
