<svg width="24" height="23" viewBox="0 0 24 23" fill="none" xmlns="http://www.w3.org/2000/svg">
<path d="M17.3333 1C17.3333 0.44772 16.8856 0 16.3333 0H7.66667L7.53097 0.00913334C7.04287 0.0753467 6.66667 0.493733 6.66667 1V5.33333H4.33333C1.94009 5.33333 0 7.27343 0 9.66667V18.3333C0 20.7265 1.94009 22.6667 4.33333 22.6667H19.6667C22.0599 22.6667 24 20.7265 24 18.3333V9.66667C24 7.27343 22.0599 5.33333 19.6667 5.33333H17.3333V1ZM8.66667 2H15.3333V5.33333H8.66667V2ZM11.3333 17V14.6667H9C8.44772 14.6667 8 14.2189 8 13.6667C8 13.1144 8.44772 12.6667 9 12.6667H11.3333V10.3333C11.3333 9.78107 11.7811 9.33333 12.3333 9.33333C12.8856 9.33333 13.3333 9.78107 13.3333 10.3333V12.6667H15.6667C16.2189 12.6667 16.6667 13.1144 16.6667 13.6667C16.6667 14.2189 16.2189 14.6667 15.6667 14.6667H13.3333V17C13.3333 17.5523 12.8856 18 12.3333 18C11.7811 18 11.3333 17.5523 11.3333 17Z" fill="#11414C"/>
</svg>
