<svg width="18" height="18" viewBox="0 0 18 18" fill="none" xmlns="http://www.w3.org/2000/svg">
<path d="M9 0C8.60444 0 8.21776 0.117298 7.88886 0.337061C7.55996 0.556824 7.30362 0.869181 7.15224 1.23463C7.00087 1.60009 6.96126 2.00222 7.03843 2.39018C7.1156 2.77814 7.30608 3.13451 7.58579 3.41421C7.86549 3.69392 8.22186 3.8844 8.60982 3.96157C8.99778 4.03874 9.39992 3.99913 9.76537 3.84776C10.1308 3.69638 10.4432 3.44004 10.6629 3.11114C10.8827 2.78224 11 2.39556 11 2C11 1.46957 10.7893 0.96086 10.4142 0.585787C10.0391 0.210714 9.53043 0 9 0ZM2 0C1.60444 0 1.21776 0.117298 0.888861 0.337061C0.559963 0.556824 0.303617 0.869181 0.152242 1.23463C0.000866562 1.60009 -0.0387401 2.00222 0.0384303 2.39018C0.115601 2.77814 0.306082 3.13451 0.585787 3.41421C0.865492 3.69392 1.22186 3.8844 1.60982 3.96157C1.99778 4.03874 2.39992 3.99913 2.76537 3.84776C3.13082 3.69638 3.44318 3.44004 3.66294 3.11114C3.8827 2.78224 4 2.39556 4 2C4 1.46957 3.78929 0.96086 3.41422 0.585787C3.03914 0.210714 2.53043 0 2 0ZM16 0C15.6044 0 15.2178 0.117298 14.8889 0.337061C14.56 0.556824 14.3036 0.869181 14.1522 1.23463C14.0009 1.60009 13.9613 2.00222 14.0384 2.39018C14.1156 2.77814 14.3061 3.13451 14.5858 3.41421C14.8655 3.69392 15.2219 3.8844 15.6098 3.96157C15.9978 4.03874 16.3999 3.99913 16.7654 3.84776C17.1308 3.69638 17.4432 3.44004 17.6629 3.11114C17.8827 2.78224 18 2.39556 18 2C18 1.46957 17.7893 0.96086 17.4142 0.585787C17.0391 0.210714 16.5304 0 16 0Z" fill="#11414C"/>
<path d="M9 7C8.60444 7 8.21776 7.1173 7.88886 7.33706C7.55996 7.55682 7.30362 7.86918 7.15224 8.23463C7.00087 8.60009 6.96126 9.00222 7.03843 9.39018C7.1156 9.77814 7.30608 10.1345 7.58579 10.4142C7.86549 10.6939 8.22186 10.8844 8.60982 10.9616C8.99778 11.0387 9.39992 10.9991 9.76537 10.8478C10.1308 10.6964 10.4432 10.44 10.6629 10.1111C10.8827 9.78224 11 9.39556 11 9C11 8.46957 10.7893 7.96086 10.4142 7.58579C10.0391 7.21071 9.53043 7 9 7ZM2 7C1.60444 7 1.21776 7.1173 0.888861 7.33706C0.559963 7.55682 0.303617 7.86918 0.152242 8.23463C0.000866562 8.60009 -0.0387401 9.00222 0.0384303 9.39018C0.115601 9.77814 0.306082 10.1345 0.585787 10.4142C0.865492 10.6939 1.22186 10.8844 1.60982 10.9616C1.99778 11.0387 2.39992 10.9991 2.76537 10.8478C3.13082 10.6964 3.44318 10.44 3.66294 10.1111C3.8827 9.78224 4 9.39556 4 9C4 8.46957 3.78929 7.96086 3.41422 7.58579C3.03914 7.21071 2.53043 7 2 7ZM16 7C15.6044 7 15.2178 7.1173 14.8889 7.33706C14.56 7.55682 14.3036 7.86918 14.1522 8.23463C14.0009 8.60009 13.9613 9.00222 14.0384 9.39018C14.1156 9.77814 14.3061 10.1345 14.5858 10.4142C14.8655 10.6939 15.2219 10.8844 15.6098 10.9616C15.9978 11.0387 16.3999 10.9991 16.7654 10.8478C17.1308 10.6964 17.4432 10.44 17.6629 10.1111C17.8827 9.78224 18 9.39556 18 9C18 8.46957 17.7893 7.96086 17.4142 7.58579C17.0391 7.21071 16.5304 7 16 7Z" fill="#11414C"/>
<path d="M9 14C8.60444 14 8.21776 14.1173 7.88886 14.3371C7.55996 14.5568 7.30362 14.8692 7.15224 15.2346C7.00087 15.6001 6.96126 16.0022 7.03843 16.3902C7.1156 16.7781 7.30608 17.1345 7.58579 17.4142C7.86549 17.6939 8.22186 17.8844 8.60982 17.9616C8.99778 18.0387 9.39992 17.9991 9.76537 17.8478C10.1308 17.6964 10.4432 17.44 10.6629 17.1111C10.8827 16.7822 11 16.3956 11 16C11 15.4696 10.7893 14.9609 10.4142 14.5858C10.0391 14.2107 9.53043 14 9 14ZM2 14C1.60444 14 1.21776 14.1173 0.888861 14.3371C0.559963 14.5568 0.303617 14.8692 0.152242 15.2346C0.000866562 15.6001 -0.0387401 16.0022 0.0384303 16.3902C0.115601 16.7781 0.306082 17.1345 0.585787 17.4142C0.865492 17.6939 1.22186 17.8844 1.60982 17.9616C1.99778 18.0387 2.39992 17.9991 2.76537 17.8478C3.13082 17.6964 3.44318 17.44 3.66294 17.1111C3.8827 16.7822 4 16.3956 4 16C4 15.4696 3.78929 14.9609 3.41422 14.5858C3.03914 14.2107 2.53043 14 2 14ZM16 14C15.6044 14 15.2178 14.1173 14.8889 14.3371C14.56 14.5568 14.3036 14.8692 14.1522 15.2346C14.0009 15.6001 13.9613 16.0022 14.0384 16.3902C14.1156 16.7781 14.3061 17.1345 14.5858 17.4142C14.8655 17.6939 15.2219 17.8844 15.6098 17.9616C15.9978 18.0387 16.3999 17.9991 16.7654 17.8478C17.1308 17.6964 17.4432 17.44 17.6629 17.1111C17.8827 16.7822 18 16.3956 18 16C18 15.4696 17.7893 14.9609 17.4142 14.5858C17.0391 14.2107 16.5304 14 16 14Z" fill="#11414C"/>
</svg>
