<svg width="24" height="24" viewBox="0 0 24 24" fill="none" xmlns="http://www.w3.org/2000/svg">
<path d="M9.15993 10.8701C9.05015 10.8601 8.9397 10.8601 8.82993 10.8701C7.66613 10.8269 6.56579 10.3286 5.76554 9.48251C4.9653 8.63641 4.52907 7.51004 4.55069 6.34564C4.57231 5.18124 5.05005 4.07184 5.88115 3.25603C6.71225 2.44021 7.83033 1.98315 8.99493 1.98315C10.1595 1.98315 11.2776 2.44021 12.1087 3.25603C12.9398 4.07184 13.4175 5.18124 13.4392 6.34564C13.4608 7.51004 13.0246 8.63641 12.2243 9.48251C11.4241 10.3286 10.3237 10.8269 9.15993 10.8701V10.8701Z" stroke="#D3D3D3" stroke-width="1.5" stroke-linecap="round" stroke-linejoin="round"/>
<path d="M16.41 4C17.3383 4 18.2285 4.36875 18.8849 5.02513C19.5413 5.6815 19.91 6.57174 19.91 7.5C19.9107 8.40617 19.5598 9.27726 18.9313 9.93002C18.3028 10.5828 17.4456 10.9663 16.54 11C16.4537 10.99 16.3664 10.99 16.28 11" stroke="#D3D3D3" stroke-width="1.5" stroke-linecap="round" stroke-linejoin="round"/>
<path d="M4.15997 14.5612C1.73997 16.1812 1.73997 18.8212 4.15997 20.4312C5.67323 21.3344 7.40268 21.8112 9.16497 21.8112C10.9273 21.8112 12.6567 21.3344 14.17 20.4312C16.59 18.8112 16.59 16.1712 14.17 14.5612C12.6551 13.6628 10.9262 13.1887 9.16497 13.1887C7.40369 13.1887 5.67488 13.6628 4.15997 14.5612V14.5612Z" stroke="#D3D3D3" stroke-width="1.5" stroke-linecap="round" stroke-linejoin="round"/>
<path d="M18.34 20C19.0502 19.8603 19.72 19.563 20.3 19.13C20.6586 18.901 20.9538 18.5854 21.1583 18.2123C21.3627 17.8391 21.4699 17.4205 21.4699 16.995C21.4699 16.5695 21.3627 16.1509 21.1583 15.7777C20.9538 15.4046 20.6586 15.089 20.3 14.86C19.7257 14.4384 19.0675 14.1451 18.37 14" stroke="#D3D3D3" stroke-width="1.5" stroke-linecap="round" stroke-linejoin="round"/>
</svg>
