<svg width="32" height="32" viewBox="0 0 32 32" fill="none" xmlns="http://www.w3.org/2000/svg">
<rect x="1" y="1" width="30" height="30" rx="15" stroke="url(#paint0_linear_129_506)" stroke-width="2"/>
<path d="M20.255 15.4735C20.246 15.466 20.234 15.463 20.225 15.4555L14.4399 10.2194C14.1144 9.92688 13.5865 9.92688 13.261 10.2194C13.258 10.2224 13.2565 10.2254 13.255 10.2284C13.1762 10.2934 13.1125 10.3749 13.0685 10.4672C13.0244 10.5594 13.0011 10.6601 13 10.7623V21.2361C13.0017 21.3402 13.0262 21.4426 13.0718 21.5362C13.1174 21.6297 13.183 21.7121 13.264 21.7776L13.261 21.7806C13.4247 21.9221 13.634 22 13.8504 22C14.0669 22 14.2761 21.9221 14.4399 21.7806L20.255 16.5324C20.3316 16.4671 20.3931 16.3859 20.4353 16.2945C20.4774 16.2031 20.4993 16.1036 20.4993 16.003C20.4993 15.9023 20.4774 15.8028 20.4353 15.7114C20.3931 15.62 20.3316 15.5388 20.255 15.4735Z" fill="url(#paint1_linear_129_506)"/>
<defs>
<linearGradient id="paint0_linear_129_506" x1="16" y1="0" x2="16" y2="32" gradientUnits="userSpaceOnUse">
<stop stop-color="#11414C"/>
<stop offset="1" stop-color="#229857"/>
</linearGradient>
<linearGradient id="paint1_linear_129_506" x1="13" y1="16" x2="20.4993" y2="16" gradientUnits="userSpaceOnUse">
<stop stop-color="#11414C"/>
<stop offset="1" stop-color="#229857"/>
</linearGradient>
</defs>
</svg>
