<svg width="24" height="24" viewBox="0 0 24 24" fill="none" xmlns="http://www.w3.org/2000/svg">
<path d="M12.02 20.5299C9.68517 20.5324 7.36527 20.1575 5.15 19.4199C4.75161 19.2946 4.38652 19.0813 4.08185 18.7956C3.77717 18.51 3.54071 18.1594 3.39 17.7699C3.24887 17.3792 3.19981 16.9611 3.24664 16.5483C3.29347 16.1355 3.43493 15.7391 3.66 15.3899L4.81 13.4799C5.08204 12.963 5.23897 12.3933 5.27 11.8099V8.91992C5.27 7.12971 5.98116 5.41282 7.24703 4.14695C8.5129 2.88108 10.2298 2.16992 12.02 2.16992C13.8102 2.16992 15.5271 2.88108 16.793 4.14695C18.0588 5.41282 18.77 7.12971 18.77 8.91992V11.8099C18.8027 12.3958 18.9584 12.9682 19.227 13.4899L20.367 15.3899C20.5792 15.745 20.7091 16.1431 20.7471 16.555C20.7852 16.9668 20.7305 17.382 20.587 17.7699C20.4454 18.1564 20.2179 18.5057 19.9217 18.7915C19.6255 19.0773 19.2683 19.2922 18.877 19.4199C16.6663 20.158 14.3506 20.5328 12.02 20.5299ZM12.02 3.66992C10.6281 3.67151 9.29367 4.22514 8.30945 5.20937C7.32523 6.19359 6.77159 7.52802 6.77 8.91992V11.8099C6.73435 12.6635 6.50526 13.4978 6.1 14.2499L4.95 16.1599C4.84302 16.3179 4.77384 16.4984 4.74783 16.6874C4.72182 16.8764 4.73967 17.0689 4.8 17.2499C4.87284 17.4283 4.98549 17.5878 5.12933 17.716C5.27318 17.8443 5.44443 17.9379 5.63 17.9899C9.77841 19.3899 14.2716 19.3899 18.42 17.9899C18.5971 17.9319 18.7585 17.8342 18.892 17.7042C19.0254 17.5742 19.1274 17.4154 19.19 17.2399C19.2558 17.064 19.281 16.8755 19.2637 16.6885C19.2464 16.5014 19.187 16.3208 19.09 16.1599L17.94 14.2499C17.5326 13.4951 17.3034 12.657 17.27 11.7999V8.91992C17.2701 8.23044 17.1344 7.5477 16.8706 6.91068C16.6068 6.27366 16.2201 5.69485 15.7326 5.20732C15.2451 4.71978 14.6663 4.33308 14.0292 4.06929C13.3922 3.8055 12.7095 3.66979 12.02 3.66992Z" fill="#949699"/>
<path d="M13.88 3.94C13.8089 3.93986 13.7383 3.92976 13.67 3.91C13.3939 3.83298 13.1134 3.77286 12.83 3.73C12.0131 3.61726 11.1815 3.6786 10.39 3.91C10.2555 3.95174 10.1119 3.95443 9.97588 3.91777C9.83989 3.88111 9.7171 3.8066 9.62178 3.70291C9.52647 3.59921 9.46255 3.47059 9.43745 3.332C9.41235 3.19341 9.4271 3.05054 9.48 2.92C9.67879 2.40684 10.0284 1.96592 10.4827 1.65532C10.937 1.34472 11.4747 1.179 12.025 1.18C12.5766 1.17603 13.1163 1.34049 13.572 1.65141C14.0276 1.96234 14.3776 2.40491 14.575 2.92C14.6253 3.05037 14.6389 3.19205 14.6142 3.3296C14.5895 3.46715 14.5275 3.59528 14.435 3.7C14.3634 3.77525 14.2773 3.83528 14.1819 3.87652C14.0866 3.91776 13.9839 3.93935 13.88 3.94Z" fill="#949699"/>
<path d="M12.02 22.8101C11.0261 22.8077 10.0735 22.4122 9.37002 21.7101C8.66785 21.0066 8.27242 20.054 8.27002 19.0601H9.77002C9.77218 19.6563 10.0093 20.2276 10.43 20.6501C10.8525 21.0708 11.4238 21.3079 12.02 21.3101C12.6165 21.3093 13.1883 21.072 13.6101 20.6502C14.0319 20.2284 14.2692 19.6566 14.27 19.0601H15.77C15.7698 20.0545 15.3746 21.0082 14.6714 21.7114C13.9682 22.4146 13.0145 22.8098 12.02 22.8101Z" fill="#949699"/>
</svg>
