<svg width="24" height="24" viewBox="0 0 24 24" fill="none" xmlns="http://www.w3.org/2000/svg">
<path opacity="0.4" d="M21.75 6.72998C21.75 6.63151 21.7305 6.53402 21.6928 6.44307C21.655 6.35213 21.5997 6.26952 21.53 6.19998L17.81 2.47998C17.6678 2.3475 17.4798 2.27538 17.2855 2.2788C17.0912 2.28223 16.9058 2.36094 16.7684 2.49836C16.631 2.63577 16.5523 2.82115 16.5488 3.01546C16.5454 3.20976 16.6175 3.3978 16.75 3.53998L19.2 5.98998H3C2.80109 5.98998 2.61032 6.069 2.46967 6.20965C2.32902 6.3503 2.25 6.54107 2.25 6.73998C2.25 6.93889 2.32902 7.12966 2.46967 7.27031C2.61032 7.41096 2.80109 7.48998 3 7.48998H19.19L16.75 9.92998C16.6105 10.0711 16.5323 10.2615 16.5323 10.46C16.5323 10.6584 16.6105 10.8488 16.75 10.99C16.8195 11.0598 16.9021 11.1151 16.993 11.1529C17.084 11.1907 17.1815 11.2101 17.28 11.2101C17.3785 11.2101 17.476 11.1907 17.567 11.1529C17.6579 11.1151 17.7405 11.0598 17.81 10.99L21.52 7.27998C21.5935 7.20555 21.6513 7.11714 21.69 7.01998C21.6893 7.01455 21.6899 7.00904 21.6916 7.00386C21.6934 6.99867 21.6962 6.99393 21.7 6.98998C21.731 6.90669 21.7479 6.81882 21.75 6.72998Z" fill="#D3D3D3"/>
<path d="M21 16.519H4.80998L7.24998 14.079C7.37974 13.9364 7.44958 13.7492 7.44498 13.5564C7.44038 13.3637 7.3617 13.1801 7.22527 13.0438C7.08885 12.9075 6.90517 12.829 6.71238 12.8245C6.51959 12.8201 6.3325 12.8901 6.18998 13.02L2.47998 16.729C2.40649 16.8035 2.34869 16.8919 2.30998 16.989C2.31063 16.9945 2.31007 17 2.30834 17.0052C2.30661 17.0103 2.30376 17.0151 2.29998 17.019C2.24777 17.1529 2.23606 17.2991 2.26628 17.4396C2.29651 17.58 2.36734 17.7085 2.46998 17.809L6.18998 21.529C6.25948 21.5988 6.34207 21.6542 6.43302 21.692C6.52397 21.7298 6.62149 21.7492 6.71998 21.7492C6.81846 21.7492 6.91598 21.7298 7.00693 21.692C7.09789 21.6542 7.18048 21.5988 7.24998 21.529C7.38922 21.3878 7.46727 21.1974 7.46727 20.999C7.46727 20.8007 7.38922 20.6103 7.24998 20.469L4.79998 18.02H21C21.1989 18.02 21.3897 17.941 21.5303 17.8004C21.671 17.6597 21.75 17.4689 21.75 17.27C21.75 17.0711 21.671 16.8804 21.5303 16.7397C21.3897 16.5991 21.1989 16.52 21 16.52V16.519Z" fill="#D3D3D3"/>
</svg>
