<svg width="32" height="32" viewBox="0 0 32 32" fill="none" xmlns="http://www.w3.org/2000/svg">
<rect x="-1" y="1" width="30" height="30" rx="15" transform="matrix(-1 0 0 1 30 0)" stroke="url(#paint0_linear_129_509)" stroke-width="2"/>
<path d="M11.745 15.4735C11.754 15.466 11.766 15.463 11.775 15.4555L17.5601 10.2194C17.8856 9.92688 18.4135 9.92688 18.739 10.2194C18.742 10.2224 18.7435 10.2254 18.745 10.2284C18.8238 10.2934 18.8875 10.3749 18.9315 10.4672C18.9756 10.5594 18.9989 10.6601 19 10.7623L19 21.2361C18.9983 21.3402 18.9738 21.4426 18.9282 21.5362C18.8826 21.6297 18.817 21.7121 18.736 21.7776L18.739 21.7806C18.5753 21.9221 18.366 22 18.1496 22C17.9331 22 17.7239 21.9221 17.5601 21.7806L11.745 16.5324C11.6684 16.4671 11.6069 16.3859 11.5647 16.2945C11.5226 16.2031 11.5007 16.1036 11.5007 16.003C11.5007 15.9023 11.5226 15.8028 11.5647 15.7114C11.6069 15.62 11.6684 15.5388 11.745 15.4735Z" fill="url(#paint1_linear_129_509)"/>
<defs>
<linearGradient id="paint0_linear_129_509" x1="16" y1="0" x2="16" y2="32" gradientUnits="userSpaceOnUse">
<stop stop-color="#11414C"/>
<stop offset="1" stop-color="#229857"/>
</linearGradient>
<linearGradient id="paint1_linear_129_509" x1="19" y1="16" x2="11.5007" y2="16" gradientUnits="userSpaceOnUse">
<stop stop-color="#11414C"/>
<stop offset="1" stop-color="#229857"/>
</linearGradient>
</defs>
</svg>
