<svg width="25" height="23" viewBox="0 0 25 23" fill="none" xmlns="http://www.w3.org/2000/svg">
<path d="M3.04166 6.25C1.9371 6.25 1.04167 7.14543 1.04167 8.25V20.8333C1.04167 21.9844 1.97396 22.9167 3.125 22.9167H21.875C23.026 22.9167 23.9583 21.9844 23.9583 20.8333V8.25C23.9583 7.14543 23.0629 6.25 21.9583 6.25H3.04166ZM15.625 11.4583H9.375C8.8 11.4583 8.33333 10.9917 8.33333 10.4167C8.33333 9.84167 8.8 9.375 9.375 9.375H15.625C16.2 9.375 16.6667 9.84167 16.6667 10.4167C16.6667 10.9917 16.2 11.4583 15.625 11.4583Z" fill="#11414C"/>
<path d="M23 4.16667C24.1046 4.16667 25 3.27124 25 2.16667V2.08333C25 0.932292 24.0677 0 22.9167 0H2.08333C0.932292 0 0 0.932292 0 2.08333V2.16667C0 3.27124 0.89543 4.16667 2 4.16667H23Z" fill="#11414C"/>
</svg>
