<svg width="22" height="25" viewBox="0 0 22 25" fill="none" xmlns="http://www.w3.org/2000/svg">
<path d="M4.50938 6.10836C4.50938 2.74071 7.25009 0 10.6177 0C13.9854 0 16.7261 2.74071 16.7261 6.10836C16.7261 9.47602 13.9854 12.2167 10.6177 12.2167C7.25009 12.2167 4.50938 9.47602 4.50938 6.10836Z" fill="#11414C"/>
<path d="M21.2355 19.5042V24.0826C21.2355 24.5888 20.8242 25 20.3181 25H0.917405C0.41125 25 0 24.5888 0 24.0826V19.5042C0 17.7988 0.664328 16.1941 1.86932 14.9862C3.07719 13.7783 4.67905 13.114 6.38732 13.1111C6.46271 13.1111 6.53756 13.1312 6.60301 13.1686C7.81951 13.8617 9.20856 14.2298 10.6177 14.2298C12.0269 14.2298 13.416 13.8617 14.6325 13.1686C14.6979 13.1312 14.7728 13.1111 14.8482 13.1111C16.5535 13.1111 18.1583 13.7783 19.3662 14.9862C20.5711 16.1941 21.2355 17.7988 21.2355 19.5042Z" fill="#11414C"/>
</svg>
