<svg width="24" height="24" viewBox="0 0 24 24" fill="none" xmlns="http://www.w3.org/2000/svg">
<path d="M2 9V6.5C1.99921 5.90883 2.11506 5.32332 2.34093 4.77699C2.5668 4.23067 2.89823 3.73428 3.31625 3.31626C3.73428 2.89824 4.23067 2.5668 4.77699 2.34094C5.32331 2.11507 5.90883 1.99921 6.5 2H9" stroke="white" stroke-width="1.5" stroke-linecap="round" stroke-linejoin="round"/>
<path d="M15 2H17.5C18.0912 1.99921 18.6767 2.11507 19.223 2.34094C19.7693 2.5668 20.2657 2.89824 20.6837 3.31626C21.1018 3.73428 21.4332 4.23067 21.6591 4.77699C21.8849 5.32332 22.0008 5.90883 22 6.5V9" stroke="white" stroke-width="1.5" stroke-linecap="round" stroke-linejoin="round"/>
<path d="M22 16V17.5C22.0008 18.0912 21.8849 18.6767 21.6591 19.223C21.4332 19.7693 21.1018 20.2657 20.6837 20.6837C20.2657 21.1018 19.7693 21.4332 19.223 21.6591C18.6767 21.8849 18.0912 22.0008 17.5 22H16" stroke="white" stroke-width="1.5" stroke-linecap="round" stroke-linejoin="round"/>
<path d="M9 22H6.5C5.90883 22.0008 5.32331 21.8849 4.77699 21.6591C4.23067 21.4332 3.73428 21.1018 3.31625 20.6837C2.89823 20.2657 2.5668 19.7693 2.34093 19.223C2.11506 18.6767 1.99921 18.0912 2 17.5V15" stroke="white" stroke-width="1.5" stroke-linecap="round" stroke-linejoin="round"/>
<g opacity="0.4">
<path d="M17 9.49998V14.5C17.0581 14.9075 17.0206 15.3229 16.8904 15.7134C16.7602 16.1039 16.5409 16.4587 16.2498 16.7498C15.9588 17.0409 15.6039 17.2602 15.2134 17.3904C14.8229 17.5206 14.4075 17.5581 14 17.5H10C9.5925 17.5581 9.17705 17.5206 8.78656 17.3904C8.39606 17.2602 8.04123 17.0409 7.75016 16.7498C7.4591 16.4587 7.23978 16.1039 7.10958 15.7134C6.97937 15.3229 6.94186 14.9075 7 14.5V9.49998C6.94186 9.09247 6.97937 8.67703 7.10958 8.28653C7.23978 7.89604 7.4591 7.54121 7.75016 7.25014C8.04123 6.95907 8.39606 6.73976 8.78656 6.60955C9.17705 6.47935 9.5925 6.44184 10 6.49998H14C14.4075 6.44184 14.8229 6.47935 15.2134 6.60955C15.6039 6.73976 15.9588 6.95907 16.2498 7.25014C16.5409 7.54121 16.7602 7.89604 16.8904 8.28653C17.0206 8.67703 17.0581 9.09247 17 9.49998V9.49998Z" stroke="white" stroke-width="1.5" stroke-linecap="round" stroke-linejoin="round"/>
<path d="M19 12H5" stroke="white" stroke-width="1.5" stroke-linecap="round" stroke-linejoin="round"/>
</g>
</svg>
