<svg width="32" height="24" viewBox="0 0 32 24" fill="none" xmlns="http://www.w3.org/2000/svg">
<path d="M1 5.28571V5C1 2.79086 2.79086 1 5 1H5.28571M31 5.28571V5C31 2.79086 29.2091 1 27 1H26.7143M1 18.1429V18.4286C1 20.6377 2.79086 22.4286 5 22.4286H5.28571M31 18.1429V18.4286C31 20.6377 29.2091 22.4286 27 22.4286H26.7143M5.28571 4.21429V10.6429M10.6429 4.21429V10.6429M26.7143 4.21429V10.6429M21.3571 4.21429V10.6429M16 4.21429V10.6429M1 13.8571H31M5.28571 17.0714V19.2143M10.6429 17.0714V18.1429M26.7143 17.0714V19.2143M21.3571 17.0714V18.1429M16 17.0714V18.1429" stroke="#11414C" stroke-width="2" stroke-miterlimit="10" stroke-linecap="round" stroke-linejoin="round"/>
</svg>
