<svg width="22" height="22" viewBox="0 0 22 22" fill="none" xmlns="http://www.w3.org/2000/svg">
<path d="M20 10.5C20 12.3789 19.4428 14.2157 18.399 15.7779C17.3551 17.3402 15.8714 18.5578 14.1355 19.2769C12.3996 19.9959 10.4895 20.184 8.64665 19.8175C6.80383 19.4509 5.11109 18.5461 3.78249 17.2175C2.45389 15.8889 1.5491 14.1962 1.18254 12.3534C0.815985 10.5105 1.00412 8.60041 1.72315 6.86451C2.44218 5.12861 3.65982 3.64491 5.22209 2.60104C6.78435 1.55717 8.62108 1 10.5 1C13.0196 1 15.4359 2.00089 17.2175 3.78249C18.9991 5.56408 20 7.98044 20 10.5V10.5Z" stroke="white" stroke-width="1.5" stroke-linecap="round" stroke-linejoin="round"/>
<path d="M21 21L17.5 17.5" stroke="white" stroke-width="1.5" stroke-linecap="round" stroke-linejoin="round"/>
</svg>
