<svg width="25" height="27" viewBox="0 0 25 27" fill="none" xmlns="http://www.w3.org/2000/svg">
<path d="M23.5598 15.3867L23.0551 15.0951C22.4545 14.7487 22.0956 14.1269 22.0956 13.4332C22.0956 12.7395 22.4545 12.1177 23.0551 11.7713L23.5598 11.4796C24.9377 10.6832 25.4088 8.92539 24.6134 7.54753L23.6539 5.88565C22.8603 4.51067 21.0958 4.03859 19.7218 4.83211L19.2171 5.12284C18.6164 5.47018 17.8977 5.47018 17.298 5.12284C16.6974 4.7755 16.3385 4.15469 16.3385 3.46096V2.87854C16.3385 1.2915 15.047 0 13.46 0H11.541C9.95393 0 8.66243 1.2915 8.66243 2.87854V3.46192C8.66243 4.15565 8.30357 4.77645 7.70292 5.1238C7.10226 5.47018 6.38454 5.47114 5.78389 5.1238L5.27919 4.83211C3.90516 4.03859 2.14062 4.51067 1.34614 5.88565L0.386629 7.54753C-0.408807 8.92539 0.0623142 10.6842 1.44017 11.4796L1.94584 11.7713C2.54649 12.1177 2.90535 12.7395 2.90535 13.4332C2.90535 14.1269 2.54649 14.7487 1.94584 15.0951L1.44113 15.3867C0.0632736 16.1822 -0.407847 17.941 0.387589 19.3188L1.3471 20.9807C2.14158 22.3557 3.90612 22.8278 5.27919 22.0343L5.78389 21.7435C6.38454 21.3952 7.10226 21.3971 7.70292 21.7435C8.30357 22.0909 8.66243 22.7117 8.66243 23.4054V23.9878C8.66243 25.5749 9.95393 26.8664 11.541 26.8664H13.46C15.047 26.8664 16.3385 25.5749 16.3385 23.9878V23.4044C16.3385 22.7107 16.6974 22.0899 17.298 21.7426C17.8977 21.3962 18.6164 21.3952 19.2171 21.7426L19.7218 22.0343C21.0958 22.8268 22.8603 22.3547 23.6539 20.9807L24.6134 19.3188C25.4088 17.941 24.9377 16.1822 23.5598 15.3867ZM12.5005 18.2307C9.8551 18.2307 7.70292 16.0786 7.70292 13.4332C7.70292 10.7878 9.8551 8.63562 12.5005 8.63562C15.1459 8.63562 17.298 10.7878 17.298 13.4332C17.298 16.0786 15.1459 18.2307 12.5005 18.2307Z" fill="#11414C"/>
</svg>
