<svg width="24" height="24" viewBox="0 0 24 24" fill="none" xmlns="http://www.w3.org/2000/svg">
<path d="M11.75 15.9349C11.0083 15.9349 10.2833 15.715 9.66661 15.3029C9.04993 14.8909 8.56928 14.3052 8.28545 13.62C8.00163 12.9348 7.92736 12.1808 8.07206 11.4534C8.21675 10.7259 8.5739 10.0577 9.09835 9.53329C9.6228 9.00884 10.291 8.65169 11.0184 8.50699C11.7458 8.3623 12.4998 8.43656 13.1851 8.72039C13.8703 9.00422 14.456 9.48487 14.868 10.1016C15.2801 10.7182 15.5 11.4433 15.5 12.1849C15.5 13.1795 15.1049 14.1333 14.4017 14.8366C13.6984 15.5399 12.7446 15.9349 11.75 15.9349ZM11.75 9.93494C11.305 9.93494 10.87 10.0669 10.5 10.3141C10.13 10.5614 9.84157 10.9128 9.67127 11.3239C9.50098 11.735 9.45642 12.1874 9.54323 12.6239C9.63005 13.0603 9.84434 13.4613 10.159 13.7759C10.4737 14.0906 10.8746 14.3049 11.311 14.3917C11.7475 14.4785 12.1999 14.434 12.611 14.2637C13.0222 14.0934 13.3736 13.805 13.6208 13.435C13.868 13.065 14 12.6299 14 12.1849C14 11.5882 13.7629 11.0159 13.341 10.5939C12.919 10.172 12.3467 9.93494 11.75 9.93494Z" fill="#D3D3D3"/>
<path d="M14.96 22.375C14.7476 22.373 14.5362 22.3462 14.33 22.295C13.7146 22.1297 13.1874 21.7317 12.86 21.185L12.74 20.985C12.15 19.965 11.34 19.965 10.75 20.985L10.64 21.175C10.4813 21.4499 10.2697 21.6906 10.0174 21.8832C9.76508 22.0758 9.47705 22.2165 9.17 22.297C8.86396 22.3816 8.5439 22.4031 8.2293 22.3601C7.9147 22.3171 7.61213 22.2106 7.34 22.047L5.62 21.057C5.01023 20.7067 4.56449 20.1286 4.38073 19.4498C4.19696 18.771 4.29022 18.047 4.64 17.437C4.7756 17.2602 4.86492 17.0524 4.89984 16.8323C4.93477 16.6123 4.9142 16.387 4.84 16.177C4.69592 16.0069 4.5115 15.8757 4.30361 15.7954C4.09572 15.715 3.871 15.688 3.65 15.717C2.94724 15.7156 2.27366 15.4358 1.77692 14.9386C1.28018 14.4415 1.00079 13.7677 1 13.065V11.305C1.00132 10.6026 1.28094 9.92928 1.77763 9.4326C2.27431 8.93591 2.94758 8.65629 3.65 8.65497C3.87083 8.68413 4.09544 8.65749 4.30331 8.57749C4.51119 8.49748 4.69571 8.36666 4.84 8.19697C4.91671 7.9873 4.9386 7.76151 4.9036 7.541C4.8686 7.3205 4.77787 7.11258 4.64 6.93697C4.29158 6.3275 4.19813 5.60504 4.38 4.92697C4.46693 4.58864 4.62166 4.27149 4.83481 3.99474C5.04796 3.71799 5.31508 3.48741 5.62 3.31697L7.35 2.32497C7.90353 2.0051 8.56107 1.91705 9.17926 2.08003C9.79744 2.243 10.3261 2.64378 10.65 3.19497L10.77 3.39497C11.36 4.41497 12.17 4.41497 12.76 3.39497L12.87 3.20497C13.0296 2.92991 13.2421 2.68911 13.495 2.4964C13.748 2.30369 14.0366 2.16287 14.3442 2.08202C14.6518 2.00118 14.9723 1.98191 15.2873 2.02532C15.6024 2.06873 15.9057 2.17396 16.18 2.33497L17.9 3.32497C18.5098 3.67527 18.9555 4.25334 19.1393 4.93213C19.323 5.61092 19.2298 6.3349 18.88 6.94497C18.7444 7.12174 18.6551 7.32957 18.6202 7.5496C18.5852 7.76963 18.6058 7.9949 18.68 8.20497C18.8241 8.37502 19.0085 8.50622 19.2164 8.58658C19.4243 8.66694 19.649 8.69389 19.87 8.66497C20.5724 8.66629 21.2457 8.94591 21.7424 9.4426C22.2391 9.93928 22.5187 10.6126 22.52 11.315V13.075C22.5187 13.7774 22.2391 14.4507 21.7424 14.9473C21.2457 15.444 20.5724 15.7236 19.87 15.725C19.649 15.696 19.4243 15.723 19.2164 15.8034C19.0085 15.8837 18.8241 16.0149 18.68 16.185C18.6033 16.3946 18.5814 16.6204 18.6164 16.8409C18.6514 17.0614 18.7421 17.2694 18.88 17.445C19.0548 17.7459 19.1678 18.0786 19.2125 18.4238C19.2571 18.7689 19.2325 19.1195 19.14 19.455C19.0531 19.7933 18.8983 20.1105 18.6852 20.3872C18.472 20.6639 18.2049 20.8945 17.9 21.065L16.17 22.055C15.8005 22.263 15.384 22.3732 14.96 22.375ZM11.75 18.675C12.2353 18.7055 12.7035 18.8654 13.1062 19.1379C13.5089 19.4105 13.8313 19.7858 14.04 20.225L14.15 20.415C14.2725 20.6212 14.4709 20.7713 14.7027 20.833C14.9345 20.8947 15.1812 20.8631 15.39 20.745L17.12 19.745C17.3856 19.5923 17.5798 19.3406 17.66 19.045C17.6998 18.8999 17.7106 18.7483 17.6918 18.599C17.6729 18.4497 17.6247 18.3056 17.55 18.175C17.2753 17.7738 17.1121 17.3069 17.0769 16.822C17.0418 16.3371 17.136 15.8515 17.35 15.415C17.6196 15.0098 17.9926 14.6839 18.4304 14.4712C18.8682 14.2585 19.3548 14.1666 19.84 14.205C19.9912 14.2058 20.1411 14.1766 20.281 14.1191C20.4209 14.0615 20.548 13.9769 20.6549 13.8699C20.7619 13.763 20.8466 13.6359 20.9041 13.496C20.9616 13.3561 20.9908 13.2062 20.99 13.055V11.297C20.99 10.992 20.8688 10.6995 20.6532 10.4838C20.4375 10.2681 20.145 10.147 19.84 10.147C19.3548 10.1854 18.8682 10.0935 18.4304 9.88072C17.9926 9.66799 17.6196 9.34218 17.35 8.93697C17.136 8.5004 17.0418 8.01485 17.0769 7.52994C17.1121 7.04502 17.2753 6.57813 17.55 6.17697C17.6247 6.04634 17.6729 5.90224 17.6918 5.75294C17.7106 5.60364 17.6998 5.45209 17.66 5.30697C17.5809 5.01368 17.3908 4.76265 17.13 4.60697L15.4 3.61697C15.2956 3.55577 15.1802 3.51576 15.0604 3.49923C14.9405 3.48269 14.8186 3.48996 14.7015 3.52061C14.5845 3.55127 14.4747 3.6047 14.3783 3.67786C14.282 3.75102 14.201 3.84247 14.14 3.94697L14.03 4.13697C13.821 4.57577 13.4985 4.95069 13.0958 5.22288C12.6932 5.49506 12.2251 5.65461 11.74 5.68497C11.2549 5.65461 10.7868 5.49506 10.3842 5.22288C9.9815 4.95069 9.65897 4.57577 9.45 4.13697L9.34 3.93697C9.21573 3.7326 9.01661 3.58481 8.78501 3.52504C8.55342 3.46528 8.30764 3.49826 8.1 3.61697L6.37 4.61697C6.10443 4.76962 5.91024 5.02135 5.83 5.31697C5.79043 5.46179 5.77978 5.61298 5.79866 5.76191C5.81753 5.91085 5.86556 6.0546 5.94 6.18497C6.21469 6.58613 6.37794 7.05302 6.41308 7.53794C6.44822 8.02285 6.35398 8.5084 6.14 8.94497C5.87061 9.35054 5.49773 9.67676 5.05995 9.88984C4.62216 10.1029 4.13539 10.1952 3.65 10.157C3.49893 10.1562 3.34919 10.1853 3.20944 10.2427C3.06969 10.3001 2.94269 10.3846 2.83577 10.4913C2.72885 10.5981 2.64413 10.7249 2.5865 10.8646C2.52887 11.0042 2.49947 11.1539 2.5 11.305V13.065C2.5 13.37 2.62116 13.6625 2.83683 13.8781C3.05249 14.0938 3.345 14.215 3.65 14.215C4.1352 14.1766 4.62185 14.2685 5.05961 14.4812C5.49738 14.6939 5.87037 15.0198 6.14 15.425C6.35398 15.8615 6.44822 16.3471 6.41308 16.832C6.37794 17.3169 6.21469 17.7838 5.94 18.185C5.8653 18.3156 5.81712 18.4597 5.79825 18.609C5.77937 18.7583 5.79016 18.9099 5.83 19.055C5.9091 19.3483 6.09916 19.5993 6.36 19.755L8.09 20.745C8.19225 20.8075 8.30613 20.8486 8.42474 20.8658C8.54335 20.883 8.66421 20.8759 8.78 20.845C9.01873 20.7813 9.22322 20.627 9.35 20.415L9.46 20.225C9.6704 19.7871 9.99324 19.4129 10.3956 19.1406C10.7979 18.8682 11.2653 18.7076 11.75 18.675Z" fill="#D3D3D3"/>
</svg>
