<svg width="24" height="24" viewBox="0 0 24 24" fill="none" xmlns="http://www.w3.org/2000/svg">
<path d="M16.49 22.75H7.5C6.80375 22.8094 6.10287 22.7178 5.44531 22.4813C4.78774 22.2449 4.18899 21.8692 3.69 21.38C3.26581 20.8264 2.96585 20.188 2.81054 19.5081C2.65524 18.8282 2.64823 18.1228 2.79 17.44L3.69 9.94C3.95 7.73 4.51 5.75 8.41 5.75H15.61C19.5 5.75 20.06 7.73 20.33 9.94L21.23 17.44C21.37 18.1229 21.3621 18.8279 21.2069 19.5075C21.0516 20.1871 20.7526 20.8256 20.33 21.38C19.8238 21.8678 19.2196 22.2422 18.5575 22.4784C17.8954 22.7146 17.1906 22.8072 16.49 22.75ZM8.4 7.25C5.52 7.25 5.38 8.39 5.17 10.11L4.27 17.61C4.16119 18.0838 4.15303 18.5752 4.24605 19.0523C4.33907 19.5295 4.53119 19.9818 4.81 20.38C5.17405 20.7023 5.60126 20.9453 6.06441 21.0934C6.52756 21.2414 7.01648 21.2914 7.5 21.24H16.49C16.9735 21.2914 17.4624 21.2414 17.9256 21.0934C18.3887 20.9453 18.816 20.7023 19.18 20.38C19.4588 19.9818 19.6509 19.5295 19.744 19.0523C19.837 18.5752 19.8288 18.0838 19.72 17.61L18.82 10.11C18.61 8.38 18.48 7.25 15.59 7.25H8.4Z" fill="#D3D3D3"/>
<path d="M16 8.74998C15.8015 8.74867 15.6115 8.66923 15.4711 8.52887C15.3308 8.3885 15.2513 8.19849 15.25 7.99998V4.49998C15.2692 4.2653 15.2371 4.02925 15.156 3.80821C15.0748 3.58717 14.9466 3.38644 14.7801 3.21994C14.6136 3.05344 14.4128 2.92516 14.1918 2.84401C13.9707 2.76286 13.7347 2.73077 13.5 2.74998H10.5C10.2653 2.73077 10.0293 2.76286 9.80824 2.84401C9.5872 2.92516 9.38647 3.05344 9.21997 3.21994C9.05347 3.38644 8.92519 3.58717 8.84404 3.80821C8.76289 4.02925 8.7308 4.2653 8.75001 4.49998V7.99998C8.7487 8.19849 8.66926 8.3885 8.5289 8.52887C8.38853 8.66923 8.19852 8.74867 8.00001 8.74998C7.80151 8.74867 7.6115 8.66923 7.47113 8.52887C7.33076 8.3885 7.25132 8.19849 7.25001 7.99998V4.49998C7.23055 4.06801 7.30128 3.63672 7.45772 3.2336C7.61416 2.83047 7.85287 2.46436 8.15863 2.1586C8.4644 1.85284 8.8305 1.61413 9.23363 1.45769C9.63675 1.30125 10.068 1.23051 10.5 1.24998H13.5C13.932 1.23051 14.3633 1.30125 14.7664 1.45769C15.1695 1.61413 15.5356 1.85284 15.8414 2.1586C16.1472 2.46436 16.3859 2.83047 16.5423 3.2336C16.6987 3.63672 16.7695 4.06801 16.75 4.49998V7.99998C16.7487 8.19849 16.6693 8.3885 16.5289 8.52887C16.3885 8.66923 16.1985 8.74867 16 8.74998Z" fill="#D3D3D3"/>
<path d="M20.41 17.78H8C7.80149 17.7787 7.61149 17.6993 7.47112 17.5589C7.33075 17.4185 7.25131 17.2285 7.25 17.03C7.25131 16.8315 7.33075 16.6415 7.47112 16.5011C7.61149 16.3608 7.80149 16.2813 8 16.28H20.41C20.6085 16.2813 20.7985 16.3608 20.9389 16.5011C21.0793 16.6415 21.1587 16.8315 21.16 17.03C21.1587 17.2285 21.0793 17.4185 20.9389 17.5589C20.7985 17.6993 20.6085 17.7787 20.41 17.78Z" fill="#D3D3D3"/>
</svg>
