<svg width="28" height="22" viewBox="0 0 28 22" fill="none" xmlns="http://www.w3.org/2000/svg">
<path opacity="0.4" d="M16.48 0.146606H11.52C10.0947 0.146606 8.68342 0.427336 7.36663 0.972767C6.04984 1.5182 4.85338 2.31765 3.84555 3.32547C2.83773 4.3333 2.03828 5.52976 1.49285 6.84655C0.947417 8.16334 0.666687 9.57466 0.666687 10.9999C0.666687 12.4252 0.947417 13.8365 1.49285 15.1533C2.03828 16.4701 2.83773 17.6666 3.84555 18.6744C4.85338 19.6822 6.04984 20.4817 7.36663 21.0271C8.68342 21.5725 10.0947 21.8533 11.52 21.8533H16.48C19.3585 21.8533 22.1191 20.7098 24.1545 18.6744C26.1899 16.639 27.3334 13.8784 27.3334 10.9999C27.3334 8.12146 26.1899 5.36087 24.1545 3.32547C22.1191 1.29008 19.3585 0.146606 16.48 0.146606V0.146606Z" fill="#949699"/>
<path d="M17.4134 10.9999C17.4134 12.1655 17.0677 13.3049 16.4202 14.2741C15.7726 15.2432 14.8522 15.9986 13.7753 16.4446C12.6985 16.8907 11.5135 17.0074 10.3703 16.78C9.22712 16.5526 8.17703 15.9913 7.35283 15.1671C6.52863 14.3429 5.96735 13.2928 5.73995 12.1496C5.51255 11.0064 5.62926 9.82149 6.07531 8.74462C6.52137 7.66775 7.27673 6.74734 8.24588 6.09977C9.21504 5.45221 10.3545 5.10657 11.52 5.10657C13.0831 5.10657 14.582 5.72747 15.6873 6.83268C16.7925 7.9379 17.4134 9.43689 17.4134 10.9999Z" fill="#949699"/>
</svg>
