<svg width="28" height="22" viewBox="0 0 28 22" fill="none" xmlns="http://www.w3.org/2000/svg">
<path opacity="0.4" d="M16.48 0.146606H11.52C10.0947 0.146606 8.68338 0.427336 7.3666 0.972767C6.04981 1.5182 4.85335 2.31765 3.84552 3.32547C2.8377 4.3333 2.03825 5.52976 1.49282 6.84655C0.947386 8.16334 0.666656 9.57466 0.666656 10.9999C0.666656 12.4252 0.947386 13.8365 1.49282 15.1533C2.03825 16.4701 2.8377 17.6666 3.84552 18.6744C4.85335 19.6822 6.04981 20.4817 7.3666 21.0271C8.68338 21.5725 10.0947 21.8533 11.52 21.8533H16.48C19.3585 21.8533 22.1191 20.7098 24.1545 18.6744C26.1898 16.639 27.3333 13.8784 27.3333 10.9999C27.3333 8.12146 26.1898 5.36087 24.1545 3.32547C22.1191 1.29008 19.3585 0.146606 16.48 0.146606Z" fill="#219653"/>
<path d="M17.4133 10.9999C17.4133 12.1655 17.0677 13.3049 16.4201 14.2741C15.7725 15.2432 14.8521 15.9986 13.7753 16.4446C12.6984 16.8907 11.5134 17.0074 10.3703 16.78C9.22706 16.5526 8.17697 15.9913 7.35277 15.1671C6.52857 14.3429 5.96729 13.2928 5.73989 12.1496C5.51249 11.0064 5.6292 9.82149 6.07525 8.74462C6.52131 7.66775 7.27667 6.74734 8.24582 6.09977C9.21498 5.45221 10.3544 5.10657 11.52 5.10657C13.083 5.10657 14.582 5.72747 15.6872 6.83268C16.7924 7.9379 17.4133 9.43689 17.4133 10.9999Z" fill="#219653"/>
</svg>
