<svg width="24" height="24" viewBox="0 0 24 24" fill="none" xmlns="http://www.w3.org/2000/svg">
<path d="M13 11.3241H7" stroke="#D3D3D3" stroke-width="1.5" stroke-linecap="round" stroke-linejoin="round"/>
<path d="M2 11.3241V6.7041C1.99961 6.21941 2.09478 5.7394 2.28008 5.29153C2.46538 4.84366 2.73717 4.43672 3.0799 4.094C3.42262 3.75127 3.82956 3.47948 4.27743 3.29418C4.7253 3.10888 5.20531 3.01371 5.69 3.0141H11.31C11.7733 2.97166 12.2404 3.02527 12.6821 3.17159C13.1237 3.31791 13.5304 3.55378 13.8768 3.86445C14.2231 4.17512 14.5016 4.55392 14.6949 4.97714C14.8882 5.40036 14.992 5.85891 15 6.3241" stroke="#D3D3D3" stroke-width="1.5" stroke-linecap="round" stroke-linejoin="round"/>
<path d="M17.48 12.3741C17.2207 12.6254 17.0337 12.9418 16.9387 13.2901C16.8437 13.6385 16.8442 14.006 16.94 14.3541C17.0814 14.8046 17.3659 15.1968 17.7503 15.4711C18.1346 15.7454 18.598 15.8869 19.07 15.8741H20V17.3241C20 18.385 19.5786 19.4024 18.8284 20.1525C18.0783 20.9027 17.0609 21.3241 16 21.3241H6C4.93913 21.3241 3.92172 20.9027 3.17157 20.1525C2.42143 19.4024 2 18.385 2 17.3241V10.3241C2 9.26323 2.42143 8.24581 3.17157 7.49567C3.92172 6.74552 4.93913 6.3241 6 6.3241H16C17.0599 6.32726 18.0755 6.74971 18.8249 7.49917C19.5744 8.24863 19.9968 9.2642 20 10.3241V11.7741H18.92C18.652 11.7721 18.3863 11.8243 18.1389 11.9274C17.8914 12.0304 17.6673 12.1824 17.48 12.3741Z" stroke="#D3D3D3" stroke-width="1.5" stroke-linecap="round" stroke-linejoin="round"/>
<path d="M22 12.7941V14.8541C21.9984 15.1256 21.8892 15.3855 21.6963 15.5767C21.5034 15.7679 21.2426 15.8749 20.971 15.8741H19.04C18.5124 15.885 17.9994 15.6998 17.6004 15.3544C17.2014 15.0089 16.9447 14.5278 16.88 14.0041C16.8567 13.7213 16.8921 13.4368 16.9839 13.1683C17.0756 12.8998 17.2219 12.6532 17.4134 12.4439C17.6049 12.2345 17.8375 12.067 18.0968 11.9517C18.356 11.8365 18.6363 11.776 18.92 11.7741H20.971C21.2426 11.7733 21.5034 11.8802 21.6963 12.0714C21.8892 12.2626 21.9984 12.5225 22 12.7941V12.7941Z" stroke="#D3D3D3" stroke-width="1.5" stroke-linecap="round" stroke-linejoin="round"/>
</svg>
